<svg width="18" height="21" viewBox="0 0 18 21" fill="none" xmlns="http://www.w3.org/2000/svg">
<path d="M9 21L6 18H2C1.45 18 0.979 17.8043 0.587 17.413C0.195667 17.021 0 16.55 0 16V2C0 1.45 0.195667 0.979 0.587 0.587C0.979 0.195667 1.45 0 2 0H16C16.55 0 17.021 0.195667 17.413 0.587C17.8043 0.979 18 1.45 18 2V16C18 16.55 17.8043 17.021 17.413 17.413C17.021 17.8043 16.55 18 16 18H12L9 21ZM9.9 10.95C9.9 10.35 9.96667 9.90833 10.1 9.625C10.2333 9.34167 10.5167 8.98333 10.95 8.55C11.5333 7.96667 11.946 7.479 12.188 7.087C12.4293 6.69567 12.55 6.25 12.55 5.75C12.55 4.86667 12.25 4.154 11.65 3.612C11.05 3.07067 10.2417 2.8 9.225 2.8C8.30833 2.8 7.52933 3.025 6.888 3.475C6.246 3.925 5.8 4.55 5.55 5.35L7.2 6C7.31667 5.55 7.55 5.18733 7.9 4.912C8.25 4.63733 8.65833 4.5 9.125 4.5C9.575 4.5 9.95 4.62067 10.25 4.862C10.55 5.104 10.7 5.425 10.7 5.825C10.7 6.10833 10.6083 6.40833 10.425 6.725C10.2417 7.04167 9.93333 7.39167 9.5 7.775C8.95 8.25833 8.571 8.72067 8.363 9.162C8.15433 9.604 8.05 10.2 8.05 10.95H9.9ZM8.95 14.8C9.3 14.8 9.596 14.6793 9.838 14.438C10.0793 14.196 10.2 13.9 10.2 13.55C10.2 13.2 10.0793 12.904 9.838 12.662C9.596 12.4207 9.3 12.3 8.95 12.3C8.6 12.3 8.304 12.4207 8.062 12.662C7.82067 12.904 7.7 13.2 7.7 13.55C7.7 13.9 7.82067 14.196 8.062 14.438C8.304 14.6793 8.6 14.8 8.95 14.8Z" fill="#b9c2cb"/>
</svg>
