<?xml version="1.0" encoding="UTF-8"?>
<!DOCTYPE svg PUBLIC "-//W3C//DTD SVG 1.1//EN" "http://www.w3.org/Graphics/SVG/1.1/DTD/svg11.dtd">
<!-- Creator: CorelDRAW 2018 (64-Bit) -->
<svg xmlns="http://www.w3.org/2000/svg" xml:space="preserve" width="47.5779mm" height="25.6835mm" version="1.1" shape-rendering="geometricPrecision" text-rendering="geometricPrecision" image-rendering="optimizeQuality" fill-rule="evenodd" clip-rule="evenodd"
viewBox="0 0 2761.24 1490.57"
 xmlns:xlink="http://www.w3.org/1999/xlink"
 role="img">
 <defs>
    <linearGradient id="id0" gradientUnits="userSpaceOnUse" x1="1318.26" y1="353.2" x2="1318.28" y2="218.41">
     <stop offset="0" stop-opacity="1" stop-color="#1D76F3"/>
     <stop offset="1" stop-opacity="1" stop-color="#1EC1FB"/>
    </linearGradient>
 </defs>
 <g id="Layer_x0020_1">
  <metadata id="CorelCorpID_0Corel-Layer"/>
  <circle fill="#F5F6F9" cx="703.65" cy="285.36" r="64.06"/>
  <rect fill="none" stroke="#E6E6E6" stroke-width="4.93" stroke-miterlimit="22.9256" x="2.46" y="2.46" width="2756.31" height="1485.64"/>
  <rect fill="white" x="524.51" y="69.96" width="101.39" height="107.55" rx="6.16" ry="6.16"/>
  <path fill="#707070" fill-rule="nonzero" stroke="#707070" stroke-width="2.9" stroke-miterlimit="22.9256" d="M343.75 69.93l89.06 0c2.36,0 4.52,0.98 6.08,2.54 1.57,1.56 2.54,3.73 2.54,6.09l0 94.01c0,2.36 -0.98,4.52 -2.54,6.08 -1.57,1.57 -3.73,2.54 -6.09,2.54l-89.06 0c-2.36,0 -4.53,-0.98 -6.08,-2.54 -1.57,-1.57 -2.54,-3.73 -2.54,-6.09l0 -94.01c0,-2.36 0.98,-4.53 2.54,-6.08 1.56,-1.57 3.73,-2.54 6.09,-2.54zm89.06 4.92l-89.06 0c-1.02,0 -1.96,0.42 -2.62,1.08 -0.67,0.67 -1.09,1.6 -1.09,2.62l0 94.01c0,1.02 0.42,1.96 1.08,2.62 0.67,0.67 1.6,1.09 2.62,1.09l89.06 0c1.02,0 1.96,-0.42 2.62,-1.08 0.67,-0.67 1.09,-1.6 1.09,-2.62l0 -94.01c0,-1.02 -0.42,-1.96 -1.08,-2.62 -0.67,-0.67 -1.6,-1.09 -2.62,-1.09z"/>
  <path fill="#707070" fill-rule="nonzero" d="M380.68 108.71c-2.71,0 -4.92,-2.21 -4.92,-4.92 0,-2.71 2.21,-4.92 4.92,-4.92l37.29 0c2.71,0 4.92,2.21 4.92,4.92 0,2.71 -2.21,4.92 -4.92,4.92l-37.29 0z"/>
  <path fill="#707070" fill-rule="nonzero" d="M355.03 102.32c-1.2,-0.63 -1.65,-2.12 -1.03,-3.31 0.63,-1.2 2.12,-1.65 3.31,-1.03 1.59,0.84 2.95,2.05 4.1,3.48l0.66 0.86c0.88,-1.31 1.8,-2.54 2.78,-3.66 1.89,-2.18 3.98,-4 6.33,-5.31 1.18,-0.66 2.68,-0.24 3.34,0.94 0.66,1.18 0.24,2.68 -0.94,3.34 -1.85,1.04 -3.51,2.48 -5.03,4.23 -1.57,1.8 -2.99,3.93 -4.32,6.26 -0.23,0.46 -0.6,0.85 -1.09,1.1 -1.21,0.6 -2.69,0.12 -3.29,-1.09 -0.66,-1.32 -1.4,-2.55 -2.22,-3.56l-0.04 -0.05c-0.75,-0.93 -1.61,-1.71 -2.57,-2.21z"/>
  <path fill="#707070" fill-rule="nonzero" d="M380.68 132.85c-2.71,0 -4.92,-2.21 -4.92,-4.92 0,-2.71 2.21,-4.92 4.92,-4.92l37.29 0c2.71,0 4.92,2.21 4.92,4.92 0,2.71 -2.21,4.92 -4.92,4.92l-37.29 0z"/>
  <path fill="#707070" fill-rule="nonzero" d="M355.03 126.46c-1.2,-0.63 -1.65,-2.12 -1.03,-3.31 0.63,-1.2 2.12,-1.65 3.31,-1.03 1.59,0.84 2.95,2.05 4.1,3.48l0.66 0.86c0.88,-1.31 1.8,-2.54 2.78,-3.66 1.89,-2.18 3.98,-4 6.33,-5.31 1.18,-0.66 2.68,-0.24 3.34,0.94 0.66,1.18 0.24,2.68 -0.94,3.34 -1.85,1.04 -3.51,2.48 -5.03,4.23 -1.57,1.8 -2.99,3.93 -4.32,6.26 -0.23,0.46 -0.6,0.85 -1.09,1.1 -1.21,0.6 -2.69,0.12 -3.29,-1.09 -0.66,-1.32 -1.4,-2.55 -2.22,-3.56l-0.04 -0.05c-0.75,-0.93 -1.61,-1.71 -2.57,-2.21z"/>
  <path fill="#707070" fill-rule="nonzero" d="M380.68 157c-2.71,0 -4.92,-2.21 -4.92,-4.92 0,-2.71 2.21,-4.92 4.92,-4.92l37.29 0c2.71,0 4.92,2.21 4.92,4.92 0,2.71 -2.21,4.92 -4.92,4.92l-37.29 0z"/>
  <path fill="#707070" fill-rule="nonzero" d="M355.03 150.61c-1.2,-0.63 -1.65,-2.12 -1.03,-3.31 0.63,-1.2 2.12,-1.65 3.31,-1.03 1.59,0.84 2.95,2.05 4.1,3.48l0.66 0.86c0.88,-1.31 1.8,-2.54 2.78,-3.66 1.89,-2.18 3.98,-4 6.33,-5.31 1.18,-0.66 2.68,-0.24 3.34,0.94 0.66,1.18 0.24,2.68 -0.94,3.34 -1.85,1.04 -3.51,2.48 -5.03,4.23 -1.57,1.8 -2.99,3.93 -4.32,6.26 -0.23,0.46 -0.6,0.85 -1.09,1.1 -1.21,0.6 -2.69,0.12 -3.29,-1.09 -0.66,-1.32 -1.4,-2.55 -2.22,-3.56l-0.04 -0.05c-0.75,-0.93 -1.61,-1.71 -2.57,-2.21z"/>
  <path fill="white" d="M362.6 64.48l14.82 0 0 -7.21 4.82 0c0,-3.31 2.69,-6 6,-6 3.31,0 6,2.69 6,6l4.81 0 0 7.21 12.42 0 0 18.03 -48.87 0 0 -18.03z"/>
  <path fill="#707070" fill-rule="nonzero" stroke="#707070" stroke-width="2.44" stroke-miterlimit="22.9256" d="M362.6 61.29l12.36 0 0 -4.75c0,-1.36 1.1,-2.46 2.46,-2.46l2.72 0c0.41,-1.35 1.15,-2.55 2.12,-3.52 1.53,-1.53 3.64,-2.48 5.98,-2.48 2.32,0 4.45,0.96 5.98,2.48 0.97,0.97 1.71,2.17 2.12,3.52l2.72 0c1.36,0 2.46,1.1 2.46,2.46l0 4.75 9.96 0c1.36,0 2.46,1.1 2.46,2.46l0 16.32c0,1.36 -1.1,2.46 -2.46,2.46l-48.87 0c-1.36,0 -2.46,-1.1 -2.46,-2.46l0 -16.32c0,-1.36 1.1,-2.46 2.46,-2.46zm14.82 4.92l-12.36 0 0 11.4 43.95 0 0 -11.4 -9.96 0c-1.36,0 -2.46,-1.1 -2.46,-2.46l0 -4.75 -2.35 0c-1.36,0 -2.46,-1.1 -2.46,-2.46 0,-0.98 -0.4,-1.87 -1.03,-2.51 -0.63,-0.63 -1.53,-1.03 -2.51,-1.03 -0.98,0 -1.87,0.4 -2.51,1.03 -0.63,0.63 -1.03,1.53 -1.03,2.51 0,1.36 -1.1,2.46 -2.46,2.46l-2.36 0 0 4.75c0,1.36 -1.1,2.46 -2.46,2.46z"/>
  <g id="_2291296810080">
   <path fill="#828282" fill-rule="nonzero" stroke="#828282" stroke-width="4.91" stroke-miterlimit="22.9256" d="M778.09 55.42l77.66 0c2.84,0 5.42,1.17 7.28,3.03 1.86,1.86 3.03,4.45 3.03,7.28l0 29.64 -4.92 -5.03 0 -24.62c0,-1.49 -0.61,-2.84 -1.58,-3.81 -0.97,-0.97 -2.33,-1.58 -3.81,-1.58l-77.66 0c-1.49,0 -2.84,0.61 -3.81,1.58 -0.97,0.97 -1.58,2.33 -1.58,3.81l0 102.23c0,1.49 0.61,2.84 1.58,3.81 0.97,0.97 2.33,1.58 3.81,1.58l77.66 0c1.49,0 2.84,-0.61 3.81,-1.58 0.97,-0.97 1.58,-2.33 1.58,-3.81l0 -24.62 4.92 -5.03 0 29.64c0,2.83 -1.17,5.42 -3.03,7.28 -1.86,1.86 -4.45,3.03 -7.28,3.03l-77.66 0c-2.83,0 -5.42,-1.17 -7.28,-3.03 -1.86,-1.86 -3.03,-4.46 -3.03,-7.28l0 -102.23c0,-2.84 1.17,-5.42 3.03,-7.28 1.86,-1.86 4.46,-3.03 7.28,-3.03z"/>
   <polygon fill="#828282" stroke="#828282" stroke-width="4.91" stroke-miterlimit="22.9256" points="833.02,85.64 863.6,116.84 833.02,148.05 833.02,130.84 798.39,130.84 798.39,102.85 833.02,102.85 "/>
  </g>
  <path fill="white" stroke="#707070" stroke-width="7.37" stroke-linecap="round" stroke-linejoin="round" stroke-miterlimit="22.9256" d="M536.35 60.89c31.62,0 57.26,25.63 57.26,57.26 0,31.62 -25.63,57.26 -57.26,57.26 -31.62,0 -57.26,-25.63 -57.26,-57.26 0,-31.62 25.63,-57.26 57.26,-57.26zm0 -12.45c38.5,0 69.71,31.21 69.71,69.71 0,38.5 -31.21,69.71 -69.71,69.71 -38.5,0 -69.71,-31.21 -69.71,-69.71 0,-38.5 31.21,-69.71 69.71,-69.71z"/>
  <path fill="white" stroke="#707070" stroke-width="7.37" stroke-linecap="round" stroke-linejoin="round" stroke-miterlimit="22.9256" d="M536.35 152.8c10.54,0 19.09,7.74 19.09,17.28 0,0.72 -0.04,1.43 -0.14,2.12 5.58,-1.96 10.76,-4.75 15.4,-8.23l-0.34 -0.43c-14.75,-23.08 -2.34,-41.68 21.97,-38.76l0.89 0.08c0.26,-2.2 0.39,-4.44 0.39,-6.71 0,-3.08 -0.25,-6.11 -0.72,-9.06 -38.66,-13.31 -76.3,-12.61 -113.08,0 -0.47,2.95 -0.72,5.98 -0.72,9.06 0,2.24 0.13,4.45 0.38,6.63 24.3,-2.92 36.71,15.68 21.96,38.76 4.78,3.69 10.16,6.62 15.97,8.66 -0.1,-0.69 -0.14,-1.4 -0.14,-2.12 0,-9.54 8.55,-17.28 19.09,-17.28zm0 -42.26c9.37,0 16.96,3.88 16.96,8.65 0,4.78 -7.59,8.65 -16.96,8.65 -9.37,0 -16.96,-3.88 -16.96,-8.65 0,-4.78 7.59,-8.65 16.96,-8.65z"/>
  <path fill="none" stroke="#707070" stroke-width="7.86" stroke-linecap="round" stroke-linejoin="round" stroke-miterlimit="22.9256" d="M122.07 179.55c-1.17,-7.21 -5.4,-11.57 -12.48,-13.28l-38.9 0 0 -95.28 38.9 0c7.09,1.72 11.32,6.07 12.48,13.28 1.17,-7.21 5.4,-11.57 12.48,-13.28l38.9 0 0 95.28 -38.9 0c-7.09,1.72 -11.32,6.07 -12.48,13.28z"/>
  <line fill="none" stroke="#707070" stroke-width="7.86" stroke-linecap="round" stroke-linejoin="round" stroke-miterlimit="22.9256" x1="122.07" y1="84.27" x2="122.07" y2= "146.66" />
  <path fill="none" stroke="#707070" stroke-width="7.86" stroke-linecap="round" stroke-linejoin="round" stroke-miterlimit="16.3804" d="M288.81 128.81l0 10.42c0,13.98 -13.61,24.77 -26.63,24.77l-10.1 0c-15.54,0 -27.11,-10.59 -27.11,-24.77l0 -10.42"/>
  <rect fill="white" stroke="#707070" stroke-width="6.88" stroke-linecap="round" stroke-linejoin="round" stroke-miterlimit="22.9256" transform="matrix(0.577453 -0.29228 0.577453 0.29228 204.551 101.442)" width="90.64" height="90.64"/>
  <line fill="none" stroke="#7D7D7D" stroke-width="7.83" stroke-linecap="round" stroke-linejoin="round" stroke-miterlimit="22.9256" x1="303.69" y1="121.67" x2="303.69" y2= "146.44" />
  <path fill="none" stroke="#7D7D7D" stroke-width="7.83" stroke-linecap="round" stroke-linejoin="round" stroke-miterlimit="22.9256" d="M685.37 51.4c16.87,0 30.53,13.66 30.53,30.53 0,7.48 -2.69,14.32 -7.14,19.63l0.01 0 -23.17 29.51 -23.45 -29.32 0.01 0c-4.56,-5.33 -7.3,-12.25 -7.3,-19.81 0,-16.87 13.66,-30.53 30.53,-30.53zm0 18.31c6.75,0 12.22,5.47 12.22,12.22 0,6.75 -5.47,12.22 -12.22,12.22 -6.75,0 -12.22,-5.47 -12.22,-12.22 0,-6.75 5.47,-12.22 12.22,-12.22z"/>
  <path fill="white" stroke="#7D7D7D" stroke-width="7.83" stroke-linecap="round" stroke-linejoin="round" stroke-miterlimit="22.9256" d="M640.1 109.78l-5.66 57.66 30.84 -18.43 40.52 19.53 33.57 -21.54 -12.04 -51.1 -24.64 13.39 -17.1 21.76 -23.45 -29.32 0.01 0c-0.71,-0.84 -1.39,-1.72 -2.01,-2.63l-20.03 10.67z"/>
  <line fill="none" stroke="#7D7D7D" stroke-width="7.37" stroke-linecap="round" stroke-linejoin="round" stroke-miterlimit="22.9256" x1="665.28" y1="149.01" x2="667.78" y2= "108.79" />
  <line fill="none" stroke="#7D7D7D" stroke-width="7.37" stroke-linecap="round" stroke-linejoin="round" stroke-miterlimit="22.9256" x1="705.8" y1="168.54" x2="700.49" y2= "112.08" />
  <g id="_2289721416032">
   <circle fill="#35AE2C" cx="1080.15" cy="116.23" r="45.68"/>
   <path fill="white" d="M1054.14 136.35l50.54 0c2.04,0 3.71,-1.67 3.71,-3.71l0 -27.93c0,-0.73 -0.21,-1.4 -0.57,-1.98l-27.67 22.05 -28.56 -22.77c-0.72,0.67 -1.17,1.64 -1.17,2.7l0 27.93c0,2.04 1.67,3.71 3.71,3.71z"/>
   <polygon fill="white" points="1052.53,95.66 1080.15,117.68 1107.78,95.66 "/>
  </g>
  <path fill="#828282" d="M949.35 66.88c16.27,0 29.46,13.19 29.46,29.46 0,16.27 -13.19,29.46 -29.46,29.46 -16.27,0 -29.46,-13.19 -29.46,-29.46 0,-16.27 13.19,-29.46 29.46,-29.46zm29.12 61.76c12.73,9.01 22.36,23.78 26.45,41.35l-111.14 0c4.09,-17.57 13.72,-32.33 26.45,-41.35 1.75,-1.24 3.99,-1.23 5.72,0.03 6.58,4.76 14.65,7.58 23.39,7.58 8.74,0 16.82,-2.81 23.39,-7.58 1.74,-1.26 3.98,-1.27 5.72,-0.03z"/>
  <g id="_2289721415968">
   <path fill="#F5F6F9" stroke="#BCC1CC" stroke-width="4.92" stroke-miterlimit="22.9256" d="M76.85 338.52c-1.91,0 -3.54,-1.01 -4.39,-2.72 -0.85,-1.71 -0.68,-3.62 0.47,-5.14 6.29,-8.36 13.13,-16.77 16.14,-24.93 0,-11.56 0,-23.13 0,-34.69 -0.47,-11.13 11.97,-26.13 33.03,-26.13 21.06,0 33.5,15 33.03,26.13 0,11.56 0,23.13 0,34.69 3.01,8.16 9.85,16.56 16.14,24.93 1.15,1.53 1.32,3.44 0.47,5.14 -0.85,1.71 -2.48,2.72 -4.39,2.72 -30.16,0 -60.33,0 -90.49,0z"/>
   <path fill="#F5F6F9" stroke="#BCC1CC" stroke-width="4.92" stroke-miterlimit="22.9256" d="M122.1 230.15c5.59,0 10.12,4.53 10.12,10.12 0,2.03 -0.6,3.92 -1.63,5.5 -2.65,-0.56 -5.48,-0.86 -8.5,-0.86 -3.01,0 -5.84,0.31 -8.5,0.86 -1.03,-1.58 -1.63,-3.47 -1.63,-5.5 0,-5.59 4.53,-10.12 10.12,-10.12z"/>
   <path fill="#F5F6F9" stroke="#BCC1CC" stroke-width="4.92" stroke-miterlimit="22.9256" d="M140.04 338.52c-1.74,9.38 -9.11,16.42 -17.94,16.42 -8.83,0 -16.21,-7.05 -17.94,-16.42l35.89 0z"/>
  </g>
  <rect fill="#F5F6F9" stroke="#BCC1CC" stroke-width="4.92" stroke-miterlimit="22.9256" x="323.58" y="246.69" width="124.08" height="86.09" rx="5.9" ry="5.9"/>
  <path fill="none" stroke="#BCC1CC" stroke-width="5.51" stroke-miterlimit="22.9256" d="M445.21 248.92l-53.25 53.29c-3.83,3.83 -10.08,3.83 -13.91,0l-53.88 -53.93"/>
  <line fill="none" stroke="#BCC1CC" stroke-width="5.51" stroke-miterlimit="22.9256" x1="323.63" y1="330.6" x2="365.06" y2= "289.21" />
  <line fill="none" stroke="#BCC1CC" stroke-width="5.51" stroke-miterlimit="22.9256" x1="444.6" y1="331.22" x2="403.17" y2= "289.83" />
  <path fill="#BCC1CC" fill-rule="nonzero" d="M668.13 269.79c4.45,0 7.69,0.88 9.74,2.66 2.05,1.78 3.08,4.29 3.08,7.57 0,1.47 -0.24,2.88 -0.71,4.21 -0.48,1.32 -1.24,2.49 -2.3,3.51 -1.06,1.02 -2.45,1.82 -4.18,2.41 -1.73,0.59 -3.85,0.88 -6.37,0.88l-3.93 0 0 13.23 -4.83 0 0 -34.47 9.51 0zm-0.38 4.05l-4.29 0 0 13.11 3.42 0c2,0 3.67,-0.23 5.02,-0.67 1.35,-0.45 2.37,-1.17 3.06,-2.16 0.69,-0.99 1.04,-2.29 1.04,-3.91 0,-2.14 -0.67,-3.73 -2.01,-4.79 -1.33,-1.05 -3.41,-1.58 -6.24,-1.58zm29.76 -4.05c2.9,0 5.31,0.35 7.2,1.07 1.89,0.71 3.31,1.8 4.23,3.26 0.93,1.46 1.39,3.3 1.39,5.53 0,1.76 -0.33,3.24 -0.96,4.46 -0.66,1.21 -1.5,2.2 -2.54,2.97 -1.05,0.77 -2.16,1.38 -3.37,1.82l9.64 15.37 -5.54 0 -8.39 -14.1 -6.34 0 0 14.1 -4.83 0 0 -34.47 9.51 0zm-0.31 4.1l-4.36 0 0 12.24 4.7 0c2.72,0 4.71,-0.53 5.96,-1.6 1.26,-1.06 1.89,-2.63 1.89,-4.71 0,-2.15 -0.67,-3.68 -2.01,-4.58 -1.33,-0.91 -3.38,-1.35 -6.17,-1.35zm51.37 13.12c0,2.66 -0.34,5.08 -1.01,7.27 -0.68,2.18 -1.68,4.05 -3.01,5.62 -1.33,1.57 -2.98,2.77 -4.97,3.63 -1.98,0.85 -4.31,1.28 -6.96,1.28 -2.7,0 -5.07,-0.43 -7.07,-1.28 -2,-0.85 -3.66,-2.07 -4.98,-3.63 -1.32,-1.58 -2.31,-3.46 -2.96,-5.65 -0.66,-2.19 -0.99,-4.61 -0.99,-7.27 0,-3.54 0.59,-6.65 1.75,-9.3 1.17,-2.66 2.94,-4.73 5.32,-6.2 2.38,-1.47 5.37,-2.21 8.99,-2.21 3.49,0 6.41,0.73 8.77,2.2 2.36,1.46 4.14,3.52 5.33,6.17 1.2,2.66 1.79,5.79 1.79,9.38zm-26.88 0c0,2.81 0.39,5.23 1.17,7.27 0.78,2.04 1.97,3.62 3.59,4.72 1.61,1.11 3.66,1.67 6.17,1.67 2.52,0 4.59,-0.56 6.19,-1.67 1.6,-1.11 2.79,-2.68 3.55,-4.72 0.74,-2.04 1.13,-4.46 1.13,-7.27 0,-4.25 -0.86,-7.57 -2.59,-9.98 -1.73,-2.4 -4.46,-3.6 -8.21,-3.6 -2.51,0 -4.58,0.55 -6.2,1.64 -1.62,1.09 -2.83,2.65 -3.6,4.67 -0.79,2.02 -1.18,4.45 -1.18,7.26zm-18.1 -68.6c18.61,0 35.47,7.54 47.66,19.74 12.19,12.19 19.74,29.05 19.74,47.66 0,18.61 -7.54,35.46 -19.74,47.65 -12.19,12.19 -29.05,19.74 -47.66,19.74 -18.61,0 -35.46,-7.55 -47.65,-19.74 -12.19,-12.19 -19.74,-29.05 -19.74,-47.65 0,-18.61 7.55,-35.47 19.74,-47.66 12.19,-12.19 29.05,-19.74 47.65,-19.74zm44.19 23.21c-11.31,-11.31 -26.93,-18.3 -44.19,-18.3 -17.25,0 -32.88,6.99 -44.18,18.3 -11.31,11.31 -18.3,26.93 -18.3,44.19 0,17.25 7,32.88 18.3,44.18 11.31,11.31 26.93,18.3 44.18,18.3 17.25,0 32.88,-7 44.19,-18.3 11.31,-11.31 18.3,-26.93 18.3,-44.18 0,-17.25 -6.99,-32.88 -18.3,-44.19z"/>
  <path fill="#FFCC00" fill-rule="nonzero" d="M820.21 269.79c4.45,0 7.69,0.88 9.74,2.66 2.05,1.78 3.08,4.29 3.08,7.57 0,1.47 -0.24,2.88 -0.71,4.21 -0.48,1.32 -1.24,2.49 -2.3,3.51 -1.06,1.02 -2.45,1.82 -4.18,2.41 -1.73,0.59 -3.85,0.88 -6.37,0.88l-3.93 0 0 13.23 -4.83 0 0 -34.47 9.51 0zm-0.38 4.05l-4.29 0 0 13.11 3.42 0c2,0 3.67,-0.23 5.02,-0.67 1.35,-0.45 2.37,-1.17 3.06,-2.16 0.69,-0.99 1.04,-2.29 1.04,-3.91 0,-2.14 -0.67,-3.73 -2.01,-4.79 -1.33,-1.05 -3.41,-1.58 -6.24,-1.58zm29.76 -4.05c2.9,0 5.31,0.35 7.2,1.07 1.89,0.71 3.31,1.8 4.23,3.26 0.93,1.46 1.39,3.3 1.39,5.53 0,1.76 -0.33,3.24 -0.96,4.46 -0.66,1.21 -1.5,2.2 -2.54,2.97 -1.05,0.77 -2.16,1.38 -3.37,1.82l9.64 15.37 -5.54 0 -8.39 -14.1 -6.34 0 0 14.1 -4.83 0 0 -34.47 9.51 0zm-0.31 4.1l-4.36 0 0 12.24 4.7 0c2.72,0 4.71,-0.53 5.96,-1.6 1.26,-1.06 1.89,-2.63 1.89,-4.71 0,-2.15 -0.67,-3.68 -2.01,-4.58 -1.33,-0.91 -3.38,-1.35 -6.17,-1.35zm51.37 13.12c0,2.66 -0.34,5.08 -1.01,7.27 -0.68,2.18 -1.68,4.05 -3.01,5.62 -1.33,1.57 -2.98,2.77 -4.97,3.63 -1.98,0.85 -4.31,1.28 -6.96,1.28 -2.7,0 -5.07,-0.43 -7.07,-1.28 -2,-0.85 -3.66,-2.07 -4.98,-3.63 -1.32,-1.58 -2.31,-3.46 -2.96,-5.65 -0.66,-2.19 -0.99,-4.61 -0.99,-7.27 0,-3.54 0.59,-6.65 1.75,-9.3 1.17,-2.66 2.94,-4.73 5.32,-6.2 2.38,-1.47 5.37,-2.21 8.99,-2.21 3.49,0 6.41,0.73 8.77,2.2 2.36,1.46 4.14,3.52 5.33,6.17 1.2,2.66 1.79,5.79 1.79,9.38zm-26.88 0c0,2.81 0.39,5.23 1.17,7.27 0.78,2.04 1.97,3.62 3.59,4.72 1.61,1.11 3.66,1.67 6.17,1.67 2.52,0 4.59,-0.56 6.19,-1.67 1.6,-1.11 2.79,-2.68 3.55,-4.72 0.74,-2.04 1.13,-4.46 1.13,-7.27 0,-4.25 -0.86,-7.57 -2.59,-9.98 -1.73,-2.4 -4.46,-3.6 -8.21,-3.6 -2.51,0 -4.58,0.55 -6.2,1.64 -1.62,1.09 -2.83,2.65 -3.6,4.67 -0.79,2.02 -1.18,4.45 -1.18,7.26zm-18.1 -68.6c18.61,0 35.47,7.54 47.66,19.74 12.19,12.19 19.74,29.05 19.74,47.66 0,18.61 -7.54,35.46 -19.74,47.65 -12.19,12.19 -29.05,19.74 -47.66,19.74 -18.61,0 -35.46,-7.55 -47.65,-19.74 -12.19,-12.19 -19.74,-29.05 -19.74,-47.65 0,-18.61 7.55,-35.47 19.74,-47.66 12.19,-12.19 29.05,-19.74 47.65,-19.74zm44.19 23.21c-11.31,-11.31 -26.93,-18.3 -44.19,-18.3 -17.25,0 -32.88,6.99 -44.18,18.3 -11.31,11.31 -18.3,26.93 -18.3,44.19 0,17.25 7,32.88 18.3,44.18 11.31,11.31 26.93,18.3 44.18,18.3 17.25,0 32.88,-7 44.19,-18.3 11.31,-11.31 18.3,-26.93 18.3,-44.18 0,-17.25 -6.99,-32.88 -18.3,-44.19z"/>
  <path fill="red" fill-rule="nonzero" d="M1010.2 218.41c18.61,0 35.47,7.54 47.66,19.74 12.19,12.19 19.74,29.05 19.74,47.66 0,18.61 -7.54,35.46 -19.74,47.65 -12.19,12.19 -29.05,19.74 -47.66,19.74 -18.61,0 -35.46,-7.55 -47.65,-19.74 -12.19,-12.19 -19.74,-29.05 -19.74,-47.65 0,-18.61 7.55,-35.47 19.74,-47.66 12.19,-12.19 29.05,-19.74 47.65,-19.74zm44.19 23.21c-11.31,-11.31 -26.93,-18.3 -44.19,-18.3 -17.25,0 -32.88,6.99 -44.18,18.3 -11.31,11.31 -18.3,26.93 -18.3,44.19 0,17.25 7,32.88 18.3,44.18 11.31,11.31 26.93,18.3 44.18,18.3 17.25,0 32.88,-7 44.19,-18.3 11.31,-11.31 18.3,-26.93 18.3,-44.18 0,-17.25 -6.99,-32.88 -18.3,-44.19z"/>
  <path fill="#BCC1CC" fill-rule="nonzero" d="M1163.25 218.41c18.61,0 35.47,7.54 47.66,19.74 12.19,12.19 19.74,29.05 19.74,47.66 0,18.61 -7.54,35.46 -19.74,47.65 -12.19,12.19 -29.05,19.74 -47.66,19.74 -18.61,0 -35.46,-7.55 -47.65,-19.74 -12.19,-12.19 -19.74,-29.05 -19.74,-47.65 0,-18.61 7.55,-35.47 19.74,-47.66 12.19,-12.19 29.05,-19.74 47.65,-19.74zm44.19 23.21c-11.31,-11.31 -26.93,-18.3 -44.19,-18.3 -17.25,0 -32.88,6.99 -44.18,18.3 -11.31,11.31 -18.3,26.93 -18.3,44.19 0,17.25 7,32.88 18.3,44.18 11.31,11.31 26.93,18.3 44.18,18.3 17.25,0 32.88,-7 44.19,-18.3 11.31,-11.31 18.3,-26.93 18.3,-44.18 0,-17.25 -6.99,-32.88 -18.3,-44.19z"/>
  <g id="_2289721421696">
   <path fill="url(#id0)" fill-rule="nonzero" d="M1318.26 218.41c18.61,0 35.47,7.54 47.66,19.74 12.19,12.19 19.74,29.05 19.74,47.66 0,18.61 -7.54,35.46 -19.74,47.65 -12.19,12.19 -29.05,19.74 -47.66,19.74 -18.61,0 -35.46,-7.55 -47.65,-19.74 -12.19,-12.19 -19.74,-29.05 -19.74,-47.65 0,-18.61 7.55,-35.47 19.74,-47.66 12.19,-12.19 29.05,-19.74 47.65,-19.74z"/>
   <path fill="white" fill-rule="nonzero" d="M1318.11 253.2l2.32 -4.01c1.43,-2.5 4.62,-3.35 7.12,-1.92 2.51,1.43 3.35,4.62 1.92,7.13l-22.33 38.66 16.15 0c5.23,0 8.17,6.15 5.89,10.41l-47.36 0c-2.88,0 -5.21,-2.32 -5.21,-5.21 0,-2.89 2.32,-5.21 5.21,-5.21l13.28 0 17 -29.46 -5.31 -9.22c-1.43,-2.5 -0.59,-5.66 1.92,-7.13 2.5,-1.43 5.66,-0.59 7.12,1.92l2.28 4.02 0 0zm-20.09 55.64l-5.01 8.68c-1.43,2.51 -4.62,3.35 -7.12,1.92 -2.51,-1.43 -3.35,-4.63 -1.92,-7.13l3.72 -6.44c4.21,-1.31 7.63,-0.3 10.33,2.96l0 0zm43.12 -15.75l13.55 0c2.89,0 5.21,2.32 5.21,5.21 0,2.89 -2.32,5.21 -5.21,5.21l-7.53 0 5.08 8.82c1.43,2.5 0.59,5.66 -1.92,7.13 -2.5,1.43 -5.66,0.59 -7.13,-1.92 -8.55,-14.83 -14.98,-25.94 -19.24,-33.34 -4.36,-7.52 -1.25,-15.08 1.83,-17.64 3.42,5.86 8.53,14.72 15.35,26.54l0 0z"/>
  </g>
  <g id="_2289721423008">
   <path fill="#FF0321" fill-rule="nonzero" d="M1133.54 317.95c1.09,3.77 4.54,6.36 8.47,6.36 1.53,0 3.04,-0.4 4.37,-1.16l36.37 -20.71 -1.85 -2 -14.81 -14.61 -32.55 32.13zm33.27 -32.83l-0.01 -0.01 -0.71 0.7 0.01 0.01 0.71 -0.7z"/>
   <path fill="#FDCD00" fill-rule="nonzero" d="M1198.54 278.34l-15.72 -9.01 -0.05 0.04 -16.67 16.45 -0.98 -0.97 -0.01 0.01 17.77 17.54 15.61 -8.91c2.83,-1.47 4.6,-4.39 4.6,-7.57 0,-1.38 -0.34,-2.75 -0.98,-3.97 -0.82,-1.54 -2.08,-2.8 -3.62,-3.61l0.05 0z"/>
   <path fill="#00D3FF" fill-rule="nonzero" d="M1133.54 253.7c-0.19,0.71 -0.29,1.46 -0.29,2.21 0,0 0,0.01 0,0.01l0 59.82c0,0 0,0 0,0 0,0.75 0.1,1.49 0.29,2.22l32.55 -32.13 -32.07 -31.66 -0.48 -0.45z"/>
   <path fill="#00FA49" fill-rule="nonzero" d="M1166.1 285.82l16.71 -16.5 -36.32 -20.81c-1.36,-0.8 -2.92,-1.22 -4.5,-1.22 -0.01,0 -0.01,0 -0.02,0 -3.92,0 -7.36,2.61 -8.43,6.38l32.56 32.15z"/>
  </g>
  <circle fill="none" stroke="#0654A3" stroke-width="4.91" stroke-miterlimit="22.9256" cx="1474.55" cy="285.73" r="65.02"/>
  <polygon fill="#0654A3" fill-rule="nonzero" points="1489.4,262.08 1463.43,262.08 1463.43,281.14 1489.4,281.14 1489.4,289.06 1463.43,289.06 1463.43,308.89 1489.4,308.89 1489.4,316.81 1455.5,316.81 1455.5,254.16 1489.4,254.16 "/>
  <polygon fill="none" stroke="#707070" stroke-width="6.88" stroke-linecap="round" stroke-linejoin="round" stroke-miterlimit="22.9256" points="204.55,101.44 256.89,74.95 309.23,101.44 256.89,127.94 "/>
  <g id="_2289721425920">
   <path fill="#F5F6F9" stroke="#AAADB6" stroke-width="4.93" stroke-miterlimit="22.9256" d="M200.27 338.52c-1.91,0 -3.54,-1.01 -4.39,-2.72 -0.85,-1.71 -0.68,-3.62 0.47,-5.14 6.29,-8.36 13.13,-16.77 16.14,-24.93 0,-11.56 0,-23.13 0,-34.69 -0.47,-11.13 11.97,-26.13 33.03,-26.13 21.06,0 33.5,15 33.03,26.13 0,11.56 0,23.13 0,34.69 3.01,8.16 9.85,16.56 16.14,24.93 1.15,1.53 1.32,3.44 0.47,5.14 -0.85,1.71 -2.48,2.72 -4.39,2.72 -30.16,0 -60.33,0 -90.49,0z"/>
   <path fill="#F5F6F9" stroke="#AAADB6" stroke-width="4.93" stroke-miterlimit="22.9256" d="M245.52 230.15c5.59,0 10.12,4.53 10.12,10.12 0,2.03 -0.6,3.92 -1.63,5.5 -2.65,-0.56 -5.48,-0.86 -8.5,-0.86 -3.01,0 -5.84,0.31 -8.5,0.86 -1.03,-1.58 -1.63,-3.47 -1.63,-5.5 0,-5.59 4.53,-10.12 10.12,-10.12z"/>
   <path fill="#F5F6F9" stroke="#AAADB6" stroke-width="4.93" stroke-miterlimit="22.9256" d="M263.46 338.52c-1.74,9.38 -9.11,16.42 -17.94,16.42 -8.83,0 -16.21,-7.05 -17.94,-16.42l35.89 0z"/>
  </g>
  <rect fill="#F5F6F9" stroke="#AAADB6" stroke-width="4.93" stroke-miterlimit="22.9256" x="479.5" y="246.69" width="124.08" height="86.09" rx="5.9" ry="5.9"/>
  <path fill="none" stroke="#AAADB6" stroke-width="5.51" stroke-miterlimit="22.9256" d="M601.94 248.92l-53.32 53.29c-3.84,3.83 -10.09,3.83 -13.92,0l-53.96 -53.93"/>
  <line fill="none" stroke="#AAADB6" stroke-width="5.51" stroke-miterlimit="22.9256" x1="480.19" y1="330.6" x2="521.68" y2= "289.21" />
  <line fill="none" stroke="#AAADB6" stroke-width="5.51" stroke-miterlimit="22.9256" x1="601.33" y1="331.22" x2="559.84" y2= "289.83" />
  <path fill="red" fill-rule="nonzero" d="M1008.26 313.73l-19.35 -50.54 -0.31 0c0.36,4 0.55,8.77 0.55,14.28l0 36.26 -6.12 0 0 -57.01 9.98 0 18.06 47.03 0.31 0 18.22 -47.03 9.9 0 0 57.01 -6.63 0 0 -36.73c0,-4.22 0.19,-8.79 0.55,-13.73l-0.31 0 -19.51 50.46 -5.34 0z"/>
  <circle fill="white" stroke="#35AE2C" stroke-width="6.67" stroke-linecap="round" stroke-linejoin="round" stroke-miterlimit="22.9256" cx="1358.22" cy="128.05" r="35.02"/>
  <polyline fill="none" stroke="black" stroke-width="4.92" stroke-linecap="round" stroke-linejoin="round" stroke-miterlimit="22.9256" points="1358.22,109.13 1358.22,128.05 1375.73,139.63 "/>
  <path fill="silver" d="M1467.07 122.4c29.19,-3.13 45.75,21.17 22.31,50.36 40.92,-27.72 31.1,-80.7 -22.31,-77.4l0 -14.4 -30.87 27.9 30.87 28.1 0 -14.55z"/>
  <rect fill="#35AE2C" x="1196.76" y="90.54" width="19.69" height="48.67"/>
  <rect fill="#35AE2C" x="1222.13" y="90.54" width="19.69" height="48.67"/>
  <rect fill="#35AE2C" x="1171.32" y="90.54" width="19.69" height="48.67"/>
  <rect fill="#35AE2C" x="1249.16" y="90.54" width="66.19" height="15.34"/>
  <rect fill="#35AE2C" x="1249.16" y="110.16" width="66.19" height="15.34"/>
  <rect fill="#35AE2C" x="1249.16" y="130.2" width="66.19" height="15.34"/>
  <rect fill="#B6B6B6" x="1703.21" y="107.76" width="68.52" height="38.58" rx="16.99" ry="16.99"/>
  <polygon fill="#B6B6B6" points="1754.22,146.13 1754.18,163.22 1737.47,146.13 "/>
  <rect fill="white" x="1722.42" y="116.32" width="38.34" height="4.22"/>
  <rect fill="white" x="1713.94" y="124.86" width="46.82" height="4.22"/>
  <rect fill="white" x="1735.31" y="133.39" width="25.44" height="4.22"/>
  <rect fill="#B6B6B6" x="1801.5" y="138.62" width="8.05" height="23.41" rx="1.11" ry="1.11"/>
  <path fill="#B6B6B6" d="M1815.22 138.8l0.28 21.5c0,0 0.09,1.74 3.84,1.83 3.75,0.09 24.15,-0.03 24.15,-0.03 0,0 3.67,-0.24 5.95,-5.18 2.29,-4.94 3.53,-19.87 1.15,-22.7 -2.38,-2.83 -14.38,-0.53 -15.24,-1.63 -0.87,-1.1 -0.49,-5.64 0.09,-6.99 0.59,-1.36 1.33,-3.33 2.05,-7.82 0.73,-4.49 -3.59,-12.33 -5.62,-6.13 -2.03,6.2 -2.8,9.59 -4.39,12.26 -1.6,2.66 -5.18,9.93 -5.95,10.97 -0.77,1.04 -3.75,3.02 -4.57,3.2 -0.82,0.19 -1.74,0.73 -1.74,0.73z"/>
  <path fill="#B6B6B6" d="M1920.04 114.37c19.34,0 33.87,19.8 33.87,22.51 0,2.72 -12.94,22.51 -33.87,22.51 -20.92,0 -33.86,-19.54 -33.86,-22.51 0,-2.97 14.53,-22.51 33.86,-22.51z"/>
  <ellipse fill="white" cx="1920.02" cy="136.87" rx="15.88" ry="15.87"/>
  <circle fill="#B6B6B6" cx="1920.02" cy="136.87" r="6.77"/>
  <rect fill="#ECEFF1" x="2237.66" y="83.51" width="107.01" height="103.53" rx="182.41" ry="182.93"/>
  <path fill="#0B0D14" d="M2309.54 143.93l-11.15 0 0 43.05 -3.97 0.28 -4.28 0.02 -4.21 -0.12 -4.1 -0.44 0 -42.8 -9.94 0 0 -13.25 9.94 0 0 -7.98c0.01,-11.62 4.83,-18.51 18.52,-18.51l11.29 0 0 13.24 -7.57 0c-5.33,0 -5.68,1.99 -5.68,5.71l0 7.54 13.25 0 -2.1 13.25z"/>
  <rect fill="#ECEFF1" x="1998.58" y="99.32" width="103.61" height="72.31" rx="10.27" ry="10.27"/>
  <rect fill="#ECEFF1" x="2116.37" y="83.51" width="107.01" height="103.53" rx="182.41" ry="182.93"/>
  <path fill="#0B0D14" d="M2153.37 141.88l-12.8 -4.17c0,0 -1.53,-0.62 -1.04,-2.03 0.1,-0.29 0.31,-0.53 0.92,-0.96 2.84,-1.98 52.49,-19.83 52.49,-19.83 0,0 1.4,-0.47 2.23,-0.16 0.42,0.13 0.73,0.47 0.82,0.9 0.08,0.31 0.12,0.63 0.12,0.96 0,0.06 -0.01,0.12 -0.01,0.17 -0.01,0.33 -0.05,0.63 -0.08,1.11 -0.3,4.88 -9.35,41.29 -9.35,41.29 0,0 -0.54,2.13 -2.48,2.2 -0.03,0 -0.08,0.01 -0.11,0.01 -0.93,0 -1.82,-0.36 -2.48,-1 -3.81,-3.27 -16.96,-12.12 -19.87,-14.06 -0.13,-0.09 -0.21,-0.23 -0.24,-0.39 -0.04,-0.2 0.19,-0.46 0.19,-0.46 0,0 22.91,-20.36 23.52,-22.5 0.05,-0.17 -0.13,-0.25 -0.37,-0.17 -1.52,0.56 -27.9,17.21 -30.81,19.05 -0.13,0.04 -0.27,0.06 -0.41,0.06 -0.08,0 -0.16,-0.01 -0.24,-0.02l0 0z"/>
  <polygon fill="#0B0D14" points="2066.33,135.49 2053.43,143.3 2040.53,151.11 2040.53,135.49 2040.53,119.86 2053.43,127.67 "/>
  <g id="_2289721437312">
   <path fill="white" d="M2573.06 354.18c0,-1.2 -0.11,-2.36 -0.31,-3.47l-16 0 0 6.58 9.14 0c-0.4,2.12 -1.61,3.91 -3.41,5.11l0 4.28 5.51 -0.01c3.22,-2.97 5.07,-7.32 5.07,-12.5z"/>
   <path fill="white" d="M2556.75 370.79c4.58,0 8.43,-1.51 11.24,-4.11l-5.51 -4.28c-1.51,1.02 -3.45,1.64 -5.73,1.64 -4.42,0 -8.17,-2.98 -9.52,-6.99l-5.65 0 0 4.39c2.8,5.54 8.53,9.36 15.17,9.36z"/>
   <path fill="white" d="M2547.23 357.03c-0.34,-1.02 -0.54,-2.1 -0.54,-3.23 0,-1.13 0.2,-2.21 0.54,-3.23l0 -4.39 -5.65 0c-1.16,2.29 -1.82,4.86 -1.82,7.61 0,2.75 0.66,5.33 1.82,7.61l4.4 -3.43 1.25 -0.96z"/>
   <path fill="white" d="M2556.75 343.57c2.5,0 4.72,0.86 6.5,2.53l4.86 -4.86c-2.95,-2.75 -6.78,-4.43 -11.36,-4.43 -6.65,0 -12.37,3.82 -15.17,9.38l5.65 4.39c1.35,-4.02 5.1,-7 9.52,-7l0 0z"/>
  </g>
  <path fill="white" d="M2567.54 104.74l6.51 0 -14.28 16.26 16.69 22.05 -13.09 0 -10.25 -13.4 -11.73 13.4 -6.51 0 15.13 -17.39 -15.98 -20.93 13.42 0 9.26 12.25 10.85 -12.25zm-2.28 34.5l3.6 0 -23.33 -30.82 -3.87 0 23.6 30.82z"/>
  <path fill="white" d="M2568.32 242.12l-7.45 0 0 28.77 -11.07 0 0 -28.77 -6.64 0 0 -8.85 6.64 0 0 -5.33c0.01,-7.77 3.23,-12.37 12.37,-12.37l7.54 0 0 8.85 -5.06 0c-3.56,0 -3.79,1.33 -3.79,3.81l0 5.04 8.85 0 -1.4 8.85z"/>
  <path fill="#6B6B6B" fill-rule="nonzero" d="M1658.52 174.63l0.03 -9.81c0.01,-2.93 0.02,-5.88 0.02,-10.39 -2.86,-6.95 -7.63,-12.94 -13.65,-17.31 -5.97,-4.33 -13.18,-7.06 -20.96,-7.53 -1.1,-0.06 -1.94,-1.01 -1.87,-2.11 0.05,-0.89 0.68,-1.62 1.51,-1.82 5.01,-1.27 9.37,-4.2 12.45,-8.17 3.02,-3.88 4.82,-8.76 4.82,-14.06 0,-6.34 -2.57,-12.07 -6.71,-16.22 -4.15,-4.15 -9.88,-6.72 -16.22,-6.72 -6.33,0 -12.07,2.57 -16.22,6.72 -4.15,4.15 -6.71,9.88 -6.71,16.22 0,5.32 1.81,10.22 4.85,14.1 3.1,3.98 7.49,6.9 12.54,8.15 1.07,0.26 1.72,1.35 1.46,2.41 -0.21,0.86 -0.96,1.46 -1.8,1.51 -7.63,0.55 -14.7,3.27 -20.57,7.54 -5.91,4.3 -10.61,10.16 -13.48,16.96l0.01 10.72 0.02 9.8c27.94,0.02 48.4,0.02 70.6,0.01l9.89 -0.01zm4.02 -9.81c-0.01,3.24 -0.02,6.7 -0.02,11.81l-0.01 0c0,1.1 -0.89,1.99 -1.99,1.99l-11.89 0.01c-22.68,0.01 -43.53,0.02 -72.42,-0.01l-0.17 0.01c-1.1,0 -2,-0.89 -2,-2 0,-6.73 -0.01,-9.11 -0.01,-11.8l-0.02 -11.1c0.48,-5.7 10.5,-16.45 15.13,-19.82 4.56,-3.31 9.76,-5.77 15.38,-7.14 -3.02,-1.74 -5.67,-4.05 -7.81,-6.78 -3.58,-4.57 -5.7,-10.32 -5.7,-16.56 0,-7.44 3.02,-14.17 7.89,-19.05 4.88,-4.88 11.61,-7.89 19.05,-7.89 7.43,0 14.17,3.01 19.04,7.89 4.88,4.88 7.89,11.61 7.89,19.05 0,6.22 -2.11,11.95 -5.66,16.51 -2.1,2.7 -4.71,5 -7.68,6.73 5.76,1.35 11.08,3.84 15.73,7.21 4.36,3.16 15.31,14.81 15.31,20.17l-0.03 10.77z"/>
  <path fill="white" d="M2543.57 447.63l-9.34 -3.05c0,0 -1.11,-0.45 -0.75,-1.48 0.07,-0.21 0.22,-0.39 0.67,-0.7 2.07,-1.44 38.3,-14.46 38.3,-14.46 0,0 1.03,-0.35 1.63,-0.12 0.3,0.09 0.53,0.34 0.6,0.66 0.06,0.23 0.09,0.46 0.09,0.7 0,0.04 -0.01,0.08 -0.01,0.12 0,0.24 -0.03,0.46 -0.05,0.81 -0.22,3.56 -6.83,30.13 -6.83,30.13 0,0 -0.39,1.56 -1.81,1.61 -0.03,0.01 -0.06,0.01 -0.09,0.01 -0.67,0 -1.32,-0.27 -1.8,-0.73 -2.77,-2.39 -12.38,-8.84 -14.5,-10.27 -0.09,-0.06 -0.16,-0.17 -0.17,-0.28 -0.03,-0.15 0.13,-0.34 0.13,-0.34 0,0 16.72,-14.86 17.17,-16.42 0.03,-0.12 -0.09,-0.18 -0.27,-0.13 -1.11,0.41 -20.36,12.57 -22.48,13.91 -0.1,0.03 -0.2,0.04 -0.3,0.04 -0.06,0 -0.12,-0.01 -0.18,-0.01l0 0z"/>
  <rect fill="#ECEFF1" x="2359.69" y="83.51" width="107.01" height="103.53" rx="182.41" ry="182.93"/>
  <rect fill="#ECEFF1" x="2360.24" y="235.2" width="107.01" height="103.53" rx="182.41" ry="182.93"/>
  <g id="_2289721440256">
   <path fill="#0B0D14" d="M2414.53 104.79c3.3,-0.05 6.59,-0.03 9.87,-0.05 0.2,3.86 1.59,7.8 4.42,10.53 2.83,2.8 6.81,4.09 10.7,4.52l0 10.17c-3.63,-0.12 -7.3,-0.88 -10.6,-2.44 -1.44,-0.66 -2.77,-1.49 -4.09,-2.35 -0.02,7.37 0.03,14.74 -0.05,22.09 -0.2,3.53 -1.36,7.05 -3.41,9.95 -3.3,4.85 -9.04,8 -14.92,8.1 -3.61,0.2 -7.23,-0.78 -10.3,-2.6 -5.1,-3 -8.69,-8.51 -9.22,-14.41 -0.05,-1.27 -0.08,-2.52 -0.02,-3.77 0.45,-4.79 2.83,-9.39 6.51,-12.52 4.19,-3.64 10.05,-5.38 15.52,-4.34 0.05,3.73 -0.1,7.47 -0.1,11.21 -2.5,-0.81 -5.43,-0.58 -7.63,0.93 -1.59,1.03 -2.8,2.62 -3.43,4.42 -0.53,1.29 -0.38,2.7 -0.35,4.07 0.6,4.14 4.59,7.62 8.83,7.24 2.83,-0.02 5.53,-1.67 6.99,-4.06 0.48,-0.84 1.01,-1.69 1.03,-2.68 0.26,-4.52 0.16,-9.01 0.18,-13.53 0.02,-10.17 -0.02,-20.32 0.05,-30.47l0 0z"/>
  </g>
  <path fill="#0B0D14" d="M2413.75 255.24c-8.61,0 -9.7,0.03 -13.08,0.19 -3.37,0.15 -5.68,0.68 -7.7,1.47 -2.09,0.81 -3.86,1.89 -5.62,3.66 -1.76,1.76 -2.85,3.53 -3.66,5.62 -0.79,2.02 -1.32,4.32 -1.47,7.7 -0.15,3.38 -0.19,4.46 -0.19,13.08 0,8.62 0.04,9.69 0.19,13.08 0.16,3.38 0.69,5.68 1.47,7.7 0.81,2.08 1.89,3.85 3.66,5.62 1.76,1.76 3.53,2.85 5.62,3.66 2.02,0.78 4.32,1.32 7.7,1.47 3.38,0.16 4.46,0.19 13.08,0.19 8.62,0 9.7,-0.03 13.08,-0.19 3.38,-0.16 5.68,-0.69 7.7,-1.47 2.08,-0.81 3.85,-1.9 5.61,-3.66 1.76,-1.76 2.85,-3.53 3.66,-5.62 0.78,-2.02 1.32,-4.32 1.47,-7.7 0.15,-3.38 0.19,-4.46 0.19,-13.08 0,-8.61 -0.04,-9.69 -0.19,-13.08 -0.16,-3.38 -0.69,-5.68 -1.47,-7.7 -0.81,-2.08 -1.9,-3.85 -3.66,-5.62 -1.76,-1.76 -3.53,-2.85 -5.61,-3.66 -2.03,-0.79 -4.33,-1.32 -7.71,-1.47 -3.38,-0.16 -4.46,-0.19 -13.08,-0.19l0.01 0zm-2.84 5.72c0.84,-0.01 1.79,0 2.84,0 8.47,0 9.47,0.03 12.82,0.18 3.09,0.14 4.77,0.66 5.89,1.09 1.48,0.57 2.53,1.27 3.64,2.37 1.11,1.11 1.79,2.17 2.37,3.65 0.43,1.11 0.95,2.79 1.09,5.88 0.15,3.34 0.19,4.35 0.19,12.81 0,8.47 -0.03,9.47 -0.19,12.81 -0.14,3.09 -0.66,4.77 -1.09,5.89 -0.57,1.48 -1.27,2.53 -2.37,3.64 -1.11,1.11 -2.16,1.8 -3.64,2.37 -1.12,0.44 -2.8,0.95 -5.89,1.1 -3.34,0.15 -4.35,0.18 -12.82,0.18 -8.47,0 -9.47,-0.03 -12.81,-0.18 -3.09,-0.15 -4.78,-0.66 -5.89,-1.1 -1.48,-0.57 -2.54,-1.26 -3.65,-2.37 -1.11,-1.11 -1.8,-2.16 -2.37,-3.64 -0.44,-1.11 -0.95,-2.8 -1.09,-5.88 -0.15,-3.35 -0.19,-4.35 -0.19,-12.82 0,-8.47 0.03,-9.47 0.19,-12.81 0.14,-3.09 0.66,-4.77 1.09,-5.89 0.57,-1.48 1.27,-2.54 2.37,-3.65 1.11,-1.11 2.17,-1.79 3.65,-2.37 1.11,-0.44 2.8,-0.95 5.89,-1.09 2.93,-0.13 4.06,-0.17 9.97,-0.18l0 0.01zm19.78 5.26c-2.1,0 -3.81,1.71 -3.81,3.81 0,2.1 1.71,3.81 3.81,3.81 2.1,0 3.81,-1.71 3.81,-3.81 0,-2.1 -1.71,-3.81 -3.81,-3.81l0 0zm-16.93 4.45c-9,0 -16.29,7.3 -16.29,16.29 0,9 7.3,16.29 16.29,16.29 9,0 16.29,-7.3 16.29,-16.29 0,-9 -7.3,-16.29 -16.29,-16.29l0 0zm0 5.72c5.84,0 10.57,4.74 10.57,10.57 0,5.84 -4.74,10.57 -10.57,10.57 -5.84,0 -10.57,-4.74 -10.57,-10.57 0,-5.84 4.74,-10.57 10.57,-10.57z"/>
  <rect fill="#828282" x="1993.89" y="234.95" width="107.01" height="103.53" rx="182.41" ry="182.93"/>
  <path fill="white" d="M2065.77 295.37l-11.15 0 0 43.05 -3.97 0.28 -4.28 0.02 -4.21 -0.12 -4.1 -0.44 0 -42.8 -9.94 0 0 -13.25 9.94 0 0 -7.98c0.01,-11.62 4.83,-18.51 18.52,-18.51l11.29 0 0 13.24 -7.57 0c-5.33,0 -5.68,1.99 -5.68,5.71l0 7.54 13.25 0 -2.1 13.25z"/>
  <rect fill="#828282" x="1754.81" y="250.76" width="103.61" height="72.31" rx="10.27" ry="10.27"/>
  <rect fill="#828282" x="1872.6" y="234.95" width="107.01" height="103.53" rx="182.41" ry="182.93"/>
  <path fill="white" d="M1909.6 293.32l-12.8 -4.17c0,0 -1.53,-0.62 -1.04,-2.03 0.1,-0.29 0.31,-0.53 0.92,-0.96 2.84,-1.98 52.49,-19.83 52.49,-19.83 0,0 1.4,-0.47 2.23,-0.16 0.42,0.13 0.73,0.47 0.82,0.9 0.08,0.31 0.12,0.63 0.12,0.96 0,0.06 -0.01,0.12 -0.01,0.17 -0.01,0.33 -0.05,0.63 -0.08,1.11 -0.3,4.88 -9.35,41.29 -9.35,41.29 0,0 -0.54,2.13 -2.48,2.2 -0.03,0 -0.08,0.01 -0.11,0.01 -0.93,0 -1.82,-0.36 -2.48,-1 -3.81,-3.27 -16.96,-12.12 -19.87,-14.06 -0.13,-0.09 -0.21,-0.23 -0.24,-0.39 -0.04,-0.2 0.19,-0.46 0.19,-0.46 0,0 22.91,-20.36 23.52,-22.5 0.05,-0.17 -0.13,-0.25 -0.37,-0.17 -1.52,0.56 -27.9,17.21 -30.81,19.05 -0.13,0.04 -0.27,0.06 -0.41,0.06 -0.08,0 -0.16,-0.01 -0.24,-0.02l0 0z"/>
  <polygon fill="white" points="1822.56,286.93 1809.66,294.74 1796.76,302.55 1796.76,286.93 1796.76,271.3 1809.66,279.11 "/>
  <rect fill="#828282" x="2115.93" y="234.95" width="107.01" height="103.53" rx="182.41" ry="182.93"/>
  <rect fill="#828282" x="2240.22" y="234.47" width="107.01" height="103.53" rx="182.41" ry="182.93"/>
  <g id="_2289721413024">
   <path fill="white" d="M2170.76 256.23c3.3,-0.05 6.59,-0.03 9.87,-0.05 0.2,3.86 1.59,7.8 4.42,10.53 2.83,2.8 6.81,4.09 10.7,4.52l0 10.17c-3.63,-0.12 -7.3,-0.88 -10.6,-2.44 -1.44,-0.66 -2.77,-1.49 -4.09,-2.35 -0.02,7.37 0.03,14.74 -0.05,22.09 -0.2,3.53 -1.36,7.05 -3.41,9.95 -3.3,4.85 -9.04,8 -14.92,8.1 -3.61,0.2 -7.23,-0.78 -10.3,-2.6 -5.1,-3 -8.69,-8.51 -9.22,-14.41 -0.05,-1.27 -0.08,-2.52 -0.02,-3.77 0.45,-4.79 2.83,-9.39 6.51,-12.52 4.19,-3.64 10.05,-5.38 15.52,-4.34 0.05,3.73 -0.1,7.47 -0.1,11.21 -2.5,-0.81 -5.43,-0.58 -7.63,0.93 -1.59,1.03 -2.8,2.62 -3.43,4.42 -0.53,1.29 -0.38,2.7 -0.35,4.07 0.6,4.14 4.59,7.62 8.83,7.24 2.83,-0.02 5.53,-1.67 6.99,-4.06 0.48,-0.84 1.01,-1.69 1.03,-2.68 0.26,-4.52 0.16,-9.01 0.18,-13.53 0.02,-10.17 -0.02,-20.32 0.05,-30.47l0 0z"/>
  </g>
  <path fill="white" d="M2293.73 254.51c-8.61,0 -9.7,0.03 -13.08,0.19 -3.37,0.15 -5.68,0.68 -7.7,1.47 -2.09,0.81 -3.86,1.89 -5.62,3.66 -1.76,1.76 -2.85,3.53 -3.66,5.62 -0.79,2.02 -1.32,4.32 -1.47,7.7 -0.15,3.38 -0.19,4.46 -0.19,13.08 0,8.62 0.04,9.69 0.19,13.08 0.16,3.38 0.69,5.68 1.47,7.7 0.81,2.08 1.89,3.85 3.66,5.62 1.76,1.76 3.53,2.85 5.62,3.66 2.02,0.78 4.32,1.32 7.7,1.47 3.38,0.16 4.46,0.19 13.08,0.19 8.62,0 9.7,-0.03 13.08,-0.19 3.38,-0.16 5.68,-0.69 7.7,-1.47 2.08,-0.81 3.85,-1.9 5.61,-3.66 1.76,-1.76 2.85,-3.53 3.66,-5.62 0.78,-2.02 1.32,-4.32 1.47,-7.7 0.15,-3.38 0.19,-4.46 0.19,-13.08 0,-8.61 -0.04,-9.69 -0.19,-13.08 -0.16,-3.38 -0.69,-5.68 -1.47,-7.7 -0.81,-2.08 -1.9,-3.85 -3.66,-5.62 -1.76,-1.76 -3.53,-2.85 -5.61,-3.66 -2.03,-0.79 -4.33,-1.32 -7.71,-1.47 -3.38,-0.16 -4.46,-0.19 -13.08,-0.19l0.01 0zm-2.84 5.72c0.84,-0.01 1.79,0 2.84,0 8.47,0 9.47,0.03 12.82,0.18 3.09,0.14 4.77,0.66 5.89,1.09 1.48,0.57 2.53,1.27 3.64,2.37 1.11,1.11 1.79,2.17 2.37,3.65 0.43,1.11 0.95,2.79 1.09,5.88 0.15,3.34 0.19,4.35 0.19,12.81 0,8.47 -0.03,9.47 -0.19,12.81 -0.14,3.09 -0.66,4.77 -1.09,5.89 -0.57,1.48 -1.27,2.53 -2.37,3.64 -1.11,1.11 -2.16,1.8 -3.64,2.37 -1.12,0.44 -2.8,0.95 -5.89,1.1 -3.34,0.15 -4.35,0.18 -12.82,0.18 -8.47,0 -9.47,-0.03 -12.81,-0.18 -3.09,-0.15 -4.78,-0.66 -5.89,-1.1 -1.48,-0.57 -2.54,-1.26 -3.65,-2.37 -1.11,-1.11 -1.8,-2.16 -2.37,-3.64 -0.44,-1.11 -0.95,-2.8 -1.09,-5.88 -0.15,-3.35 -0.19,-4.35 -0.19,-12.82 0,-8.47 0.03,-9.47 0.19,-12.81 0.14,-3.09 0.66,-4.77 1.09,-5.89 0.57,-1.48 1.27,-2.54 2.37,-3.65 1.11,-1.11 2.17,-1.79 3.65,-2.37 1.11,-0.44 2.8,-0.95 5.89,-1.09 2.93,-0.13 4.06,-0.17 9.97,-0.18l0 0.01zm19.78 5.26c-2.1,0 -3.81,1.71 -3.81,3.81 0,2.1 1.71,3.81 3.81,3.81 2.1,0 3.81,-1.71 3.81,-3.81 0,-2.1 -1.71,-3.81 -3.81,-3.81l0 0zm-16.93 4.45c-9,0 -16.29,7.3 -16.29,16.29 0,9 7.3,16.29 16.29,16.29 9,0 16.29,-7.3 16.29,-16.29 0,-9 -7.3,-16.29 -16.29,-16.29l0 0zm0 5.72c5.84,0 10.57,4.74 10.57,10.57 0,5.84 -4.74,10.57 -10.57,10.57 -5.84,0 -10.57,-4.74 -10.57,-10.57 0,-5.84 4.74,-10.57 10.57,-10.57z"/>
  <g id="_2289721412832">
   <g>
    <path fill="#666666" d="M92.54 410.08c0.09,3.45 0.09,3.62 -0.16,3.55 -2.03,-0.63 -4,-0.86 -5.6,-0.68 -2.58,0.29 -4.47,1.27 -6.23,3.16 -1.93,2.1 -3.42,5.67 -3.88,9.32 -0.38,2.97 0.58,6.54 2.52,9.49 2.4,3.64 6.12,6.96 11.26,10.08 2.97,1.8 6.08,3.35 9.93,4.93l2.03 0.84 0.75 1.21c0.91,1.47 1.74,2.58 3.45,4.71 2.4,2.96 3.26,4.24 4.44,6.6 2.05,4.1 2.97,8.57 2.59,12.71 -0.19,2.18 -0.54,3.58 -1.23,4.97 -0.48,0.99 -1.54,2.51 -2.11,3.03 -0.56,0.54 -1.72,1.44 -2.32,1.82 -2.59,1.62 -4.8,3.29 -5.96,4.52 -0.9,0.94 -1.83,2.39 -2.09,3.29 -0.16,0.5 -0.21,1.42 -0.21,3.15l0 2.44 -0.53 0.09c-1.5,0.21 -2.41,0.78 -3.19,1.91l-0.55 0.8 -0.04 8.11 -0.05 8.12 0.38 0.75c0.46,0.96 1.06,1.57 1.93,2l0.68 0.33 23.34 0 23.34 0 0.84 -0.42c0.65,-0.34 0.95,-0.61 1.4,-1.28 0.32,-0.48 0.61,-1.07 0.65,-1.32 0.05,-0.26 0.08,-4.02 0.05,-8.37 -0.05,-8.8 0.01,-8.22 -1.09,-9.36 -0.65,-0.68 -1.58,-1.14 -2.54,-1.28l-0.67 -0.1 -0.06 -2.73 -0.04 -2.71 -0.54 -1.09c-0.89,-1.83 -3.07,-3.9 -6.27,-5.99 -3.37,-2.21 -4.06,-2.83 -5.21,-4.63 -1.11,-1.8 -1.58,-3.36 -1.83,-6.13 -0.34,-4.05 0.57,-8.58 2.51,-12.47 1.3,-2.61 2.16,-3.88 4.52,-6.78 1.64,-2 2.35,-2.97 3.46,-4.71l0.78 -1.22 1.57 -0.64c3.33,-1.35 6.73,-3 9.7,-4.71 1.15,-0.67 2.59,-1.61 2.65,-1.75 0.03,-0.06 0.12,-0.1 0.17,-0.1 0.13,0 1.78,-1.18 3.36,-2.4 0.92,-0.73 3.42,-3.19 4.27,-4.21 1.75,-2.11 3.13,-4.78 3.71,-7.14 0.88,-3.58 -0.16,-8.76 -2.45,-12.22 -2.9,-4.34 -7.19,-5.64 -12.99,-3.94 -0.23,0.07 -0.25,-0.12 -0.16,-3.55l0.1 -3.64 -29.26 0 -29.25 0 0.1 3.64 0 0zm54.25 2.04c-0.23,3.74 -0.85,9.45 -1.4,12.63 -2.23,13.13 -5.94,22.55 -11.53,29.24 -3.25,3.9 -5.28,7.28 -6.58,10.97 -1.39,3.94 -1.92,8.58 -1.39,12.52 0.28,2.01 0.55,3.06 1.26,4.65 1.31,2.95 3.29,5.17 6.55,7.27 1.09,0.71 1.99,1.35 1.99,1.42 0,0.06 -6.29,0.12 -13.99,0.12 -7.7,0 -13.99,-0.06 -13.99,-0.12 0,-0.06 0.99,-0.77 2.19,-1.55 1.63,-1.07 2.48,-1.75 3.3,-2.62 3.34,-3.52 4.68,-7.58 4.47,-13.47 -0.15,-3.97 -1.07,-7.68 -2.84,-11.29 -1.38,-2.83 -2.68,-4.77 -5.29,-7.92 -4.29,-5.18 -7.25,-11.39 -9.59,-20.14 -1.61,-6.07 -2.9,-14.39 -3.33,-21.73l-0.1 -1.63 25.18 0 25.19 0 -0.1 1.63 0 0zm-56.9 4.96c0.53,0.12 1.45,0.41 2.04,0.67l1.09 0.45 0.17 1.55c1,8.7 3.1,17.56 5.73,24 0.29,0.71 0.49,1.33 0.45,1.36 -0.05,0.05 -1.06,-0.42 -2.28,-1.03 -8.86,-4.38 -14.57,-9.63 -16.16,-14.85 -0.38,-1.23 -0.35,-3.94 0.08,-5.44 1,-3.65 2.68,-5.93 4.89,-6.64 1.04,-0.33 2.66,-0.36 4,-0.09zm67.53 0.08c1.68,0.52 2.98,1.81 3.99,3.93 1.29,2.75 1.69,5.66 1.11,7.97 -1.17,4.62 -5.67,9.22 -13.15,13.42 -1.94,1.09 -5.28,2.72 -5.37,2.62 -0.03,-0.03 0.28,-0.86 0.67,-1.86 2.5,-6.15 4.61,-15.18 5.53,-23.5l0.17 -1.55 1.06 -0.45c2.12,-0.88 4.36,-1.1 5.99,-0.59zm-17.85 79.99l0.04 2.07 -17.92 0 -17.9 0 0 -2.03 0 -2.01 0.92 -0.04c0.49,-0.03 8.54,-0.06 17.86,-0.05l16.96 0 0.05 2.06 0 0zm4.49 13.19l-0.04 7.07 -22.33 0 -22.32 0 -0.05 -7.07 -0.03 -7.06 22.4 0 22.4 0 -0.03 7.06z"/>
    <path fill="#666666" d="M120.99 417.95c-0.3,0.12 -0.68,0.32 -0.82,0.45 -0.16,0.15 -0.97,1.67 -1.83,3.41l-1.54 3.15 -1.17 0.16c-4.36,0.61 -5.91,0.9 -6.32,1.17 -0.77,0.55 -1.13,1.89 -0.73,2.67 0.09,0.17 1.29,1.46 2.67,2.86l2.51 2.54 -0.57 3.26c-0.31,1.8 -0.55,3.51 -0.5,3.81 0.13,1.12 0.99,1.84 2.18,1.84 0.64,0 1.07,-0.19 3.73,-1.59 1.67,-0.89 3.06,-1.6 3.1,-1.6 0.05,0 1.45,0.73 3.13,1.61 2.52,1.33 3.15,1.61 3.67,1.61 1.1,0 2.01,-0.71 2.2,-1.69 0.05,-0.29 -0.15,-1.81 -0.49,-3.87l-0.56 -3.38 2.47 -2.48c1.35,-1.36 2.55,-2.63 2.65,-2.83 0.26,-0.48 0.24,-1.36 -0.03,-1.96 -0.45,-0.95 -0.77,-1.04 -4.6,-1.63l-3.51 -0.53 -1.45 -2.91c-0.8,-1.6 -1.57,-3.08 -1.71,-3.29 -0.48,-0.74 -1.58,-1.07 -2.47,-0.77l0 0zm1.82 8.44c0.66,1.36 1.15,2.16 1.35,2.25 0.16,0.06 0.84,0.19 1.52,0.28 0.68,0.09 1.64,0.23 2.15,0.32l0.91 0.14 -1.72 1.77 -1.72 1.78 0.39 2.31c0.23,1.26 0.38,2.33 0.35,2.36 -0.04,0.04 -1,-0.41 -2.13,-0.98 -1.13,-0.57 -2.15,-1.04 -2.26,-1.04 -0.1,0 -1.07,0.46 -2.13,1.03 -1.07,0.56 -2,1 -2.07,0.97 -0.06,-0.03 0.03,-0.9 0.21,-1.93 0.52,-2.95 0.61,-2.62 -1.33,-4.58l-1.68 -1.69 1.06 -0.17c2.76,-0.44 3.66,-0.6 3.78,-0.68 0.09,-0.04 0.61,-1.02 1.16,-2.16 0.56,-1.14 1.04,-2.09 1.07,-2.09 0.01,0 0.52,0.96 1.1,2.12l0 0z"/>
    <path fill="#666666" d="M115.82 508.61c-1.31,0.69 -1.33,2.62 -0.05,3.46 0.37,0.24 0.84,0.26 5.91,0.26 6.13,0 5.99,0.01 6.6,-0.99 0.56,-0.93 0.21,-2.28 -0.73,-2.74 -0.45,-0.23 -1.06,-0.26 -5.87,-0.26 -4.93,0 -5.41,0.03 -5.87,0.26z"/>
   </g>
  </g>
  <g id="_2289720068400">
   <path fill="#828282" d="M245.59 419.01c-3.22,1.06 -6.31,3.98 -7.23,6.85 -1.06,3.36 0.17,7.71 2.91,10.12 6.04,5.28 16.15,3.02 18.55,-4.15 2.12,-6.45 -2.78,-12.89 -10.12,-13.2 -1.61,-0.07 -3.19,0.1 -4.11,0.38l0 0 0 0z"/>
   <path fill="#828282" d="M234.28 448.39c-2.37,0.41 -11.72,3.6 -12.24,4.18 -0.38,0.41 -1.61,4.7 -1.4,4.9 0.03,0.06 1.1,-0.21 2.3,-0.59 4.8,-1.51 9.26,-0.82 10.42,1.61 1.2,2.57 0.62,6.17 -3.23,19.23 -2.95,10.08 -3.46,12.48 -3.49,16.38 -0.03,2.54 0.1,3.4 0.72,4.87 1.03,2.3 3.53,4.67 6.48,6.04 2.06,0.96 2.68,1.06 6.27,1.2 4.83,0.17 7.1,-0.28 13.51,-2.61l4.46 -1.65 0.65 -2.3c0.38,-1.27 0.58,-2.36 0.48,-2.47 -0.1,-0.1 -0.86,0.07 -1.68,0.38 -2.23,0.86 -7.99,0.86 -9.49,0.03 -3.57,-1.96 -3.36,-5.25 1.44,-21.73 3.02,-10.32 3.29,-11.59 3.33,-15.6 0.03,-5.73 -1.82,-8.68 -6.89,-11 -1.99,-0.93 -2.64,-1.06 -6,-1.13 -2.06,-0.07 -4.63,0.03 -5.62,0.24l0 0 0 0z"/>
  </g>
 </g>
</svg>
