<?xml version="1.0" encoding="UTF-8"?>
<!DOCTYPE svg PUBLIC "-//W3C//DTD SVG 1.1//EN" "http://www.w3.org/Graphics/SVG/1.1/DTD/svg11.dtd">
<!-- Creator: CorelDRAW 2018 (64-Bit) -->
<svg xmlns="http://www.w3.org/2000/svg" xml:space="preserve" width="49.0064mm" height="11.8374mm" version="1.1" shape-rendering="geometricPrecision" text-rendering="geometricPrecision" image-rendering="optimizeQuality" fill-rule="evenodd" clip-rule="evenodd"
viewBox="0 0 1399.91 338.15"
 xmlns:xlink="http://www.w3.org/1999/xlink">
 <g id="Слой_x0020_1">
  <metadata id="CorelCorpID_0Corel-Layer"/>
  <path fill="#3CAA32" d="M1365.55 337.87l-908.58 0c-19.01,0 -34.36,-19.1 -34.36,-42.13l0 -4.77c0,-23.31 15.58,-42.13 34.36,-42.13l908.58 0c19.02,0 34.36,19.1 34.36,42.13l0 4.77c0,23.31 -15.35,42.13 -34.36,42.13z"/>
  <g id="_1722177123232">
   <path fill="white" d="M169.42 335.34c-2.81,0 -5.62,-1.12 -7.58,-3.09l-155.59 -155.59c-1.97,-1.97 -3.09,-4.78 -3.09,-7.58 0,-2.81 1.12,-5.62 3.09,-7.58l155.59 -155.59c1.97,-1.97 4.78,-3.09 7.58,-3.09 2.81,0 5.62,1.12 7.58,3.09l155.59 155.59c4.21,4.21 4.21,10.95 0,15.17l-155.31 155.59c-2.53,1.97 -5.06,3.09 -7.86,3.09z"/>
   <g>
    <path fill="black" d="M169.42 5.9c1.97,0 3.93,0.84 5.62,2.25l155.59 155.59c1.41,1.41 2.25,3.37 2.25,5.62 0,1.97 -0.84,3.93 -2.25,5.62l-155.59 155.59c-1.4,1.4 -3.37,2.25 -5.62,2.25 -2.25,0 -3.93,-0.84 -5.62,-2.25l-155.59 -155.59c-1.41,-1.41 -2.25,-3.37 -2.25,-5.62 0,-1.97 0.84,-3.93 2.25,-5.62l155.59 -155.59c1.4,-1.41 3.37,-2.25 5.62,-2.25l0 0zm0 -5.9c-3.65,0 -7.02,1.4 -9.83,3.93l-155.59 155.31c-5.34,5.34 -5.34,14.04 0,19.38l155.59 155.59c2.81,2.81 6.18,3.93 9.83,3.93 3.65,0 7.02,-1.4 9.83,-3.93l155.59 -155.59c5.34,-5.34 5.34,-14.04 0,-19.38l-155.59 -155.59c-2.81,-2.53 -6.46,-3.65 -9.83,-3.65l0 0z"/>
   </g>
  </g>
  <path fill="#FFF200" d="M163.81 271.02l-96.33 -96.33c-3.09,-3.09 -3.09,-8.14 0,-11.23l96.33 -96.33c3.09,-3.09 8.14,-3.09 11.23,0l96.33 96.33c3.09,3.09 3.09,8.14 0,11.23l-96.33 96.33c-3.37,3.09 -8.14,3.09 -11.23,0z"/>
  <path fill="#231F20" fill-rule="nonzero" d="M161.73 273.1l-96.34 -96.33 0 0 0 -0.01c-2.12,-2.12 -3.18,-4.91 -3.18,-7.69 0,-2.79 1.06,-5.58 3.18,-7.7l0 0 96.34 -96.33 0 -0 0.01 0c2.12,-2.12 4.9,-3.18 7.69,-3.18 2.79,0 5.58,1.06 7.7,3.18l0 0 96.33 96.33 0 0c2.12,2.12 3.18,4.91 3.18,7.7 0,2.78 -1.06,5.57 -3.18,7.69l0 0.01 -0 0 -96.33 96.33 -0.1 0.08c-2.25,2.07 -5,3.1 -7.7,3.1 -2.77,0 -5.47,-1.06 -7.59,-3.18zm-92.17 -100.5l96.33 96.33c0.97,0.97 2.19,1.45 3.43,1.45 1.26,0 2.55,-0.48 3.65,-1.45l-0.01 -0.01 96.33 -96.33 0 0 0.01 0.01c0.97,-0.97 1.45,-2.25 1.45,-3.54 0,-1.28 -0.48,-2.57 -1.45,-3.53l0 0 -96.33 -96.33 0 -0c-0.97,-0.97 -2.25,-1.45 -3.53,-1.45 -1.29,0 -2.57,0.48 -3.54,1.45l0.01 0.01 0 0 -96.33 96.33 -0 0c-0.97,0.97 -1.45,2.25 -1.45,3.53 0,1.29 0.48,2.57 1.45,3.54l0.01 -0.01 0 0z"/>
  <g>
   <path fill="#3CAA32" d="M117.19 160.37c2.81,0 2.25,-1.97 3.09,-3.09 5.9,-8.71 11.51,-17.41 17.41,-26.4 0.84,-1.41 1.41,-2.81 3.09,-3.93 13.2,8.71 21.34,21.63 29.49,35.39 33.42,-69.65 67.12,-101.39 129.47,-144.92 0.28,0.28 0.28,0.28 0.56,0.56 -5.62,5.9 -10.95,12.08 -16.85,17.97 -49.71,50.84 -68.81,88.47 -97.74,153.07 -5.06,11.23 -10.11,22.47 -14.89,33.7 -0.56,1.4 -1.13,2.53 -1.97,3.93 -1.97,-0.56 -2.25,-2.25 -3.09,-3.65 -7.02,-12.08 -14.04,-24.15 -21.34,-36.23 -3.93,-6.46 -8.14,-12.64 -13.76,-17.69 -3.93,-3.65 -8.14,-6.74 -13.76,-6.74 0.28,-0.28 0.28,-1.12 0.28,-1.97z"/>
  </g>
  <path fill="black" fill-rule="nonzero" d="M478.48 218.96c14.95,0 28.15,-7.33 36.95,-22.29l0 -78 -42.52 0 0 14.37 27.86 0 0 58.06c-4.69,8.5 -12.02,13.49 -22.28,13.49 -21.99,0 -30.21,-37.54 -30.21,-86.8 0,-49.56 8.21,-86.8 30.21,-86.8 12.61,0 18.47,9.68 23.16,24.63l13.49 -4.98c-5.57,-18.18 -15.83,-34.02 -36.65,-34.02 -32.84,0 -46.92,41.05 -46.92,101.17 0,59.82 14.08,101.17 46.92,101.17z"/>
  <path id="1" fill="black" fill-rule="nonzero" d="M633.16 215.44l-29.62 -85.04c12.32,-4.1 27.86,-18.77 27.86,-53.96 0,-35.78 -17.89,-56.59 -42.81,-56.59l-34.9 0 0 195.59 15.54 0 0 -81.81 19.35 0 27.27 81.81 17.3 0zm-46.04 -95.89l-17.89 0 0 -85.33 17.89 0c19.06,0 27.86,17.59 27.86,42.52 0,24.92 -8.8,42.81 -27.86,42.81z"/>
  <polygon id="2" fill="black" fill-rule="nonzero" points="735.36,215.44 735.36,201.07 684.04,201.07 684.04,122.19 733.3,122.19 733.3,108.12 684.04,108.12 684.04,34.22 735.36,34.22 735.36,19.85 668.5,19.85 668.5,215.44 "/>
  <polygon id="3" fill="black" fill-rule="nonzero" points="836.38,215.44 836.38,201.07 785.06,201.07 785.06,122.19 834.33,122.19 834.33,108.12 785.06,108.12 785.06,34.22 836.38,34.22 836.38,19.85 769.52,19.85 769.52,215.44 "/>
  <polygon id="4" fill="black" fill-rule="nonzero" points="952.65,215.44 952.65,19.85 936.82,19.85 936.82,169.7 886.09,19.85 870.54,19.85 870.54,215.44 886.09,215.44 886.09,63.54 937.4,215.44 "/>
  <path fill="white" fill-rule="nonzero" d="M610.73 294.61c0,6.26 -1.59,11.18 -4.74,14.77 -3.17,3.59 -7.56,5.38 -13.21,5.38 -5.76,0 -10.2,-1.76 -13.32,-5.28 -3.13,-3.52 -4.7,-8.49 -4.7,-14.9 0,-6.37 1.57,-11.29 4.71,-14.8 3.14,-3.51 7.59,-5.26 13.37,-5.26 5.62,0 10,1.78 13.16,5.35 3.16,3.57 4.74,8.49 4.74,14.75zm-31.15 -0.01c0,5.29 1.12,9.31 3.38,12.05 2.26,2.74 5.54,4.1 9.83,4.1 4.34,0 7.61,-1.36 9.82,-4.09 2.21,-2.73 3.31,-6.75 3.31,-12.06 0,-5.26 -1.09,-9.24 -3.3,-11.96 -2.2,-2.72 -5.46,-4.08 -9.78,-4.08 -4.33,0 -7.62,1.37 -9.88,4.11 -2.25,2.74 -3.38,6.72 -3.38,11.93z"/>
  <path id="1" fill="white" fill-rule="nonzero" d="M745.85 314.2l-5.18 0 -21.36 -32.81 -0.22 0c0.28,3.85 0.43,7.37 0.43,10.58l0 22.22 -4.2 0 0 -39.09 5.13 0 21.32 32.68 0.21 0c-0.04,-0.48 -0.11,-2.03 -0.24,-4.64 -0.13,-2.61 -0.17,-4.47 -0.14,-5.6l0 -22.43 4.25 0 0 39.09z"/>
  <polygon id="2" fill="white" fill-rule="nonzero" points="852.47,314.2 852.47,275.11 857.02,275.11 857.02,310.09 874.26,310.09 874.26,314.2 "/>
  <polygon id="3" fill="white" fill-rule="nonzero" points="976.77,314.2 976.77,275.11 981.31,275.11 981.31,314.2 "/>
  <path id="4" fill="white" fill-rule="nonzero" d="M1118.45 314.2l-5.18 0 -21.36 -32.81 -0.22 0c0.28,3.85 0.43,7.37 0.43,10.58l0 22.22 -4.2 0 0 -39.09 5.13 0 21.32 32.68 0.21 0c-0.04,-0.48 -0.11,-2.03 -0.24,-4.64 -0.13,-2.61 -0.17,-4.47 -0.14,-5.6l0 -22.43 4.25 0 0 39.09z"/>
  <polygon id="5" fill="white" fill-rule="nonzero" points="1246.86,314.2 1225.08,314.2 1225.08,275.11 1246.86,275.11 1246.86,279.16 1229.62,279.16 1229.62,291.75 1245.82,291.75 1245.82,295.75 1229.62,295.75 1229.62,310.15 1246.86,310.15 "/>
  <polygon fill="#333333" fill-rule="nonzero" points="1131.17,215.93 1163.71,20.35 1132.34,20.35 1114.45,161.98 1094.22,20.35 1069.29,20.35 1049.36,161.98 1031.18,20.35 999.8,20.35 1032.35,215.93 1063.72,215.93 1081.61,79.29 1099.79,215.93 "/>
  <path id="1" fill="#333333" fill-rule="nonzero" d="M1281 215.93l-39.88 -195.58 -35.19 0 -39.88 195.58 31.37 0 6.74 -39.88 38.71 0 6.74 39.88 31.37 0zm-41.64 -66.86l-31.67 0 15.83 -93.83 15.83 93.83z"/>
  <polygon id="2" fill="#333333" fill-rule="nonzero" points="1349.91,215.93 1349.91,134.12 1394.77,20.35 1362.52,20.35 1334.66,103.92 1307.1,20.35 1274.26,20.35 1319.41,134.12 1319.41,215.93 "/>
 </g>
</svg>
