<?xml version="1.0" encoding="UTF-8"?>
<!DOCTYPE svg PUBLIC "-//W3C//DTD SVG 1.1//EN" "http://www.w3.org/Graphics/SVG/1.1/DTD/svg11.dtd">
<!-- Creator: CorelDRAW 2018 (64-Bit) -->
<svg xmlns="http://www.w3.org/2000/svg" xml:space="preserve" width="2.7918mm" height="2.5282mm" version="1.1" shape-rendering="geometricPrecision" text-rendering="geometricPrecision" image-rendering="optimizeQuality" fill-rule="evenodd" clip-rule="evenodd"
viewBox="0 0 11.76 10.65"
 xmlns:xlink="http://www.w3.org/1999/xlink">
 <g id="Layer_x0020_1">
  <metadata id="CorelCorpID_0Corel-Layer"/>
  <path fill="#A6A6A6" fill-rule="nonzero" d="M2 5.45c0,0.25 -0.19,0.45 -0.44,0.45 -0.25,0 -0.45,-0.19 -0.45,-0.44l-0 -0.14c-0,-1.47 0.59,-2.8 1.56,-3.77 0.96,-0.96 2.3,-1.56 3.77,-1.56 1.47,0 2.8,0.6 3.77,1.56 0.96,0.96 1.56,2.3 1.56,3.77 0,1.47 -0.6,2.8 -1.56,3.77 -0.96,0.96 -2.3,1.56 -3.77,1.56 -1.03,0 -2.01,-0.3 -2.85,-0.83 -0.84,-0.53 -1.53,-1.29 -1.97,-2.22 -0.1,-0.22 -0.01,-0.49 0.21,-0.59 0.22,-0.1 0.49,-0.01 0.59,0.21 0.37,0.77 0.94,1.41 1.63,1.85 0.69,0.44 1.51,0.69 2.37,0.69 1.22,0 2.33,-0.5 3.14,-1.3 0.8,-0.8 1.3,-1.91 1.3,-3.14 0,-1.22 -0.5,-2.33 -1.3,-3.14 -0.8,-0.8 -1.91,-1.3 -3.14,-1.3 -1.22,0 -2.33,0.5 -3.14,1.3 -0.8,0.8 -1.3,1.91 -1.3,3.14l-0 0.13z"/>
  <path fill="#A6A6A6" fill-rule="nonzero" d="M0.07 4.01c-0.13,-0.21 -0.08,-0.48 0.13,-0.62 0.21,-0.13 0.48,-0.08 0.62,0.13l0.83 1.27 1.27 -1.12c0.18,-0.16 0.46,-0.15 0.63,0.04 0.16,0.18 0.15,0.46 -0.04,0.63l-1.7 1.51c-0.21,0.13 -0.48,0.08 -0.62,-0.13l-1.11 -1.7z"/>
 </g>
</svg>
