<?xml version="1.0" encoding="UTF-8"?>
<!DOCTYPE svg PUBLIC "-//W3C//DTD SVG 1.1//EN" "http://www.w3.org/Graphics/SVG/1.1/DTD/svg11.dtd">
<!-- Creator: CorelDRAW 2018 (64-Bit) -->
<svg xmlns="http://www.w3.org/2000/svg" xml:space="preserve" width="13.7256mm" height="13.7256mm" version="1.1" shape-rendering="geometricPrecision" text-rendering="geometricPrecision" image-rendering="optimizeQuality" fill-rule="evenodd" clip-rule="evenodd"
viewBox="0 0 3309.65 3309.65"
 xmlns:xlink="http://www.w3.org/1999/xlink">
 <g id="Layer_x0020_1">
  <metadata id="CorelCorpID_0Corel-Layer"/>
  <g id="_3036602823744">
   <rect fill="#84C3D3" x="218.69" y="447.76" width="2862.64" height="2414.13" rx="257.14" ry="251.1"/>
   <g>
    <path fill="white" d="M1933.77 2325.19l129.82 0c59.94,0 108.99,-49.05 108.99,-108.99l0 -129.13 586.09 0 0 129.13c0,59.94 49.05,108.99 108.99,108.99l129.82 0c59.94,0 108.99,-49.05 108.99,-108.99l0 -129.13 75.09 0c45.24,0 82.23,-36.99 82.23,-82.23l0 -456.43c0,-45.24 -36.99,-82.23 -82.23,-82.23l-17.22 0 -145.35 -369.41c-31.37,-79.77 -104.48,-129.56 -190.18,-129.56l-732.82 0c-85.7,0 -158.81,49.79 -190.18,129.56l-145.35 369.41 -10.75 0c-45.24,0 -82.23,36.99 -82.23,82.23l0 456.43c0,45.24 36.99,82.23 82.23,82.23l75.06 0 0 129.13c0,59.94 49.05,108.99 108.99,108.99zm1058.63 -859l-1059.98 0 111.45 -290.34c15.48,-40.34 52.3,-65.66 95.51,-65.66l646.06 0c43.21,0 80.03,25.32 95.51,65.66l111.45 290.34z"/>
    <circle fill="#EEEDA0" cx="1984.5" cy="1750.15" r="97.39"/>
    <circle fill="#EEEDA0" cx="2946.75" cy="1750.15" r="97.39"/>
    <path fill="#6B6A6A" fill-rule="nonzero" d="M1933.77 2299.66l129.82 0c23,0 43.91,-9.38 58.93,-24.43 15.14,-15.12 24.52,-36.02 24.52,-59.03l0 -154.66 637.16 0 0 154.66c0,22.93 9.43,43.84 24.52,58.93 15.02,15.14 35.93,24.52 58.93,24.52l129.82 0c23,0 43.91,-9.38 58.93,-24.43 15.14,-15.12 24.52,-36.02 24.52,-59.03l0 -154.66 100.62 0c15.58,0 29.8,-6.39 40.05,-16.64 10.25,-10.25 16.64,-24.47 16.64,-40.05l0 -456.43c0,-15.58 -6.39,-29.78 -16.64,-40.03 -10.25,-10.25 -24.47,-16.66 -40.05,-16.66l-34.55 0 -151.74 -385.66c-13.74,-34.99 -36.65,-63.39 -65.32,-82.95 -28.62,-19.51 -63.44,-30.36 -101.13,-30.36l-732.82 0c-37.69,0 -72.51,10.85 -101.13,30.36 -28.67,19.56 -51.58,47.96 -65.32,82.95l-151.77 385.66 -28.07 0c-15.58,0 -29.78,6.41 -40.03,16.66 -10.25,10.25 -16.66,24.45 -16.66,40.03l0 456.43c0,15.58 6.41,29.8 16.66,40.05 10.25,10.25 24.45,16.64 40.03,16.64l100.6 0 0 154.66c0,22.93 9.43,43.84 24.52,58.93 15.02,15.14 35.93,24.52 58.93,24.52zm129.82 51.07l-129.82 0c-36.92,0 -70.55,-15.17 -94.96,-39.57 -24.4,-24.31 -39.57,-57.97 -39.57,-94.96l0 -103.59 -49.53 0c-29.63,0 -56.59,-12.13 -76.1,-31.64 -19.51,-19.51 -31.66,-46.49 -31.66,-76.12l0 -456.43c0,-29.63 12.15,-56.59 31.66,-76.1 18.04,-18.04 42.44,-29.78 69.45,-31.44l139.04 -353.38c17.58,-44.73 47.04,-81.19 84.08,-106.43 37.16,-25.32 81.84,-39.38 129.82,-39.38l732.82 0c47.98,0 92.67,14.06 129.82,39.38 37.04,25.25 66.5,61.71 84.08,106.43l138.96 353.16c29.59,0.02 56.52,12.18 76,31.66 19.51,19.51 31.64,46.47 31.64,76.1l0 456.43c0,29.63 -12.13,56.62 -31.64,76.12 -19.51,19.51 -46.49,31.64 -76.12,31.64l-49.55 0 0 103.59c0,36.89 -15.14,70.51 -39.52,94.91 -24.5,24.47 -58.11,39.62 -95.01,39.62l-129.82 0c-36.92,0 -70.55,-15.17 -94.96,-39.57 -24.4,-24.31 -39.57,-57.97 -39.57,-94.96l0 -103.59 -535.02 0 0 103.59c0,36.89 -15.14,70.51 -39.52,94.91 -24.5,24.47 -58.11,39.62 -95.01,39.62zm928.81 -859l-1097 0 124.71 -324.92c9.52,-25.1 25.92,-45.6 46.63,-59.85 20.83,-14.32 45.86,-22.3 72.63,-22.3l646.06 0c26.77,0 51.79,7.98 72.63,22.3 20.71,14.25 37.11,34.75 46.71,59.82l124.62 324.95 -36.99 0zm-1022.97 -51.07l985.96 0 -98.16 -255.74c-5.93,-15.24 -15.77,-27.61 -28.09,-36.1 -12.23,-8.42 -27.3,-13.09 -43.69,-13.09l-646.06 0c-16.4,0 -31.47,4.68 -43.69,13.09 -12.32,8.49 -22.16,20.86 -28,36.1l-98.26 255.74z"/>
    <path fill="#6B6A6A" fill-rule="nonzero" d="M1984.5 1627.22c33.93,0 64.67,13.79 86.9,36.02 22.23,22.23 36.02,53 36.02,86.9 0,33.93 -13.79,64.67 -36.02,86.9 -22.23,22.23 -52.98,36.02 -86.9,36.02 -33.9,0 -64.67,-13.79 -86.9,-36.02 -22.23,-22.23 -36.02,-52.98 -36.02,-86.9 0,-33.9 13.79,-64.67 36.02,-86.9 22.23,-22.23 53,-36.02 86.9,-36.02zm50.83 72.1c-12.97,-12.97 -30.96,-21.03 -50.83,-21.03 -19.84,0 -37.86,8.05 -50.83,21.03 -12.97,12.97 -21.03,30.99 -21.03,50.83 0,19.87 8.05,37.86 21.03,50.83 12.97,12.97 30.99,21.03 50.83,21.03 19.87,0 37.86,-8.05 50.83,-21.03 12.97,-12.97 21.03,-30.96 21.03,-50.83 0,-19.84 -8.05,-37.86 -21.03,-50.83z"/>
    <path fill="#6B6A6A" fill-rule="nonzero" d="M2946.75 1627.22c33.93,0 64.67,13.79 86.9,36.02 22.23,22.23 36.02,53 36.02,86.9 0,33.93 -13.79,64.67 -36.02,86.9 -22.23,22.23 -52.98,36.02 -86.9,36.02 -33.9,0 -64.67,-13.79 -86.9,-36.02 -22.23,-22.23 -36.02,-52.98 -36.02,-86.9 0,-33.9 13.79,-64.67 36.02,-86.9 22.23,-22.23 53,-36.02 86.9,-36.02zm50.83 72.1c-12.97,-12.97 -30.96,-21.03 -50.83,-21.03 -19.84,0 -37.86,8.05 -50.83,21.03 -12.97,12.97 -21.03,30.99 -21.03,50.83 0,19.87 8.05,37.86 21.03,50.83 12.97,12.97 30.99,21.03 50.83,21.03 19.87,0 37.86,-8.05 50.83,-21.03 12.97,-12.97 21.03,-30.96 21.03,-50.83 0,-19.84 -8.05,-37.86 -21.03,-50.83z"/>
   </g>
   <g>
    <path fill="white" d="M337.46 2325.19l129.82 0c59.94,0 108.99,-49.05 108.99,-108.99l0 -129.13 586.09 0 0 129.13c0,59.94 49.05,108.99 108.99,108.99l129.82 0c59.94,0 108.99,-49.05 108.99,-108.99l0 -129.13 75.09 0c45.24,0 82.23,-36.99 82.23,-82.23l0 -456.43c0,-45.24 -36.99,-82.23 -82.23,-82.23l-17.22 0 -145.35 -369.41c-31.37,-79.77 -104.48,-129.56 -190.18,-129.56l-732.82 0c-85.7,0 -158.81,49.79 -190.18,129.56l-145.35 369.41 -10.75 0c-45.24,0 -82.23,36.99 -82.23,82.23l0 456.43c0,45.24 36.99,82.23 82.23,82.23l75.06 0 0 129.13c0,59.94 49.05,108.99 108.99,108.99zm1058.63 -859l-1059.98 0 111.45 -290.34c15.48,-40.34 52.3,-65.66 95.51,-65.66l646.06 0c43.21,0 80.03,25.32 95.51,65.66l111.45 290.34z"/>
    <circle fill="#EEEDA0" cx="388.2" cy="1750.15" r="97.39"/>
    <circle fill="#EEEDA0" cx="1350.45" cy="1750.15" r="97.39"/>
    <path fill="#6B6A6A" fill-rule="nonzero" d="M337.46 2299.66l129.82 0c23,0 43.91,-9.38 58.93,-24.43 15.14,-15.12 24.52,-36.02 24.52,-59.03l0 -154.66 637.16 0 0 154.66c0,22.93 9.43,43.84 24.52,58.93 15.02,15.14 35.93,24.52 58.93,24.52l129.82 0c23,0 43.91,-9.38 58.93,-24.43 15.14,-15.12 24.52,-36.02 24.52,-59.03l0 -154.66 100.62 0c15.58,0 29.8,-6.39 40.05,-16.64 10.25,-10.25 16.64,-24.47 16.64,-40.05l0 -456.43c0,-15.58 -6.39,-29.78 -16.64,-40.03 -10.25,-10.25 -24.47,-16.66 -40.05,-16.66l-34.55 0 -151.74 -385.66c-13.74,-34.99 -36.65,-63.39 -65.32,-82.95 -28.62,-19.51 -63.44,-30.36 -101.13,-30.36l-732.82 0c-37.69,0 -72.51,10.85 -101.13,30.36 -28.67,19.56 -51.58,47.96 -65.32,82.95l-151.77 385.66 -28.07 0c-15.58,0 -29.78,6.41 -40.03,16.66 -10.25,10.25 -16.66,24.45 -16.66,40.03l0 456.43c0,15.58 6.41,29.8 16.66,40.05 10.25,10.25 24.45,16.64 40.03,16.64l100.6 0 0 154.66c0,22.93 9.43,43.84 24.52,58.93 15.02,15.14 35.93,24.52 58.93,24.52zm129.82 51.07l-129.82 0c-36.92,0 -70.55,-15.17 -94.96,-39.57 -24.4,-24.31 -39.57,-57.97 -39.57,-94.96l0 -103.59 -49.53 0c-29.63,0 -56.59,-12.13 -76.1,-31.64 -19.51,-19.51 -31.66,-46.49 -31.66,-76.12l0 -456.43c0,-29.63 12.15,-56.59 31.66,-76.1 18.04,-18.04 42.44,-29.78 69.45,-31.44l139.04 -353.38c17.58,-44.73 47.04,-81.19 84.08,-106.43 37.16,-25.32 81.84,-39.38 129.82,-39.38l732.82 0c47.98,0 92.67,14.06 129.82,39.38 37.04,25.25 66.5,61.71 84.08,106.43l138.96 353.16c29.59,0.02 56.52,12.18 76,31.66 19.51,19.51 31.64,46.47 31.64,76.1l0 456.43c0,29.63 -12.13,56.62 -31.64,76.12 -19.51,19.51 -46.49,31.64 -76.12,31.64l-49.55 0 0 103.59c0,36.89 -15.14,70.51 -39.52,94.91 -24.5,24.47 -58.11,39.62 -95.01,39.62l-129.82 0c-36.92,0 -70.55,-15.17 -94.96,-39.57 -24.4,-24.31 -39.57,-57.97 -39.57,-94.96l0 -103.59 -535.02 0 0 103.59c0,36.89 -15.14,70.51 -39.52,94.91 -24.5,24.47 -58.11,39.62 -95.01,39.62zm928.81 -859l-1097 0 124.71 -324.92c9.52,-25.1 25.92,-45.6 46.63,-59.85 20.83,-14.32 45.86,-22.3 72.63,-22.3l646.06 0c26.77,0 51.79,7.98 72.63,22.3 20.71,14.25 37.11,34.75 46.71,59.82l124.62 324.95 -36.99 0zm-1022.97 -51.07l985.96 0 -98.16 -255.74c-5.93,-15.24 -15.77,-27.61 -28.09,-36.1 -12.23,-8.42 -27.3,-13.09 -43.69,-13.09l-646.06 0c-16.4,0 -31.47,4.68 -43.69,13.09 -12.32,8.49 -22.16,20.86 -28,36.1l-98.26 255.74z"/>
    <path fill="#6B6A6A" fill-rule="nonzero" d="M388.2 1627.22c33.93,0 64.67,13.79 86.9,36.02 22.23,22.23 36.02,53 36.02,86.9 0,33.93 -13.79,64.67 -36.02,86.9 -22.23,22.23 -52.98,36.02 -86.9,36.02 -33.9,0 -64.67,-13.79 -86.9,-36.02 -22.23,-22.23 -36.02,-52.98 -36.02,-86.9 0,-33.9 13.79,-64.67 36.02,-86.9 22.23,-22.23 53,-36.02 86.9,-36.02zm50.83 72.1c-12.97,-12.97 -30.96,-21.03 -50.83,-21.03 -19.84,0 -37.86,8.05 -50.83,21.03 -12.97,12.97 -21.03,30.99 -21.03,50.83 0,19.87 8.05,37.86 21.03,50.83 12.97,12.97 30.99,21.03 50.83,21.03 19.87,0 37.86,-8.05 50.83,-21.03 12.97,-12.97 21.03,-30.96 21.03,-50.83 0,-19.84 -8.05,-37.86 -21.03,-50.83z"/>
    <path fill="#6B6A6A" fill-rule="nonzero" d="M1350.45 1627.22c33.93,0 64.67,13.79 86.9,36.02 22.23,22.23 36.02,53 36.02,86.9 0,33.93 -13.79,64.67 -36.02,86.9 -22.23,22.23 -52.98,36.02 -86.9,36.02 -33.9,0 -64.67,-13.79 -86.9,-36.02 -22.23,-22.23 -36.02,-52.98 -36.02,-86.9 0,-33.9 13.79,-64.67 36.02,-86.9 22.23,-22.23 53,-36.02 86.9,-36.02zm50.83 72.1c-12.97,-12.97 -30.96,-21.03 -50.83,-21.03 -19.84,0 -37.86,8.05 -50.83,21.03 -12.97,12.97 -21.03,30.99 -21.03,50.83 0,19.87 8.05,37.86 21.03,50.83 12.97,12.97 30.99,21.03 50.83,21.03 19.87,0 37.86,-8.05 50.83,-21.03 12.97,-12.97 21.03,-30.96 21.03,-50.83 0,-19.84 -8.05,-37.86 -21.03,-50.83z"/>
   </g>
   <g>
    <polygon fill="white" points="1387.8,537.62 1547.36,1005.75 1230,646.32 "/>
    <path fill="#6B6A6A" fill-rule="nonzero" d="M1411.94 529.45l159.56 468.13c4.51,13.31 -2.65,27.8 -15.96,32.31 -10.54,3.57 -21.8,-0.17 -28.28,-8.49l-316.29 -358.22c-9.31,-10.51 -8.32,-26.6 2.19,-35.9l160.18 -110.58c11.55,-7.98 27.42,-5.09 35.4,6.46 1.37,2 2.44,4.12 3.21,6.29zm70.24 364.06l-107.66 -315.83 -106.46 73.33 214.12 242.5z"/>
    <polygon fill="white" points="1949.17,537.62 1789.62,1005.75 2106.97,646.32 "/>
    <path fill="#6B6A6A" fill-rule="nonzero" d="M1962.46 577.68l-107.66 315.83 214.12 -242.5 -106.46 -73.33zm-196.98 419.9l159.56 -468.13c0.77,-2.17 1.83,-4.29 3.21,-6.29 7.98,-11.55 23.85,-14.44 35.4,-6.46l160.18 110.58c10.51,9.31 11.5,25.39 2.19,35.9l-316.29 358.22c-6.49,8.32 -17.75,12.06 -28.28,8.49 -13.31,-4.51 -20.47,-19 -15.96,-32.31z"/>
    <polygon fill="white" points="1763.96,506.35 1668.4,976.24 1572.99,506.35 "/>
    <path fill="#6B6A6A" fill-rule="nonzero" d="M1788.46 513.53l-95.13 467.79c-2.8,13.77 -16.25,22.64 -30.02,19.84 -10.66,-2.17 -18.37,-10.71 -20.04,-20.83l-95.22 -469c-2.75,-13.77 6.17,-27.18 19.94,-29.92l4.99 -0.51 190.97 -0.1c14.08,0 25.54,11.45 25.54,25.54 0,2.48 -0.36,4.89 -1.04,7.19zm-120.06 334.98l64.41 -316.63 -128.69 0 64.29 316.63z"/>
   </g>
   <polygon fill="#F8B8B6" stroke="#6B6A6A" stroke-width="51.05" stroke-linecap="round" stroke-miterlimit="22.9256" points="93.37,2086.02 448.69,2086.02 448.69,1730.69 1060.71,1730.69 1060.71,2086.02 1416.01,2086.02 1416.01,2698.03 1060.71,2698.03 1060.71,3053.33 448.69,3053.33 448.69,2698.03 93.37,2698.03 "/>
  </g>
  <rect fill="none" width="3309.65" height="3309.65"/>
 </g>
</svg>
