<?xml version="1.0" encoding="UTF-8"?>
<!DOCTYPE svg PUBLIC "-//W3C//DTD SVG 1.1//EN" "http://www.w3.org/Graphics/SVG/1.1/DTD/svg11.dtd">
<!-- Creator: CorelDRAW 2018 (64-Bit) -->
<svg xmlns="http://www.w3.org/2000/svg" xml:space="preserve" width="13.7467mm" height="13.7256mm" version="1.1" shape-rendering="geometricPrecision" text-rendering="geometricPrecision" image-rendering="optimizeQuality" fill-rule="evenodd" clip-rule="evenodd"
viewBox="0 0 3319.84 3314.74"
 xmlns:xlink="http://www.w3.org/1999/xlink">
 <g id="Layer_x0020_1">
  <metadata id="CorelCorpID_0Corel-Layer"/>
  <rect fill="none" width="3314.74" height="3314.74"/>
  <g id="_3036602277856">
   <rect fill="#84C3D3" x="247.6" y="448.45" width="2800.21" height="2417.84" rx="251.54" ry="251.48"/>
   <path fill="#F8B8B6" d="M1098.03 1604.84l332.11 575.21 332.14 575.25c37.58,65.08 37.58,139.61 0,204.7 -37.6,65.08 -102.13,102.35 -177.29,102.35l-664.22 0 -664.22 0c-75.16,0 -139.68,-37.26 -177.29,-102.35 -37.58,-65.08 -37.58,-139.61 0,-204.7l332.14 -575.25 332.11 -575.21c37.58,-65.08 102.11,-102.35 177.26,-102.35 75.16,0 139.68,37.26 177.26,102.35z"/>
   <path fill="white" d="M975.86 1675.39c-12.36,-21.42 -30.36,-31.81 -55.09,-31.81 -24.73,0 -42.72,10.38 -55.09,31.81l-664.25 1150.46c-12.36,21.42 -12.36,42.19 0,63.59 12.36,21.42 30.36,31.83 55.11,31.83l1328.45 0c24.75,0 42.75,-10.41 55.11,-31.83 12.36,-21.4 12.36,-42.17 0,-63.59l-664.25 -1150.46z"/>
   <g>
    <path fill="#6B6A6A" fill-rule="nonzero" d="M1120.08 1592.07l664.27 1150.46c21.11,36.66 31.68,75.93 31.68,115.12 0,39.24 -10.58,78.58 -31.68,115.12 -21.06,36.44 -49.82,65.23 -83.87,84.89 -34.24,19.71 -73.51,30.26 -115.49,30.26l-1328.45 0c-41.97,0 -81.24,-10.55 -115.39,-30.26 -34.15,-19.66 -62.91,-48.45 -83.97,-84.89 -21.11,-36.54 -31.68,-75.88 -31.68,-115.12 0,-39.2 10.58,-78.46 31.68,-115.03l664.25 -1150.56c21.13,-36.49 49.87,-65.28 83.85,-84.89 34.24,-19.71 73.51,-30.26 115.49,-30.26 41.97,0 81.24,10.55 115.39,30.26 34.08,19.61 62.81,48.4 83.92,84.89zm287.99 600.76l-332.11 -575.21c-16.45,-28.59 -38.83,-51.03 -65.25,-66.29 -26.18,-15.17 -56.8,-23.26 -89.93,-23.26 -33.13,0 -63.76,8.09 -89.96,23.21 -26.4,15.31 -48.78,37.75 -65.23,66.24l-664.25 1150.56c-16.45,28.42 -24.68,59.02 -24.68,89.57 0,30.5 8.24,61.1 24.68,89.57 16.52,28.59 38.93,51.08 65.28,66.29 26.18,15.17 56.8,23.26 89.93,23.26l1328.45 0c33.13,0 63.76,-8.09 89.96,-23.21 26.35,-15.29 48.73,-37.75 65.25,-66.34 16.45,-28.47 24.68,-59.07 24.68,-89.57 0,-30.55 -8.24,-61.15 -24.63,-89.6l-332.18 -575.23z"/>
    <path fill="#6B6A6A" fill-rule="nonzero" d="M953.78 1688.16c-3.94,-6.81 -8.45,-11.71 -13.52,-14.63 -5.02,-2.9 -11.54,-4.37 -19.49,-4.37 -7.95,0 -14.47,1.47 -19.51,4.37 -5.05,2.9 -9.56,7.82 -13.5,14.63l-664.25 1150.46c-3.84,6.59 -5.77,12.94 -5.77,19.03 0,6.04 1.93,12.36 5.77,19.01 3.84,6.76 8.38,11.64 13.62,14.66 5.02,2.92 11.5,4.37 19.42,4.37l1328.45 0c7.92,0 14.42,-1.45 19.44,-4.32 5.22,-3.07 9.76,-7.95 13.6,-14.61 3.84,-6.74 5.77,-13.07 5.77,-19.1 0,-6.09 -1.93,-12.44 -5.72,-19.05l-664.3 -1150.44zm11.83 -58.78c13.19,7.58 23.91,18.67 32.31,33.23l664.25 1150.46c8.5,14.83 12.78,29.61 12.78,44.58 0,15.05 -4.27,29.85 -12.78,44.56 -8.52,14.66 -19.2,25.74 -32.22,33.25 -13.26,7.58 -28.21,11.37 -44.97,11.37l-1328.45 0c-16.81,0 -31.71,-3.79 -44.87,-11.37 -13.11,-7.51 -23.79,-18.6 -32.26,-33.28 -8.55,-14.68 -12.82,-29.49 -12.82,-44.53 0,-14.97 4.27,-29.75 12.78,-44.48l664.25 -1150.56c8.4,-14.54 19.13,-25.65 32.29,-33.23 13.19,-7.58 28.11,-11.37 44.87,-11.37 16.76,0 31.68,3.79 44.85,11.37z"/>
   </g>
   <circle fill="#EEEDA0" cx="2205.84" cy="1337.65" r="1088.42"/>
   <path fill="#6B6A6A" fill-rule="nonzero" d="M2205.84 223.65c307.58,0 586.12,124.74 787.7,326.29 201.56,201.58 326.29,480.13 326.29,787.7 0,307.6 -124.74,586.12 -326.29,787.7 -201.6,201.6 -480.13,326.29 -787.7,326.29 -307.6,0 -586.1,-124.69 -787.7,-326.29 -201.6,-201.6 -326.29,-480.1 -326.29,-787.7 0,-307.58 124.69,-586.1 326.29,-787.7 201.58,-201.56 480.1,-326.29 787.7,-326.29zm751.57 362.42c-192.31,-192.28 -458.08,-311.27 -751.57,-311.27 -293.52,0 -559.27,118.99 -751.57,311.27 -192.31,192.31 -311.27,458.08 -311.27,751.57 0,293.52 118.96,559.27 311.27,751.57 192.31,192.31 458.05,311.27 751.57,311.27 293.5,0 559.27,-118.96 751.57,-311.27 192.28,-192.31 311.27,-458.05 311.27,-751.57 0,-293.5 -118.99,-559.27 -311.27,-751.57z"/>
   <path fill="#6B6A6A" d="M1628.85 1324.61l162.31 0 -162.31 -480.71 -162.29 480.71 162.29 0zm1122.62 0l162.31 0 -162.31 -480.71 -162.29 480.71 162.29 0zm0.02 -609.57c-17.8,0 -33.35,9.44 -42,23.59l-452.14 0c-10.38,-27.87 -37.22,-47.7 -68.68,-47.7 -31.47,0 -58.3,19.83 -68.68,47.7l-449.12 0c-8.65,-14.15 -24.2,-23.59 -42,-23.59 -27.17,0 -49.17,22 -49.17,49.17 0,12.08 4.35,23.11 11.54,31.66l-178.54 528.86 0.39 0.12c0.14,115 96.7,208.15 215.76,208.15 119.06,0 215.61,-93.15 215.76,-208.13l0.41 -0.14 -178.57 -528.81c1.62,-1.93 3.09,-3.96 4.42,-6.13l449.12 0c7.41,19.9 23.21,35.69 43.11,43.11l0 1065.74 -472.69 0c-22.58,0 -40.91,18.33 -40.91,40.91 0,22.58 18.33,40.91 40.91,40.91l987.74 0c22.58,0 40.91,-18.33 40.91,-40.91 0,-22.58 -18.33,-40.91 -40.91,-40.91l-463.9 0 0 -1065.74c19.9,-7.41 35.69,-23.21 43.11,-43.11l452.14 0c1.33,2.13 2.75,4.18 4.37,6.09l-178.54 528.86 0.39 0.12c0.14,115 96.7,208.15 215.76,208.15 119.06,0 215.61,-93.15 215.76,-208.13l0.41 -0.14 -178.57 -528.81c7.22,-8.55 11.59,-19.63 11.59,-31.71 0,-27.17 -22,-49.17 -49.17,-49.17z"/>
   <circle fill="#6B6A6A" cx="2751.42" cy="764.2" r="49.17"/>
  </g>
 </g>
</svg>
