<?xml version="1.0" encoding="UTF-8"?>
<!DOCTYPE svg PUBLIC "-//W3C//DTD SVG 1.1//EN" "http://www.w3.org/Graphics/SVG/1.1/DTD/svg11.dtd">
<!-- Creator: CorelDRAW 2018 (64-Bit) -->
<svg xmlns="http://www.w3.org/2000/svg" xml:space="preserve" width="13.7256mm" height="13.7256mm" version="1.1" shape-rendering="geometricPrecision" text-rendering="geometricPrecision" image-rendering="optimizeQuality" fill-rule="evenodd" clip-rule="evenodd"
viewBox="0 0 3309.65 3309.65"
 xmlns:xlink="http://www.w3.org/1999/xlink">
 <g id="Layer_x0020_1">
  <metadata id="CorelCorpID_0Corel-Layer"/>
  <g id="_3036602845984">
   <g>
    <rect fill="#84C3D3" x="223.51" y="447.76" width="2862.64" height="2414.13" rx="257.14" ry="251.1"/>
    <g>
     <path fill="white" d="M574.37 1683.16c-150.83,0 -290.8,43.98 -406.59,119.17l0 1131.67c115.79,75.18 255.77,119.17 406.59,119.17 156.73,0 301.8,-47.53 420.1,-128.14l0 -1113.73c-118.3,-80.61 -263.36,-128.14 -420.1,-128.14z"/>
     <path fill="#6B6A6A" fill-rule="nonzero" d="M574.37 1702.79c-72.17,0 -141.62,10.32 -206.82,29.39 -64.04,18.78 -124.28,46.1 -179.11,80.54l0 1110.89c54.83,34.43 115.07,61.75 179.11,80.54 65.2,19.07 134.65,29.39 206.82,29.39 74.89,0 147.04,-11.14 214.44,-31.68 66.58,-20.28 128.84,-49.84 184.99,-86.9l0 -1093.57c-56.16,-37.06 -118.42,-66.62 -184.99,-86.9 -67.4,-20.54 -139.54,-31.68 -214.44,-31.68zm-218.92 -8.01c69.28,-20.28 142.85,-31.25 218.92,-31.25 79.04,0 155.36,11.84 227,33.66 74.05,22.57 143.21,56.01 205.15,98.24l8.61 5.91 0 1133.67 -8.61 5.88c-61.95,42.22 -131.1,75.67 -205.15,98.24 -71.64,21.82 -147.96,33.66 -227,33.66 -76.08,0 -149.65,-10.97 -218.92,-31.25 -71.69,-21.03 -138.77,-52.08 -199.29,-91.39l-9.04 -5.86 0 -1152.22 9.04 -5.91c60.52,-39.3 127.61,-70.36 199.29,-91.39z"/>
     <path fill="#6B6A6A" fill-rule="nonzero" d="M326.44 1946.11c-11.41,0 -20.66,-8.83 -20.66,-19.63 0,-10.83 9.26,-19.63 20.66,-19.63l534.42 0c11.38,0 20.66,8.8 20.66,19.63 0,10.8 -9.28,19.63 -20.66,19.63l-534.42 0z"/>
     <path fill="#6B6A6A" fill-rule="nonzero" d="M326.44 2121.63c-11.41,0 -20.66,-8.8 -20.66,-19.63 0,-10.83 9.26,-19.63 20.66,-19.63l534.42 0c11.38,0 20.66,8.8 20.66,19.63 0,10.83 -9.28,19.63 -20.66,19.63l-534.42 0z"/>
     <path fill="#6B6A6A" fill-rule="nonzero" d="M326.44 2297.15c-11.41,0 -20.66,-8.8 -20.66,-19.63 0,-10.83 9.26,-19.63 20.66,-19.63l534.42 0c11.38,0 20.66,8.8 20.66,19.63 0,10.83 -9.28,19.63 -20.66,19.63l-534.42 0z"/>
     <path fill="#6B6A6A" fill-rule="nonzero" d="M326.44 2472.67c-11.41,0 -20.66,-8.8 -20.66,-19.63 0,-10.8 9.26,-19.63 20.66,-19.63l534.42 0c11.38,0 20.66,8.83 20.66,19.63 0,10.83 -9.28,19.63 -20.66,19.63l-534.42 0z"/>
     <path fill="#6B6A6A" fill-rule="nonzero" d="M326.44 2648.21c-11.41,0 -20.66,-8.83 -20.66,-19.63 0,-10.83 9.26,-19.63 20.66,-19.63l534.42 0c11.38,0 20.66,8.8 20.66,19.63 0,10.8 -9.28,19.63 -20.66,19.63l-534.42 0z"/>
     <path fill="#6B6A6A" fill-rule="nonzero" d="M326.44 2823.73c-11.41,0 -20.66,-8.8 -20.66,-19.63 0,-10.83 9.26,-19.63 20.66,-19.63l534.42 0c11.38,0 20.66,8.8 20.66,19.63 0,10.83 -9.28,19.63 -20.66,19.63l-534.42 0z"/>
     <g>
      <polygon fill="#EEEDA0" points="167.78,1802.33 32.67,1802.33 32.67,2934 167.78,2934 "/>
      <path fill="#6B6A6A" fill-rule="nonzero" d="M147.11 1821.95l-93.75 0 0 1092.42 93.75 0 0 -1092.42zm-114.42 -39.26l155.75 0 0 1170.93 -176.41 0 0 -1170.93 20.66 0z"/>
     </g>
     <path fill="white" d="M1401.06 1683.16c-150.85,0 -290.8,43.98 -406.59,119.17l0 1131.67c115.79,75.18 255.74,119.17 406.59,119.17 156.73,0 301.8,-47.53 420.1,-128.14l0 -1113.73c-118.3,-80.61 -263.36,-128.14 -420.1,-128.14z"/>
     <path fill="#6B6A6A" fill-rule="nonzero" d="M1401.06 1702.79c-72.17,0 -141.64,10.32 -206.84,29.39 -64.02,18.78 -124.28,46.1 -179.09,80.54l0 1110.89c54.81,34.43 115.07,61.75 179.09,80.54 65.2,19.07 134.67,29.39 206.84,29.39 74.89,0 147.02,-11.14 214.44,-31.68 66.58,-20.28 128.84,-49.84 184.99,-86.9l0 -1093.57c-56.16,-37.06 -118.42,-66.62 -184.99,-86.9 -67.42,-20.54 -139.54,-31.68 -214.44,-31.68zm-218.95 -8.01c69.3,-20.28 142.87,-31.25 218.95,-31.25 79.02,0 155.36,11.84 227,33.66 74.05,22.57 143.18,56.01 205.13,98.24l8.63 5.91 0 1133.67 -8.63 5.88c-61.95,42.22 -131.08,75.67 -205.13,98.24 -71.64,21.82 -147.98,33.66 -227,33.66 -76.08,0 -149.65,-10.97 -218.95,-31.25 -71.66,-21.03 -138.75,-52.08 -199.27,-91.39l-9.04 -5.86 0 -1152.22 9.04 -5.91c60.52,-39.3 127.61,-70.36 199.27,-91.39z"/>
     <path fill="#6B6A6A" fill-rule="nonzero" d="M1153.13 1946.11c-11.41,0 -20.69,-8.83 -20.69,-19.63 0,-10.83 9.28,-19.63 20.69,-19.63l534.39 0c11.41,0 20.69,8.8 20.69,19.63 0,10.8 -9.28,19.63 -20.69,19.63l-534.39 0z"/>
     <path fill="#6B6A6A" fill-rule="nonzero" d="M1153.13 2121.63c-11.41,0 -20.69,-8.8 -20.69,-19.63 0,-10.83 9.28,-19.63 20.69,-19.63l534.39 0c11.41,0 20.69,8.8 20.69,19.63 0,10.83 -9.28,19.63 -20.69,19.63l-534.39 0z"/>
     <path fill="#6B6A6A" fill-rule="nonzero" d="M1153.13 2297.15c-11.41,0 -20.69,-8.8 -20.69,-19.63 0,-10.83 9.28,-19.63 20.69,-19.63l534.39 0c11.41,0 20.69,8.8 20.69,19.63 0,10.83 -9.28,19.63 -20.69,19.63l-534.39 0z"/>
     <path fill="#6B6A6A" fill-rule="nonzero" d="M1153.13 2472.67c-11.41,0 -20.69,-8.8 -20.69,-19.63 0,-10.8 9.28,-19.63 20.69,-19.63l534.39 0c11.41,0 20.69,8.83 20.69,19.63 0,10.83 -9.28,19.63 -20.69,19.63l-534.39 0z"/>
     <path fill="#6B6A6A" fill-rule="nonzero" d="M1153.13 2648.21c-11.41,0 -20.69,-8.83 -20.69,-19.63 0,-10.83 9.28,-19.63 20.69,-19.63l534.39 0c11.41,0 20.69,8.8 20.69,19.63 0,10.8 -9.28,19.63 -20.69,19.63l-534.39 0z"/>
     <path fill="#6B6A6A" fill-rule="nonzero" d="M1153.13 2823.73c-11.41,0 -20.69,-8.8 -20.69,-19.63 0,-10.83 9.28,-19.63 20.69,-19.63l534.39 0c11.41,0 20.69,8.8 20.69,19.63 0,10.83 -9.28,19.63 -20.69,19.63l-534.39 0z"/>
     <g>
      <polygon fill="#EEEDA0" points="1956.38,1802.33 1821.28,1802.33 1821.28,2934 1956.38,2934 "/>
      <path fill="#6B6A6A" fill-rule="nonzero" d="M1935.72 1821.95l-93.75 0 0 1092.42 93.75 0 0 -1092.42zm-114.42 -39.26l155.75 0 0 1170.93 -176.41 0 0 -1170.93 20.66 0z"/>
     </g>
    </g>
   </g>
   <g>
    <path fill="white" d="M2578.74 328.37c170.07,113.26 282.17,306.72 282.17,526.36 0,288.08 -192.76,531.11 -456.34,607.21l0 1186.31c0,100.17 -81.91,182.08 -182.08,182.08 -100.17,0 -182.08,-81.91 -182.08,-182.08l0 -1190.17c-256.92,-80.22 -443.41,-320 -443.41,-603.36 0,-222.03 114.54,-417.28 287.72,-530l0 502.8 184.37 184.37 325.28 0 184.37 -184.37 0 -499.16z"/>
    <path fill="#6B6A6A" fill-rule="nonzero" d="M2592.8 307.13c90.04,59.97 164.55,141.66 215.93,237.56 49.58,92.5 77.72,198.11 77.72,310.04 0,147.93 -49,284.58 -131.63,394.54 -80.8,107.52 -193.82,189.48 -324.71,231.48l0 1167.5c0,56.98 -23.34,108.87 -60.98,146.53 -37.76,37.74 -89.65,61.08 -146.63,61.08 -56.98,0 -108.87,-23.34 -146.53,-60.98 -37.74,-37.76 -61.08,-89.65 -61.08,-146.63l0 -1171.75c-127.68,-43.96 -237.61,-126.16 -316.02,-232.88 -80.08,-108.94 -127.39,-243.47 -127.39,-388.89 0,-113.19 28.77,-219.91 79.38,-313.13 52.42,-96.55 128.33,-178.56 220.01,-238.21l39.4 -25.66 0 539.26 169.37 169.37 304.21 0 169.37 -169.37 0 -536.25 39.59 26.38zm171.08 261.48c-39.59,-73.88 -94.16,-138.65 -159.6,-190.28l0 459.74 -199.37 199.37 -346.36 0 -199.37 -199.37 0 -464.08c-67.06,51.67 -123.05,117.07 -163.68,191.92 -46.51,85.67 -72.97,184.1 -72.97,288.83 0,134.29 43.6,258.37 117.41,358.8 75.67,102.99 183.23,181.26 308.04,220.22l17.96 5.59 0 1208.91c0,43.11 17.58,82.27 45.89,110.56 28.38,28.41 67.54,45.98 110.65,45.98 43.11,0 82.27,-17.58 110.56,-45.89 28.41,-28.38 45.98,-67.54 45.98,-110.65l0 -1205.43 18.45 -5.3c128.02,-36.94 238.67,-114.97 316.68,-218.78 76.08,-101.25 121.22,-227.31 121.22,-364.01 0,-103.61 -25.9,-201.03 -71.5,-286.12z"/>
   </g>
   <g>
    <path fill="white" d="M3230.97 1481.84l0 1166.42c0,100.17 -81.91,182.08 -182.08,182.08 -100.17,0 -182.08,-81.91 -182.08,-182.08l0 -1166.42 121.89 0 0 -851.29 -79.07 0 73.79 -363.7 130.91 0 73.79 363.7 -79.07 0 0 851.29 121.92 0z"/>
    <path fill="#6B6A6A" fill-rule="nonzero" d="M3256.51 1481.84l0 1166.42c0,56.98 -23.34,108.87 -60.98,146.53 -37.76,37.74 -89.65,61.08 -146.63,61.08 -56.98,0 -108.87,-23.34 -146.53,-60.98 -37.74,-37.76 -61.08,-89.65 -61.08,-146.63l0 -1191.95 121.89 0 0 -800.21 -84.64 0 84.13 -414.77 172.46 0 84.13 414.77 -84.66 0 0 800.21 121.92 0 0 25.54zm-51.07 1166.42l0 -1140.88 -121.92 0 0 -902.36 73.47 0 -63.42 -312.63 -89.39 0 -63.42 312.63 73.47 0 0 902.36 -121.89 0 0 1140.88c0,43.11 17.58,82.27 45.89,110.56 28.38,28.41 67.54,45.98 110.65,45.98 43.11,0 82.27,-17.58 110.56,-45.89 28.41,-28.38 45.98,-67.54 45.98,-110.65z"/>
   </g>
  </g>
  <rect fill="none" width="3309.65" height="3309.65"/>
 </g>
</svg>
