<?xml version="1.0" encoding="UTF-8"?>
<!DOCTYPE svg PUBLIC "-//W3C//DTD SVG 1.1//EN" "http://www.w3.org/Graphics/SVG/1.1/DTD/svg11.dtd">
<!-- Creator: CorelDRAW 2018 (64-Bit) -->
<svg xmlns="http://www.w3.org/2000/svg" xml:space="preserve" width="13.7256mm" height="13.7256mm" version="1.1" shape-rendering="geometricPrecision" text-rendering="geometricPrecision" image-rendering="optimizeQuality" fill-rule="evenodd" clip-rule="evenodd"
viewBox="0 0 3309.65 3309.65"
 xmlns:xlink="http://www.w3.org/1999/xlink">
 <g id="Layer_x0020_1">
  <metadata id="CorelCorpID_0Corel-Layer"/>
  <rect fill="none" width="3309.65" height="3309.65"/>
  <g id="_3036602291872">
   <rect fill="#84C3D3" x="223.51" y="447.76" width="2862.64" height="2414.13" rx="257.14" ry="251.1"/>
   <rect fill="white" transform="matrix(0.812479 0.58299 -0.58299 0.812479 702.077 262.891)" width="209.98" height="699.04" rx="104.99" ry="104.99"/>
   <path fill="#6B6A6A" fill-rule="nonzero" d="M802.26 303.34c29.18,20.93 47.12,51.92 52.54,84.9 5.43,32.99 -1.66,68.1 -22.59,97.25l-285.11 397.36c-20.93,29.18 -51.92,47.12 -84.9,52.54 -32.96,5.43 -68.07,-1.66 -97.25,-22.59 -29.15,-20.91 -47.12,-51.92 -52.54,-84.9 -5.43,-32.96 1.66,-68.07 22.59,-97.25l285.11 -397.33c20.93,-29.15 51.92,-47.14 84.9,-52.57 32.99,-5.4 68.1,1.69 97.25,22.59zm2.22 93.17c-3.3,-20.04 -14.25,-38.94 -32,-51.67 -17.72,-12.71 -39.14,-17.05 -59.2,-13.74 -20.04,3.3 -38.94,14.25 -51.67,31.97l-285.11 397.36c-12.73,17.75 -17.05,39.14 -13.74,59.2 3.3,20.06 14.25,38.97 31.97,51.67 17.75,12.73 39.14,17.05 59.2,13.74 20.06,-3.28 38.94,-14.23 51.67,-31.97l285.11 -397.36c12.73,-17.72 17.05,-39.14 13.77,-59.2z"/>
   <path fill="white" d="M811.47 470.61l704 505.14 -298.28 415.71 -239.73 -172 -687.22 957.74c-29.39,40.99 -86.98,50.44 -127.97,21.05 -40.97,-29.42 -50.44,-87 -21.03,-127.97l687.22 -957.74 -315.3 -226.23 298.3 -415.71z"/>
   <path fill="#6B6A6A" fill-rule="nonzero" d="M826.35 449.85l724.76 520.05 -328.06 457.21 -239.73 -172 -672.32 936.98c-18.81,26.21 -46.63,42.34 -76.25,47.21 -29.63,4.87 -61.17,-1.52 -87.36,-20.3 -26.19,-18.78 -42.34,-46.63 -47.21,-76.25 -4.87,-29.61 1.52,-61.15 20.3,-87.36l672.34 -936.98 -315.28 -226.23 328.06 -457.21 20.74 14.88zm653.51 531.76l-662.53 -475.39 -268.52 374.23 315.28 226.23 -702.1 978.48c-10.61,14.78 -14.2,32.58 -11.45,49.29 2.75,16.73 11.86,32.46 26.64,43.04 14.76,10.61 32.58,14.2 49.29,11.45 16.73,-2.75 32.43,-11.86 43.04,-26.64l702.1 -978.48 239.73 172.02 268.52 -374.23z"/>
   <rect fill="white" transform="matrix(0.812479 0.58299 -0.58299 0.812479 1576.69 890.466)" width="209.98" height="699.04" rx="104.99" ry="104.99"/>
   <path fill="#6B6A6A" fill-rule="nonzero" d="M1676.89 930.93c29.15,20.93 47.12,51.92 52.54,84.88 5.43,32.99 -1.69,68.12 -22.59,97.25l-285.11 397.36c-20.93,29.18 -51.92,47.12 -84.9,52.54 -32.99,5.43 -68.07,-1.66 -97.25,-22.59 -29.15,-20.91 -47.12,-51.92 -52.54,-84.88 -5.43,-32.99 1.66,-68.07 22.59,-97.25l285.11 -397.36c20.91,-29.15 51.92,-47.12 84.9,-52.54 32.96,-5.43 68.1,1.66 97.25,22.59zm2.19 93.17c-3.3,-20.06 -14.23,-38.94 -31.97,-51.67 -17.72,-12.73 -39.14,-17.05 -59.2,-13.74 -20.06,3.28 -38.97,14.25 -51.67,31.97l-285.11 397.36c-12.76,17.75 -17.05,39.14 -13.77,59.17 3.3,20.06 14.25,38.97 32,51.7 17.75,12.73 39.14,17.05 59.2,13.74 20.04,-3.3 38.94,-14.23 51.67,-32l285.11 -397.33c12.73,-17.75 17.05,-39.16 13.74,-59.2z"/>
   <g>
    <g>
     <g>
      <path fill="white" d="M985.67 1513.36l0 770.39 201.97 -478.33 -201.97 -292.06zm0 0l0 770.39 -201.97 -478.31 201.97 -292.08z"/>
      <path fill="#6B6A6A" fill-rule="nonzero" d="M1004.72 1574.12l-0.02 615.6 161.39 -382.22 -161.36 -233.39zm-38.1 709.62l0.02 -770.39c0.02,-5.98 2.94,-11.86 8.37,-15.46 8.68,-5.79 20.52,-3.54 26.4,4.97l201.08 290.78c4.24,5.16 5.52,12.39 2.77,18.95l-201.99 478.33c-2.89,6.75 -9.69,11.5 -17.6,11.5 -10.51,0 -19.05,-8.37 -19.05,-18.69zm38.1 -770.39l-0.02 770.39c0,10.32 -8.54,18.69 -19.03,18.69 -7.93,0 -14.73,-4.75 -17.6,-11.53l-201.99 -478.28c-2.77,-6.56 -1.47,-13.79 2.75,-18.95l201.1 -290.8c5.88,-8.51 17.75,-10.75 26.43,-4.97 5.43,3.59 8.34,9.48 8.37,15.46zm-38.1 676.37l0.02 -615.58 -161.41 233.39 161.39 382.19z"/>
     </g>
     <g>
      <path fill="white" d="M434.35 1735.58l551.32 548.16 -198.59 -479.7 -352.72 -68.46zm0 0l551.32 548.16 -486 -200.98 -65.32 -347.18z"/>
      <path fill="#6B6A6A" fill-rule="nonzero" d="M491.4 1765.7l440.52 438.01 -158.69 -383.3 -281.83 -54.71zm480.72 531.16l-551.3 -548.14c-4.27,-4.27 -6.41,-10.47 -5.11,-16.76 2.03,-10.13 12.06,-16.71 22.35,-14.68l351.16 68.14c6.7,0.77 12.8,4.99 15.53,11.57l198.59 479.68c2.75,6.82 1.33,14.88 -4.32,20.35 -7.48,7.26 -19.53,7.19 -26.91,-0.17zm-524.22 -574.4l551.3 548.14c7.38,7.35 7.31,19.17 -0.17,26.43 -5.64,5.47 -13.86,6.78 -20.76,3.93l-486 -200.93c-6.66,-2.75 -10.9,-8.78 -11.6,-15.38l-65.01 -345.64c-1.93,-10.13 4.92,-19.89 15.22,-21.77 6.44,-1.18 12.73,0.99 17.02,5.23zm456.94 507.53l-440.52 -438.01 52.18 277.4 388.34 160.62z"/>
     </g>
     <g>
      <path fill="white" d="M201.08 2287.31l784.59 -3.57 -488.1 -196.11 -296.49 199.68zm0 0l784.59 -3.57 -486.19 200.52 -298.4 -196.95z"/>
      <path fill="#6B6A6A" fill-rule="nonzero" d="M262.88 2268.33l626.96 -2.85 -390.03 -156.71 -236.93 159.56zm722.86 34.1l-784.56 3.57c-6.1,0 -12.1,-2.85 -15.79,-8.15 -5.93,-8.49 -3.71,-20.13 4.94,-25.97l295.22 -198.76c5.23,-4.2 12.59,-5.5 19.27,-2.82l488.07 196.11c6.9,2.82 11.77,9.45 11.82,17.24 0.05,10.32 -8.44,18.74 -18.95,18.78zm-784.76 -33.81l784.59 -3.57c10.51,-0.05 19.07,8.27 19.12,18.59 0.02,7.79 -4.77,14.47 -11.67,17.34l-486.14 200.55c-6.68,2.75 -14.03,1.52 -19.31,-2.63l-297.1 -196.09c-8.7,-5.74 -11.04,-17.36 -5.18,-25.92 3.64,-5.33 9.62,-8.22 15.7,-8.27zm689.03 34.24l-626.94 2.85 238.43 157.39 388.51 -160.23z"/>
     </g>
     <g>
      <path fill="white" d="M432.37 2829.95l553.3 -546.21 -486.74 199.29 -66.55 346.91zm0 0l553.3 -546.21 -200.33 478.96 -352.97 67.25z"/>
      <path fill="#6B6A6A" fill-rule="nonzero" d="M462.51 2773.67l442.14 -436.47 -388.94 159.27 -53.19 277.2zm536.63 -476.76l-553.27 546.21c-4.32,4.24 -10.61,6.39 -17.05,5.18 -10.3,-1.93 -17.1,-11.69 -15.14,-21.82l66.26 -345.39c0.7,-6.61 4.97,-12.61 11.65,-15.36l486.72 -199.29c6.92,-2.77 15.14,-1.45 20.76,4.05 7.45,7.28 7.5,19.12 0.07,26.43zm-580.28 519.85l553.3 -546.21c7.4,-7.31 19.46,-7.35 26.91,-0.07 5.62,5.5 7.02,13.55 4.2,20.35l-200.26 478.98c-2.77,6.58 -8.87,10.78 -15.58,11.53l-351.42 66.94c-10.3,1.98 -20.3,-4.65 -22.3,-14.76 -1.25,-6.29 0.89,-12.51 5.16,-16.76zm512.79 -453.2l-442.14 436.47 282.05 -53.72 160.09 -382.75z"/>
     </g>
     <g>
      <path fill="white" d="M987.69 3054.1l-2.03 -770.36 -200.72 478.84 202.74 291.53zm0 0l-2.03 -770.36 203.22 477.77 -201.2 292.59z"/>
      <path fill="#6B6A6A" fill-rule="nonzero" d="M968.5 2993.39l-1.62 -615.6 -160.38 382.65 161.99 232.96zm36.19 -709.69l2.05 770.36c0,5.98 -2.92,11.86 -8.32,15.48 -8.68,5.81 -20.52,3.62 -26.45,-4.89l-201.85 -290.27c-4.24,-5.16 -5.55,-12.37 -2.8,-18.93l200.69 -478.84c2.89,-6.78 9.67,-11.55 17.58,-11.55 10.51,-0.05 19.07,8.32 19.1,18.64zm-36.02 770.46l-2.05 -770.36c-0.02,-10.32 8.49,-18.71 18.98,-18.74 7.93,-0.02 14.73,4.7 17.63,11.48l203.27 477.75c2.8,6.56 1.52,13.77 -2.7,18.95l-200.31 291.31c-5.88,8.54 -17.72,10.8 -26.43,5.06 -5.43,-3.59 -8.37,-9.48 -8.39,-15.46zm36.27 -676.47l1.64 615.58 160.76 -233.8 -162.4 -381.78z"/>
     </g>
     <g>
      <path fill="white" d="M1544.29 2824.67l-558.63 -540.93 205.03 477.05 353.59 63.88zm0 0l-558.63 -540.93 488.65 194.64 69.98 346.29z"/>
      <path fill="#6B6A6A" fill-rule="nonzero" d="M1486.86 2795.3l-446.4 -432.25 163.85 381.23 282.56 51.02zm-487.83 -524.87l558.63 540.93c4.32,4.22 6.53,10.39 5.33,16.71 -1.9,10.13 -11.84,16.85 -22.16,14.97l-352.05 -63.59c-6.7,-0.68 -12.85,-4.85 -15.67,-11.38l-205.03 -477.05c-2.85,-6.78 -1.52,-14.88 4.03,-20.42 7.4,-7.33 19.44,-7.43 26.93,-0.17zm531.88 567.55l-558.63 -540.93c-7.48,-7.26 -7.57,-19.1 -0.19,-26.45 5.57,-5.52 13.79,-6.94 20.71,-4.2l488.67 194.62c6.7,2.68 11.02,8.66 11.79,15.22l69.66 344.79c2.05,10.1 -4.63,19.94 -14.93,21.97 -6.41,1.25 -12.73,-0.82 -17.1,-5.02zm-463.72 -501.55l446.38 432.25 -55.92 -276.7 -390.46 -155.55z"/>
     </g>
     <g>
      <path fill="white" d="M1770.23 2280.78l-784.56 2.97 487.9 196.47 296.66 -199.44zm0 0l-784.56 2.97 486.34 -200.16 298.23 197.2z"/>
      <path fill="#6B6A6A" fill-rule="nonzero" d="M1708.41 2299.7l-626.94 2.36 389.88 157 237.05 -159.36zm-722.84 -34.65l784.59 -2.97c6.08,-0.02 12.1,2.85 15.77,8.15 5.93,8.49 3.71,20.13 -4.97,25.95l-295.36 198.57c-5.23,4.17 -12.59,5.47 -19.27,2.77l-487.93 -196.45c-6.9,-2.85 -11.77,-9.48 -11.79,-17.26 -0.05,-10.32 8.46,-18.74 18.95,-18.76zm784.73 34.41l-784.56 2.97c-10.51,0.02 -19.07,-8.29 -19.12,-18.62 -0.02,-7.79 4.77,-14.47 11.67,-17.31l486.31 -200.21c6.68,-2.72 14.03,-1.47 19.31,2.65l296.93 196.33c8.7,5.74 11.04,17.36 5.18,25.92 -3.64,5.33 -9.62,8.22 -15.72,8.27zm-688.98 -34.8l626.94 -2.36 -238.31 -157.55 -388.63 159.92z"/>
     </g>
     <g>
      <path fill="white" d="M1541.16 1739.68l-555.49 544.06 487.52 -197.39 67.97 -346.67zm0 0l-555.49 544.06 202.24 -478.18 353.26 -65.88z"/>
      <path fill="#6B6A6A" fill-rule="nonzero" d="M1510.78 1795.84l-443.9 434.73 389.59 -157.72 54.3 -277.01zm-538.56 474.66l555.49 -544.04c4.32,-4.22 10.63,-6.34 17.05,-5.11 10.32,1.95 17.07,11.77 15.07,21.87l-67.66 345.15c-0.72,6.58 -5.02,12.59 -11.69,15.29l-487.54 197.39c-6.92,2.75 -15.14,1.4 -20.74,-4.12 -7.43,-7.31 -7.43,-19.15 0.02,-26.43zm582.38 -517.59l-555.49 544.04c-7.45,7.31 -19.51,7.28 -26.91,-0.02 -5.62,-5.5 -6.97,-13.58 -4.12,-20.38l202.21 -478.18c2.77,-6.56 8.9,-10.75 15.6,-11.45l351.71 -65.59c10.3,-1.93 20.28,4.73 22.23,14.85 1.25,6.32 -0.94,12.51 -5.23,16.73zm-514.6 451.2l443.87 -434.73 -282.24 52.61 -161.63 382.12z"/>
     </g>
    </g>
    <path id="path3943" fill="#84C3D3" fill-rule="nonzero" d="M741.91 1948.57l0 501.09c0.05,36.17 21.61,70.65 57.63,86.18l188.44 81.38 188.47 -81.38c36,-15.53 57.58,-50.01 57.63,-86.18l0 -501.09 -492.17 0z" color="#000000" color-rendering="auto" dominant-baseline="auto" solid-color="#000000"/>
    <path id="path3949" fill="#EEEDA0" fill-rule="nonzero" d="M988.01 1998.36c-13.5,15.02 -21.73,34.72 -21.73,56.3 0.82,47.43 6.73,94.74 7.26,142.17 1.06,44.18 -12.44,85.67 -28.84,126.16 -5.47,11.16 -11.38,22.14 -17.31,33.08l-17.41 -3.45c-15.67,-3.06 -25.87,-18.04 -22.74,-33.42 2.75,-13.46 14.81,-22.81 28.28,-22.88l6.32 0.68 -14.13 -115.96c-4.63,-51.63 -31.73,-96.91 -71.69,-126.38 -6.87,-5.06 -14.13,-9.69 -21.7,-13.77l0 411.8 96.79 0c7.23,38.58 28.86,72.19 59.25,95.27 7.23,4.89 13.29,11.36 17.65,18.88 4.36,-7.52 10.42,-13.99 17.65,-18.88 30.38,-23.08 52.01,-56.69 59.25,-95.27l96.79 0 0 -411.8c-7.57,4.08 -14.83,8.7 -21.7,13.77 -39.96,29.47 -67.08,74.75 -71.69,126.38l-14.13 115.96 6.32 -0.68c13.48,0.07 25.54,9.43 28.28,22.88 3.13,15.38 -7.07,30.36 -22.74,33.42l-17.41 3.45c-5.91,-10.95 -11.84,-21.92 -17.31,-33.08 -16.4,-40.49 -29.9,-81.98 -28.82,-126.16 0.51,-47.41 6.44,-94.74 7.23,-142.17 0,-21.58 -8.22,-41.28 -21.73,-56.3l0 0zm-144.75 101.83c18.74,21.61 31.3,48.52 35.06,78.08l11.65 95.63c-14.83,7.23 -26.09,20.54 -30.31,36.63l-16.4 0 0 -210.34zm289.48 0l0 210.36 -16.37 0c-4.24,-16.11 -15.48,-29.39 -30.31,-36.65l11.65 -95.63c3.74,-29.56 16.32,-56.47 35.06,-78.05l-0.02 -0.02zm-144.73 192.25c7.76,24.98 18.47,48.68 31.78,70.75 -12.66,3.76 -23.68,11.12 -31.78,20.98 -8.13,-9.86 -19.12,-17.22 -31.78,-20.98 13.31,-22.04 23.99,-45.77 31.78,-70.75zm-144.75 46.54l16.4 0c5.16,19.6 20.76,35.11 40.61,40.53l13.89 3.11c-3.71,13.26 -5.76,27.22 -5.76,41.64l-65.13 0 0 -85.29zm273.1 0l16.4 0 0 85.29 -65.15 0c0,-14.42 -2.03,-28.38 -5.76,-41.64l13.91 -3.11c19.82,-5.43 35.42,-20.93 40.61,-40.53zm-173.93 50.18c17.55,2.46 31.08,17.19 31.08,35.11l-36.17 0c0,-12.2 1.83,-23.94 5.09,-35.11zm91.15 0c3.23,11.16 5.09,22.93 5.09,35.11l-36.19 0c0,-17.92 13.53,-32.65 31.11,-35.11zm-92.96 63.54l32.89 0 0 59.87c-15.96,-16.4 -27.56,-36.99 -32.91,-59.87l0.02 0zm61.85 0l32.91 0c-5.35,22.88 -16.95,43.48 -32.91,59.87l0 -59.87z"/>
   </g>
   <g>
    <rect fill="#EEEDA0" x="1602.08" y="375.57" width="1650.22" height="2193.49"/>
    <path fill="#6B6A6A" fill-rule="nonzero" d="M2434.23 61.9c31.85,0 60.76,13 81.69,33.9 21.05,20.95 34,49.89 34,81.79 0,27.75 -9.79,53.24 -26.11,73.18l227.1 0 0 197 -633.35 0 0 -197 227.14 0c-16.3,-19.99 -26.16,-45.48 -26.16,-73.18 0,-31.83 13,-60.76 33.9,-81.69 21.03,-21 49.96,-34 81.79,-34zm45.74 69.95c-11.65,-11.67 -27.85,-18.88 -45.74,-18.88 -17.89,0 -34.1,7.21 -45.77,18.86 -11.65,11.67 -18.86,27.87 -18.86,45.77 0,17.89 7.21,34.1 18.86,45.77 11.72,11.62 27.92,18.86 45.77,18.86 17.87,0 34.05,-7.23 45.72,-18.9 11.67,-11.67 18.9,-27.85 18.9,-45.72 0,-17.84 -7.23,-34.05 -18.88,-45.74z"/>
    <path fill="#6B6A6A" fill-rule="nonzero" d="M2029.78 343.13c14.08,0 25.54,11.45 25.54,25.54 0,14.08 -11.45,25.54 -25.54,25.54l-413.63 0 0 2174.87 1636.16 0 0 -2174.87 -426.63 0c-14.08,0 -25.54,-11.45 -25.54,-25.54 0,-14.08 11.45,-25.54 25.54,-25.54l477.7 0 0 2277.01 -1738.31 0 0 -2277.01 464.71 0z"/>
    <path fill="#6B6A6A" fill-rule="nonzero" d="M1865.6 782.51c-14.08,0 -25.54,-11.45 -25.54,-25.54 0,-14.08 11.45,-25.54 25.54,-25.54l1162.68 0c14.08,0 25.54,11.45 25.54,25.54 0,14.08 -11.45,25.54 -25.54,25.54l-1162.68 0z"/>
    <path fill="#6B6A6A" fill-rule="nonzero" d="M1865.6 1011.18c-14.08,0 -25.54,-11.45 -25.54,-25.54 0,-14.08 11.45,-25.54 25.54,-25.54l1162.68 0c14.08,0 25.54,11.45 25.54,25.54 0,14.08 -11.45,25.54 -25.54,25.54l-1162.68 0z"/>
    <path fill="#6B6A6A" fill-rule="nonzero" d="M1865.6 1239.87c-14.08,0 -25.54,-11.45 -25.54,-25.54 0,-14.08 11.45,-25.54 25.54,-25.54l1162.68 0c14.08,0 25.54,11.45 25.54,25.54 0,14.08 -11.45,25.54 -25.54,25.54l-1162.68 0z"/>
    <path fill="#6B6A6A" fill-rule="nonzero" d="M1865.6 1468.53c-14.08,0 -25.54,-11.45 -25.54,-25.54 0,-14.08 11.45,-25.54 25.54,-25.54l1162.68 0c14.08,0 25.54,11.45 25.54,25.54 0,14.08 -11.45,25.54 -25.54,25.54l-1162.68 0z"/>
    <path fill="#6B6A6A" fill-rule="nonzero" d="M1865.6 1697.22c-14.08,0 -25.54,-11.45 -25.54,-25.54 0,-14.08 11.45,-25.54 25.54,-25.54l1162.68 0c14.08,0 25.54,11.45 25.54,25.54 0,14.08 -11.45,25.54 -25.54,25.54l-1162.68 0z"/>
    <path fill="#6B6A6A" fill-rule="nonzero" d="M1865.6 1925.88c-14.08,0 -25.54,-11.45 -25.54,-25.54 0,-14.08 11.45,-25.54 25.54,-25.54l753.53 0c14.08,0 25.54,11.45 25.54,25.54 0,14.08 -11.45,25.54 -25.54,25.54l-753.53 0z"/>
    <path fill="#6B6A6A" d="M2057.1 2020.93c127.77,0 231.36,103.59 231.36,231.36 0,127.77 -103.59,231.36 -231.36,231.36 -127.77,0 -231.36,-103.59 -231.36,-231.36 0,-127.77 103.59,-231.36 231.36,-231.36zm129.03 291.69l-199.7 0c-1.35,5.26 -2.05,11.38 -2.05,18.37 0,17.65 5.3,32.67 16.06,44.92 12.39,14.06 30.04,21.15 52.86,21.15 21.94,0 39.28,-6.75 51.99,-20.28 10.59,-10.9 17.17,-25.13 19.8,-42.68l41.98 7.93c-2.46,28.07 -13.91,50.18 -34.34,66.24 -20.35,16.06 -46.68,24.09 -78.95,24.09 -15.99,0 -31.81,-2.87 -47.45,-8.58 -15.67,-5.74 -28.07,-13.46 -37.21,-23.05 -18.45,-19.34 -27.68,-43.57 -27.68,-72.51 0,-4.94 0.41,-10.18 1.21,-15.6l-14.56 0 0 -39.11 29.42 0c9.45,-13.74 23.22,-24.55 41.35,-32.5 3.88,-1.66 19.87,-6.44 47.94,-14.23l-118.71 0 0 -39.11 185.4 0c2.94,-6.68 4.44,-14.47 4.44,-23.39 0,-14.61 -4.68,-27.18 -13.99,-37.59 -10.97,-12.49 -27.66,-18.69 -50.01,-18.69 -20.35,0 -35.45,5.57 -45.38,16.78 -7.88,8.9 -13.12,21.53 -15.58,38.07l-42.95 -6.51c3.74,-26.57 14.71,-47.48 32.99,-62.65 17.1,-14.32 39.45,-21.48 67.18,-21.48 34.75,0 60.74,7.64 78.08,22.84 21.07,18.52 31.64,42.68 31.64,72.58 0,6.99 -0.63,13.67 -1.83,20.04l28.07 0 0 39.11 -46.97 0c-5.88,6.68 -12.88,12.32 -20.91,16.85 -12.01,6.68 -37.86,15.34 -77.52,25.9 -4.53,1.28 -8.75,2.56 -12.56,3.98l157.96 0 0 39.11z"/>
   </g>
   <polygon fill="#6B6A6A" points="792.84,1118.41 846,1093.72 994.81,1200.47 983.33,1255.11 "/>
  </g>
 </g>
</svg>
