<?xml version="1.0" encoding="UTF-8"?>
<!DOCTYPE svg PUBLIC "-//W3C//DTD SVG 1.1//EN" "http://www.w3.org/Graphics/SVG/1.1/DTD/svg11.dtd">
<!-- Creator: CorelDRAW 2018 (64-Bit) -->
<svg xmlns="http://www.w3.org/2000/svg" xml:space="preserve" width="13.7256mm" height="13.7256mm" version="1.1" shape-rendering="geometricPrecision" text-rendering="geometricPrecision" image-rendering="optimizeQuality" fill-rule="evenodd" clip-rule="evenodd"
viewBox="0 0 3309.65 3309.65"
 xmlns:xlink="http://www.w3.org/1999/xlink">
 <g id="Layer_x0020_1">
  <metadata id="CorelCorpID_0Corel-Layer"/>
  <rect fill="none" width="3309.65" height="3309.65"/>
  <path fill="#84C3D3" d="M510.28 445.51l2294.59 0c138.19,0 251.19,113.02 251.19,251.19l0 1912.67c0,138.14 -112.99,251.16 -251.19,251.16l-868.6 0 -222.54 -132.38 -221.72 132.38 -981.74 0c-138.17,0 -251.19,-113.02 -251.19,-251.16l0 -1912.67c0,-138.17 113.02,-251.19 251.19,-251.19z"/>
  <g id="_3036615333632">
   <path fill="white" d="M1146.69 278.34c-577.53,718.66 1889.54,967.61 767.08,2579.61l-1439.23 0c-48.35,-6.97 -92.35,-27.8 -127.8,-58.35 1702.98,-1045.37 -253.57,-1480.13 349.35,-2521.25l450.6 0z"/>
   <path fill="#6B6A6A" fill-rule="nonzero" d="M1162.73 278.34c-225.12,278.63 37.4,498.2 356,752.18 480.38,383.01 1083.11,863.82 418.84,1827.43l-47.04 0c667.66,-948.94 75.67,-1421.51 -395.69,-1797.33 -326.68,-260.42 -597.35,-486.65 -380.7,-782.27l48.59 0zm-830.45 2507.82c975.85,-597.54 738.8,-990.88 482.6,-1415.14 -189.55,-313.98 -389.06,-654.35 -146.9,-1092.68l44.18 0c-247.38,428.01 -50.95,763.78 135.66,1072.84 265.7,439.99 511.41,847.96 -484.84,1461.27 -10.92,-7.93 -21.2,-16.73 -30.7,-26.28z"/>
   <path fill="#6B6A6A" fill-rule="nonzero" d="M1525.97 2305.35l-10.01 23.65 47.31 20.01c45.19,-106.84 72.48,-186.32 85.43,-302.21l-51 -5.71c-10.9,97.39 -33.16,174.22 -71.74,264.25zm54.11 -484.14l6.44 24.84 49.67 -12.88c-29.44,-113.81 -63.9,-188.68 -126.79,-287.72l-43.36 27.54c47.57,74.94 93.92,161.1 114.03,248.22zm-252.32 -428.39l16.76 19.44 38.89 -33.54c-67.37,-78.05 -136.96,-153.24 -206.21,-229.68l-38.03 34.46c62.96,69.52 127.56,138.14 188.59,209.32zm-337.82 -389.11l15.17 20.71 41.43 -30.31c-64.91,-88.69 -108.32,-157.07 -145.09,-261.58l-48.42 17.05c33.54,95.25 76.49,173.2 136.91,254.13zm-162.98 -493.4l-2.58 25.54 51.07 5.16c10.71,-106.02 30.58,-171.15 73.4,-262.66l-56.47 0c-33.18,74.29 -57.99,148.46 -65.42,231.97z"/>
  </g>
  <g id="_3036615335584">
   <path fill="#F8B8B6" d="M954.15 1789.96l287.79 498.46 287.81 498.51c32.58,56.4 32.58,120.97 0,177.38 -32.58,56.4 -88.49,88.69 -153.62,88.69l-575.6 0 -575.6 0c-65.13,0 -121.05,-32.29 -153.62,-88.69 -32.58,-56.4 -32.58,-120.97 0,-177.38l287.81 -498.51 287.81 -498.46c32.55,-56.4 88.47,-88.69 153.6,-88.69 65.13,0 121.05,32.29 153.62,88.69z"/>
   <path fill="white" d="M848.27 1851.08c-10.73,-18.54 -26.31,-27.56 -47.74,-27.56 -21.44,0 -37.01,9.02 -47.74,27.56l-575.6 996.98c-10.73,18.57 -10.73,36.56 0,55.1 10.71,18.57 26.31,27.59 47.74,27.59l1151.2 0c21.46,0 37.04,-9.02 47.77,-27.59 10.71,-18.54 10.71,-36.53 0,-55.1l-575.63 -996.98z"/>
   <g>
    <path fill="#6B6A6A" fill-rule="nonzero" d="M973.25 1778.89l575.65 996.95c18.28,31.78 27.44,65.8 27.44,99.78 0,34 -9.16,68.1 -27.44,99.76 -18.25,31.59 -43.19,56.52 -72.7,73.57 -29.66,17.07 -63.71,26.21 -100.07,26.21l-1151.2 0c-36.36,0 -70.39,-9.14 -100,-26.21 -29.59,-17.05 -54.5,-41.98 -72.75,-73.57 -18.3,-31.66 -27.46,-65.76 -27.46,-99.76 0,-33.98 9.16,-68 27.46,-99.68l575.6 -997.05c18.33,-31.61 43.23,-56.57 72.68,-73.57 29.68,-17.07 63.71,-26.21 100.07,-26.21 36.39,0 70.41,9.14 100,26.21 29.54,17 54.42,41.96 72.72,73.57zm249.57 520.6l-287.81 -498.46c-14.25,-24.76 -33.64,-44.2 -56.54,-57.44 -22.69,-13.14 -49.21,-20.16 -77.93,-20.16 -28.72,0 -55.24,7.02 -77.96,20.11 -22.86,13.29 -42.27,32.72 -56.52,57.41l-575.63 997.05c-14.25,24.62 -21.39,51.14 -21.39,77.62 0,26.43 7.14,52.95 21.39,77.62 14.32,24.76 33.73,44.25 56.57,57.44 22.69,13.14 49.21,20.16 77.93,20.16l1151.2 0c28.72,0 55.24,-7.02 77.96,-20.11 22.84,-13.24 42.22,-32.72 56.54,-57.49 14.25,-24.67 21.39,-51.19 21.39,-77.62 0,-26.48 -7.14,-53 -21.34,-77.64l-287.86 -498.49z"/>
    <path fill="#6B6A6A" fill-rule="nonzero" d="M829.15 1862.17c-3.42,-5.91 -7.33,-10.15 -11.72,-12.68 -4.36,-2.53 -10.01,-3.79 -16.9,-3.79 -6.87,0 -12.54,1.25 -16.9,3.79 -4.39,2.51 -8.29,6.78 -11.69,12.68l-575.63 996.95c-3.33,5.71 -4.99,11.21 -4.99,16.49 0,5.23 1.66,10.71 4.99,16.47 3.33,5.86 7.26,10.08 11.79,12.71 4.36,2.53 9.98,3.79 16.83,3.79l1151.2 0c6.87,0 12.49,-1.25 16.85,-3.76 4.51,-2.65 8.44,-6.87 11.77,-12.66 3.33,-5.84 5.02,-11.31 5.02,-16.54 0,-5.28 -1.69,-10.78 -4.97,-16.52l-575.65 -996.93zm10.25 -50.95c11.43,6.58 20.71,16.18 28,28.79l575.63 996.98c7.35,12.85 11.07,25.66 11.07,38.63 0,13.05 -3.71,25.87 -11.07,38.6 -7.38,12.71 -16.64,22.3 -27.92,28.82 -11.48,6.58 -24.45,9.86 -38.97,9.86l-1151.2 0c-14.56,0 -27.46,-3.28 -38.87,-9.86 -11.38,-6.51 -20.62,-16.11 -27.97,-28.84 -7.4,-12.71 -11.12,-25.54 -11.12,-38.58 0,-12.97 3.71,-25.78 11.07,-38.56l575.63 -997.05c7.28,-12.59 16.59,-22.21 28,-28.79 11.41,-6.56 24.35,-9.86 38.87,-9.86 14.52,0 27.46,3.3 38.87,9.86z"/>
   </g>
  </g>
  <polygon fill="#6B6A6A" fill-rule="nonzero" points="2477.3,2856.43 2477.3,1699.8 2538.54,1699.8 2538.54,2856.43 "/>
  <circle fill="#F8B8B6" cx="2507.39" cy="1068.35" r="713.14"/>
  <circle fill="white" cx="2507.39" cy="1068.35" r="559.69"/>
  <g id="_3036615338784">
   <path fill="#6B6A6A" fill-rule="nonzero" d="M2507.39 329.67c203.95,0 388.65,82.71 522.31,216.37 133.66,133.66 216.37,318.36 216.37,522.31 0,203.95 -82.71,388.65 -216.37,522.31 -133.66,133.66 -318.36,216.37 -522.31,216.37 -203.95,0 -388.65,-82.71 -522.31,-216.37 -133.66,-133.66 -216.37,-318.36 -216.37,-522.31 0,-203.95 82.71,-388.65 216.37,-522.31 133.66,-133.66 318.36,-216.37 522.31,-216.37zm486.24 252.44c-124.4,-124.4 -296.35,-201.37 -486.24,-201.37 -189.89,0 -361.84,76.97 -486.24,201.37 -124.4,124.4 -201.37,296.35 -201.37,486.24 0,189.89 76.97,361.84 201.37,486.24 124.4,124.4 296.35,201.37 486.24,201.37 189.89,0 361.84,-76.97 486.24,-201.37 124.4,-124.4 201.37,-296.35 201.37,-486.24 0,-189.89 -76.97,-361.84 -201.37,-486.24z"/>
   <path fill="#6B6A6A" fill-rule="nonzero" d="M2507.39 483.13c161.51,0 307.78,65.52 413.71,171.42 106,106.02 171.52,252.32 171.52,413.8 0,161.51 -65.52,307.78 -171.42,413.71 -106.02,106 -252.29,171.52 -413.8,171.52 -161.48,0 -307.78,-65.52 -413.71,-171.42 -106,-106.02 -171.52,-252.29 -171.52,-413.8 0,-161.48 65.52,-307.78 171.42,-413.71 106.02,-106 252.32,-171.52 413.8,-171.52zm377.78 207.44c-96.64,-96.6 -230.21,-156.37 -377.78,-156.37 -147.55,0 -281.13,59.78 -377.78,156.37 -96.6,96.64 -156.37,230.23 -156.37,377.78 0,147.57 59.78,281.13 156.37,377.78 96.64,96.6 230.23,156.37 377.78,156.37 147.57,0 281.13,-59.78 377.78,-156.37 96.6,-96.64 156.37,-230.21 156.37,-377.78 0,-147.55 -59.78,-281.13 -156.37,-377.78z"/>
  </g>
 </g>
</svg>
