<svg width="23" height="24" viewBox="0 0 23 24" fill="none" xmlns="http://www.w3.org/2000/svg">
<path d="M3.31313 3.97888C-1.10437 8.39638 -1.10437 15.5604 3.31313 19.9786C7.73063 24.3969 14.8931 24.3946 19.3106 19.9771C23.7281 15.5596 23.7304 8.39713 19.3121 3.97963C14.8946 -0.437871 7.73213 -0.437871 3.31313 3.97963V3.97888ZM18.7819 4.50988C19.3888 5.12471 19.9185 5.81128 20.3591 6.55438L17.2991 9.61438C16.977 8.79386 16.4888 8.04877 15.8651 7.42588C15.242 6.8016 14.4963 6.3131 13.6751 5.99113L16.7351 2.93113C17.4794 3.37196 18.167 3.90215 18.7826 4.50988H18.7819ZM7.29187 15.9999C6.22579 14.933 5.62682 13.4865 5.62654 11.9783C5.62626 10.4701 6.22469 9.02341 7.29037 7.95613C8.35785 6.89098 9.80426 6.29278 11.3123 6.29278C12.8202 6.29278 14.2667 6.89098 15.3341 7.95613C16.3985 9.02386 16.9962 10.47 16.9962 11.9776C16.9962 13.4853 16.3985 14.9314 15.3341 15.9991C14.2671 17.0646 12.8209 17.6632 11.3129 17.6635C9.80501 17.6638 8.35857 17.0657 7.29112 16.0006L7.29187 15.9999ZM3.84262 19.4484C3.23512 18.8326 2.70496 18.145 2.26388 17.4009L5.32387 14.3409C5.64758 15.1609 6.13628 15.9057 6.75967 16.5291C7.38305 17.1525 8.12785 17.6412 8.94788 17.9649L5.88638 21.0249C5.15887 20.5899 4.46887 20.0724 3.84188 19.4476L3.84262 19.4484ZM5.88862 2.92888L8.95012 5.99038C8.1296 6.31302 7.38435 6.80126 6.76084 7.42464C6.13733 8.04802 5.64894 8.79317 5.32613 9.61363L2.26462 6.55363C2.69962 5.82613 3.21712 5.13613 3.84337 4.50763C4.4588 3.90033 5.14586 3.37018 5.88937 2.92888H5.88862ZM16.7366 21.0249L13.6751 17.9634C14.4958 17.6412 15.2412 17.1532 15.8647 16.5299C16.4883 15.9066 16.9766 15.1614 17.2991 14.3409L20.3606 17.4009C19.9256 18.1284 19.4081 18.8199 18.7819 19.4484C18.1664 20.0552 17.4794 20.5849 16.7359 21.0256L16.7366 21.0249Z" fill="#b9c2cb"/>
</svg>
