<?xml version="1.0" encoding="UTF-8"?>
<!DOCTYPE svg PUBLIC "-//W3C//DTD SVG 1.1//EN" "http://www.w3.org/Graphics/SVG/1.1/DTD/svg11.dtd">
<!-- Creator: CorelDRAW 2018 (64-Bit) -->
<svg xmlns="http://www.w3.org/2000/svg" xml:space="preserve" width="3.1141mm" height="2.6118mm" version="1.1" shape-rendering="geometricPrecision" text-rendering="geometricPrecision" image-rendering="optimizeQuality" fill-rule="evenodd" clip-rule="evenodd"
viewBox="0 0 15.95 13.38"
 xmlns:xlink="http://www.w3.org/1999/xlink">
 <g id="Layer_x0020_1">
  <metadata id="CorelCorpID_0Corel-Layer"/>
  <polygon fill="#666666" fill-rule="nonzero" points="11.29,1.3 15.75,1.3 15.75,1.72 11.29,1.72 "/>
  <polygon fill="#666666" fill-rule="nonzero" points="11.29,2.69 15.75,2.69 15.75,3.12 11.29,3.12 "/>
  <polygon fill="#666666" fill-rule="nonzero" points="11.28,4.1 15.75,4.1 15.75,4.51 11.28,4.53 "/>
  <polygon fill="#666666" points="6.98,13.38 9.05,11.97 6.98,10.56 7.48,11.54 -0,11.54 -0,12.4 7.48,12.4 "/>
  <polygon fill="#666666" points="6.98,9.74 9.05,8.33 6.98,6.92 7.48,7.89 -0,7.89 -0,8.76 7.48,8.76 "/>
  <path fill="#666666" d="M6.98 6.48l2.07 -1.41 -2.07 -1.41 0.5 0.98 -0.09 0 -0.4 0c-1.28,0.05 -2.34,-1.18 -3.25,-2.27 -0.73,-0.88 -1.32,-1.39 -1.98,-1.39l-1.76 0 0 0.87 1.66 -0c0.44,-0 1.06,0.5 1.7,1.27 0.98,1.19 2.14,2.28 3.61,2.39l0.51 0 -0.5 0.98z"/>
  <path fill="#666666" d="M6.98 2.82l2.07 -1.41 -2.07 -1.41 0.5 0.98 -0.09 0c-0.13,-0 -0.27,-0.01 -0.4,0 -1.12,0.08 -1.95,0.54 -2.74,1.41 0.16,0.19 0.34,0.4 0.51,0.58 0.68,-0.72 1.38,-1.08 2.24,-1.12l0.49 0 -0.5 0.98zm-3.26 1.35c-0.71,0.87 -1.5,1.34 -2.18,1.33l-1.54 0 0 -0.87 1.68 -0.04c0.44,0.01 0.96,-0.29 1.55,-1 0.16,0.19 0.34,0.39 0.5,0.58z"/>
  <polygon fill="#666666" fill-rule="nonzero" points="11.29,7.86 12.51,7.86 12.51,8.26 11.29,8.26 "/>
  <polygon fill="#666666" fill-rule="nonzero" points="11.29,9.25 12.15,9.25 12.15,9.69 11.29,9.69 "/>
  <polygon fill="#666666" fill-rule="nonzero" points="13.35,9.25 13.77,9.25 13.77,9.69 13.35,9.69 "/>
  <polygon fill="#666666" fill-rule="nonzero" points="14.99,9.25 15.75,9.25 15.75,9.69 14.99,9.69 "/>
  <polygon fill="#666666" fill-rule="nonzero" points="14.6,10.67 15.74,10.67 15.74,11.1 14.6,11.12 "/>
  <polygon fill="#666666" fill-rule="nonzero" points="12.96,8.89 12.96,11.75 12.55,11.75 12.55,8.89 "/>
  <polygon fill="#666666" fill-rule="nonzero" points="11.48,10.4 12.76,11.48 14.03,10.4 14.34,10.68 12.76,12.09 11.18,10.68 "/>
  <polygon fill="#666666" fill-rule="nonzero" points="14.17,10.01 14.17,7.19 14.58,7.19 14.58,10.01 "/>
  <polygon fill="#666666" fill-rule="nonzero" points="12.79,8.22 14.37,6.82 15.95,8.22 15.65,8.5 14.37,7.42 13.09,8.5 "/>
 </g>
</svg>
