<?xml version="1.0" encoding="UTF-8"?>
<!DOCTYPE svg PUBLIC "-//W3C//DTD SVG 1.1//EN" "http://www.w3.org/Graphics/SVG/1.1/DTD/svg11.dtd">
<!-- Creator: CorelDRAW 2018 (64-Bit) -->
<svg xmlns="http://www.w3.org/2000/svg" xml:space="preserve" width="13.7304mm" height="13.7256mm" version="1.1" shape-rendering="geometricPrecision" text-rendering="geometricPrecision" image-rendering="optimizeQuality" fill-rule="evenodd" clip-rule="evenodd"
viewBox="0 0 3311.97 3310.81"
 xmlns:xlink="http://www.w3.org/1999/xlink">
 <g id="Layer_x0020_1">
  <metadata id="CorelCorpID_0Corel-Layer"/>
  <rect fill="none" width="3310.81" height="3310.81"/>
  <g id="_3036608084176">
   <rect fill="#84C3D3" x="255.53" y="447.92" width="2796.89" height="2414.97" rx="251.24" ry="251.19"/>
   <rect fill="white" stroke="#6B6A6A" stroke-width="30.39" stroke-linecap="round" stroke-miterlimit="22.9256" x="130.94" y="1298.63" width="2214.68" height="1615.5" rx="259.28" ry="273"/>
   <rect fill="white" x="1019.77" y="1105.4" width="437.1" height="304.24" rx="68.74" ry="69.33"/>
   <path fill="#EEEDA0" d="M302.68 2309.02l0 -318.04c43.32,-120.34 123.89,-180.89 250.57,-167.02 40.69,38.52 81.39,77.07 122.08,115.61 40.69,-38.55 81.39,-77.09 122.08,-115.61 126.69,-13.87 207.25,46.67 250.57,167.02l0 318.04 -745.3 0z"/>
   <path fill="#6B6A6A" fill-rule="nonzero" d="M289.51 2309.02l0 -318.04c0,-2.03 0.46,-3.93 1.28,-5.64 22.58,-62.16 55.07,-109.17 98.46,-138.99 44.02,-30.25 98.83,-42.74 165.38,-35.46 2.99,0.31 5.64,1.62 7.69,3.57l113.01 107.03 113.03 -107.05c2.17,-2.07 4.87,-3.26 7.67,-3.55 66.55,-7.28 121.38,5.21 165.38,35.46 43.71,30.03 76.32,77.43 98.92,140.22 0.51,1.45 0.75,2.94 0.75,4.41l0.07 318.04 -26.34 0 0 -315.89c-20.67,-56.37 -49.79,-98.7 -88.31,-125.17 -37.77,-25.95 -85.25,-36.95 -143.31,-31.41l-118.8 112.55c-5.04,4.78 -13.05,4.85 -18.14,0l-118.8 -112.55c-58.04,-5.55 -105.51,5.43 -143.28,31.41 -38.55,26.46 -67.66,68.79 -88.33,125.17l0 315.89 -26.34 0z"/>
   <circle fill="white" cx="675.33" cy="1615.14" r="170.25"/>
   <path fill="#6B6A6A" fill-rule="nonzero" d="M675.33 1431.73c50.63,0 96.51,20.55 129.7,53.72 33.17,33.17 53.72,79.07 53.72,129.7 0,50.63 -20.55,96.51 -53.72,129.68 -33.19,33.19 -79.07,53.74 -129.7,53.74 -50.63,0 -96.51,-20.55 -129.7,-53.74 -33.17,-33.17 -53.72,-79.05 -53.72,-129.68 0,-50.63 20.55,-96.53 53.72,-129.7 33.19,-33.17 79.07,-53.72 129.7,-53.72zm111.08 72.34c-28.42,-28.42 -67.73,-46 -111.08,-46 -43.37,0 -82.66,17.58 -111.08,46 -28.39,28.42 -46,67.71 -46,111.08 0,43.35 17.61,82.66 46,111.08 28.42,28.39 67.71,46 111.08,46 43.35,0 82.66,-17.61 111.08,-46 28.39,-28.42 46,-67.73 46,-111.08 0,-43.37 -17.61,-82.66 -46,-111.08z"/>
   <polygon fill="#6B6A6A" fill-rule="nonzero" points="449.65,2309.02 449.65,2031.97 475.99,2031.97 475.99,2309.02 "/>
   <polygon fill="#6B6A6A" fill-rule="nonzero" points="885.09,2309.02 885.09,2031.97 911.4,2031.97 911.4,2309.02 "/>
   <polygon fill="#6B6A6A" fill-rule="nonzero" points="688.5,1939.58 688.5,2144.83 662.16,2144.83 662.16,1939.58 "/>
   <path fill="white" d="M2018.46 390.21l1118.53 0 -1.86 2.51c-55.02,11.43 -96.7,60.45 -96.7,118.75l0 13.44 0 7.89 0 1121.31c0,66.7 -54.54,121.26 -121.23,121.26l-1020 0 0 -1263.89c0,-66.72 54.54,-121.26 121.26,-121.26z"/>
   <path fill="#6B6A6A" fill-rule="nonzero" d="M2018.46 374.9l1148.49 0 -22.87 31.6 -5.81 1.21c-24.27,5.02 -45.61,18.48 -60.76,37.05 -14.81,18.19 -23.76,41.46 -23.76,66.72l0 1142.61c0,37.56 -15.37,71.76 -40.09,96.49 -24.72,24.72 -58.9,40.09 -96.46,40.09l-1035.32 0 0 -1279.18c0,-37.48 15.37,-71.66 40.16,-96.41 24.68,-24.77 58.86,-40.16 96.41,-40.16zm1055.36 30.63l-1055.36 0c-29.11,0 -55.6,11.94 -74.8,31.14 -19.22,19.13 -31.14,45.66 -31.14,74.8l0 1248.55 1004.68 0c29.11,0 55.62,-11.94 74.8,-31.12 19.18,-19.18 31.12,-45.71 31.12,-74.82l0 -1142.61c0,-32.47 11.55,-62.47 30.71,-85.97 5.96,-7.31 12.66,-14.01 20,-19.97z"/>
   <path fill="white" d="M1656.25 1618.11l1151.75 0 0 35.99c0,62.64 48.07,114.55 109.2,120.63l0 0.63 -1132.04 0c-79.24,0 -128.9,-64.84 -128.9,-144.08l0 -13.17z"/>
   <path fill="white" d="M3038.43 532.79l0 -21.32c0,-65.54 52.66,-119.3 117.74,-121.21 77.04,1.93 139.57,65.18 140.39,142.53l-258.12 0z"/>
   <path fill="#6B6A6A" fill-rule="nonzero" d="M3023.11 532.77l0 -21.3c0,-36.81 14.81,-70.41 38.71,-95.01 23.93,-24.65 57.17,-40.38 93.9,-41.46l0.77 0c42.67,1.09 81.36,19.15 109.39,47.62 27.98,28.42 45.49,67.35 45.9,110.04l0.17 15.44 -288.85 0 0 -15.32zm30.63 -21.3l0 5.98 226.43 0c-3.74,-28.34 -16.84,-53.94 -36.04,-73.43 -22.58,-22.92 -53.67,-37.51 -87.95,-38.47 -28.27,0.89 -53.91,13.12 -72.46,32.23 -18.5,19.06 -29.98,45.11 -29.98,73.69z"/>
   <path fill="#92C166" d="M2073.24 648.79c-7.57,-7.55 -7.57,-19.83 0,-27.38 7.55,-7.55 19.8,-7.55 27.35,0l37.03 37.05 170.68 -163.25c7.72,-7.36 19.95,-7.04 27.31,0.68 7.33,7.72 7.04,19.95 -0.68,27.28l-183.97 175.99c-7.55,7.55 -19.8,7.55 -27.35,0l-50.37 -50.37z"/>
   <path fill="#92C166" d="M2073.24 1035.89c-7.57,-7.55 -7.57,-19.8 0,-27.35 7.55,-7.55 19.8,-7.55 27.35,0l37.03 37.03 170.68 -163.25c7.72,-7.33 19.95,-7.04 27.31,0.7 7.33,7.72 7.04,19.92 -0.68,27.28l-183.97 175.99c-7.55,7.55 -19.8,7.55 -27.35,0l-50.37 -50.39z"/>
   <path fill="#92C166" d="M2073.24 1416.19c-7.57,-7.57 -7.57,-19.83 0,-27.38 7.55,-7.55 19.8,-7.55 27.35,0l37.03 37.03 170.68 -163.23c7.72,-7.36 19.95,-7.04 27.31,0.68 7.33,7.72 7.04,19.95 -0.68,27.28l-183.97 175.99c-7.55,7.55 -19.8,7.55 -27.35,0l-50.37 -50.37z"/>
   <path fill="none" stroke="#6B6A6A" stroke-width="33.5" stroke-linecap="round" stroke-miterlimit="22.9256" d="M2282.76 1385.9c0.48,4.68 0.75,9.38 0.75,14.09 0,72.36 -58.66,131.03 -131.03,131.03 -72.36,0 -131.03,-58.66 -131.03,-131.03 0,-72.36 58.66,-131.03 131.03,-131.03 23.81,0 47.18,6.49 67.59,18.77"/>
   <path fill="#6B6A6A" fill-rule="nonzero" d="M2441.06 531.47c-14.09,0 -25.54,-7.55 -25.54,-16.84 0,-9.31 11.46,-16.86 25.54,-16.86l461.42 0c14.09,0 25.54,7.55 25.54,16.86 0,9.29 -11.46,16.84 -25.54,16.84l-461.42 0z"/>
   <path fill="#6B6A6A" fill-rule="nonzero" d="M2441.06 658.88c-14.09,0 -25.54,-7.55 -25.54,-16.84 0,-9.31 11.46,-16.86 25.54,-16.86l323.32 0c14.09,0 25.54,7.55 25.54,16.86 0,9.29 -11.46,16.84 -25.54,16.84l-323.32 0z"/>
   <path fill="#6B6A6A" fill-rule="nonzero" d="M2441.06 906.99c-14.09,0 -25.54,-7.55 -25.54,-16.86 0,-9.29 11.46,-16.84 25.54,-16.84l461.42 0c14.09,0 25.54,7.55 25.54,16.84 0,9.31 -11.46,16.86 -25.54,16.86l-461.42 0z"/>
   <path fill="#6B6A6A" fill-rule="nonzero" d="M2441.06 1029.99c-14.09,0 -25.54,-7.57 -25.54,-16.86 0,-9.29 11.46,-16.86 25.54,-16.86l323.32 0c14.09,0 25.54,7.57 25.54,16.86 0,9.29 -11.46,16.86 -25.54,16.86l-323.32 0z"/>
   <path fill="#6B6A6A" fill-rule="nonzero" d="M2441.06 1284.27c-14.09,0 -25.54,-7.55 -25.54,-16.84 0,-9.31 11.46,-16.86 25.54,-16.86l461.42 0c14.09,0 25.54,7.55 25.54,16.86 0,9.29 -11.46,16.84 -25.54,16.84l-461.42 0z"/>
   <path fill="#6B6A6A" fill-rule="nonzero" d="M2441.06 1408.23c-14.09,0 -25.54,-7.55 -25.54,-16.86 0,-9.29 11.46,-16.84 25.54,-16.84l323.32 0c14.09,0 25.54,7.55 25.54,16.84 0,9.31 -11.46,16.86 -25.54,16.86l-323.32 0z"/>
   <path fill="none" stroke="#6B6A6A" stroke-width="33.5" stroke-linecap="round" stroke-miterlimit="22.9256" d="M2282.76 1007.55c0.48,4.68 0.75,9.38 0.75,14.09 0,72.36 -58.66,131.03 -131.03,131.03 -72.36,0 -131.03,-58.66 -131.03,-131.03 0,-72.36 58.66,-131.03 131.03,-131.03 23.81,0 47.18,6.49 67.59,18.77"/>
   <path fill="none" stroke="#6B6A6A" stroke-width="33.5" stroke-linecap="round" stroke-miterlimit="22.9256" d="M2282.76 618.98c0.48,4.68 0.75,9.38 0.75,14.09 0,72.36 -58.66,131.03 -131.03,131.03 -72.36,0 -131.03,-58.66 -131.03,-131.03 0,-72.36 58.66,-131.03 131.03,-131.03 23.81,0 47.18,6.49 67.59,18.77"/>
   <path fill="#6B6A6A" fill-rule="nonzero" d="M1161.54 1561.19c-16.33,0 -29.6,-7.55 -29.6,-16.84 0,-9.31 13.27,-16.86 29.6,-16.86l534.51 0c16.33,0 29.6,7.55 29.6,16.86 0,9.29 -13.27,16.84 -29.6,16.84l-534.51 0z"/>
   <path fill="#6B6A6A" fill-rule="nonzero" d="M1161.06 1760.65c-16.06,0 -29.11,-7.55 -29.11,-16.84 0,-9.31 13.05,-16.86 29.11,-16.86l525.8 0c16.06,0 29.11,7.55 29.11,16.86 0,9.29 -13.05,16.84 -29.11,16.84l-525.8 0z"/>
   <path fill="#6B6A6A" fill-rule="nonzero" d="M1161.54 1960.9c-16.33,0 -29.6,-7.55 -29.6,-16.84 0,-9.31 13.27,-16.86 29.6,-16.86l534.51 0c16.33,0 29.6,7.55 29.6,16.86 0,9.29 -13.27,16.84 -29.6,16.84l-534.51 0z"/>
   <path fill="#6B6A6A" fill-rule="nonzero" d="M1161.54 2160.36c-16.33,0 -29.6,-7.55 -29.6,-16.84 0,-9.31 13.27,-16.86 29.6,-16.86l534.51 0c16.33,0 29.6,7.55 29.6,16.86 0,9.29 -13.27,16.84 -29.6,16.84l-534.51 0z"/>
   <path fill="#6B6A6A" fill-rule="nonzero" d="M349.42 2484.94c-16.33,0 -29.6,-7.55 -29.6,-16.84 0,-9.31 13.27,-16.86 29.6,-16.86l1731.17 0c16.33,0 29.57,7.55 29.57,16.86 0,9.29 -13.24,16.84 -29.57,16.84l-1731.17 0z"/>
   <path fill="#6B6A6A" fill-rule="nonzero" d="M349.42 2692.82c-16.33,0 -29.6,-7.55 -29.6,-16.84 0,-9.31 13.27,-16.86 29.6,-16.86l1731.17 0c16.33,0 29.57,7.55 29.57,16.86 0,9.29 -13.24,16.84 -29.57,16.84l-1731.17 0z"/>
   <rect fill="white" stroke="#6B6A6A" stroke-width="30.39" stroke-linecap="round" stroke-miterlimit="22.9256" x="1019.72" y="1105.35" width="437.2" height="304.34" rx="72.01" ry="72.35"/>
   <path fill="#6B6A6A" fill-rule="nonzero" d="M1656.25 1602.8l1167.07 0 0 51.28c0,27.31 10.42,52.25 27.38,70.99 17.2,19.01 41.2,31.82 68,34.47l13.82 1.37 0 29.74 -1147.38 0c-43.13,0 -78.59,-17.3 -103.63,-45.3 -26,-29.09 -40.57,-69.64 -40.57,-114.07l0 -28.49 15.32 0zm1136.43 30.63l-1121.09 0c0.43,36.13 12.13,68.63 32.64,91.56 19.37,21.66 47.04,35.02 80.9,35.02l1058.23 0c-5.48,-4.44 -10.59,-9.29 -15.29,-14.5 -21.93,-24.24 -35.39,-56.4 -35.39,-91.44l0 -20.65z"/>
  </g>
 </g>
</svg>
