<?xml version="1.0" encoding="UTF-8"?>
<!DOCTYPE svg PUBLIC "-//W3C//DTD SVG 1.1//EN" "http://www.w3.org/Graphics/SVG/1.1/DTD/svg11.dtd">
<!-- Creator: CorelDRAW 2018 (64-Bit) -->
<svg xmlns="http://www.w3.org/2000/svg" xml:space="preserve" width="13.7256mm" height="13.7256mm" version="1.1" shape-rendering="geometricPrecision" text-rendering="geometricPrecision" image-rendering="optimizeQuality" fill-rule="evenodd" clip-rule="evenodd"
viewBox="0 0 3309.65 3309.65"
 xmlns:xlink="http://www.w3.org/1999/xlink">
 <g id="Layer_x0020_1">
  <metadata id="CorelCorpID_0Corel-Layer"/>
  <rect fill="#84C3D3" x="233.91" y="447.69" width="2862.64" height="2414.13" rx="257.14" ry="251.1"/>
  <path fill="white" d="M2176.63 292.15c608.52,0 1101.75,493.23 1101.75,1101.75 0,608.52 -493.23,1101.75 -1101.75,1101.75 -608.52,0 -1101.75,-493.23 -1101.75,-1101.75 0,-608.52 493.23,-1101.75 1101.75,-1101.75zm-957.62 1041.49l1915.25 0c-31.08,-501.91 -447.85,-899.29 -957.62,-899.29 -509.77,0 -926.54,397.38 -957.62,899.29zm1913.32 146.05l-882.66 0 0 871.01c467.48,-35.16 841.37,-405.24 882.66,-871.01zm-1028.73 871.01l0 -871.01 -882.66 0c41.28,465.77 415.18,835.85 882.66,871.01z"/>
  <path fill="#6B6A6A" fill-rule="nonzero" d="M2176.63 272.98c309.54,0 589.8,125.48 792.62,328.3 202.81,202.79 328.3,483.06 328.3,792.62 0,309.54 -125.48,589.8 -328.3,792.62 -202.81,202.81 -483.08,328.3 -792.62,328.3 -309.56,0 -589.83,-125.48 -792.62,-328.3 -202.81,-202.81 -328.3,-483.08 -328.3,-792.62 0,-309.56 125.48,-589.83 328.3,-792.62 202.79,-202.81 483.06,-328.3 792.62,-328.3zm765.52 355.4c-195.89,-195.85 -466.59,-317.04 -765.52,-317.04 -298.95,0 -569.65,121.19 -765.52,317.04 -195.85,195.87 -317.04,466.56 -317.04,765.52 0,298.93 121.19,569.62 317.04,765.52 195.87,195.85 466.56,317.04 765.52,317.04 298.93,0 569.62,-121.19 765.52,-317.04 195.85,-195.89 317.04,-466.59 317.04,-765.52 0,-298.95 -121.19,-569.65 -317.04,-765.52zm-1702.55 686.09l1874.06 0c-19.92,-238.5 -128.84,-451.76 -293.46,-606.3 -168.12,-157.89 -394.54,-254.66 -643.58,-254.66 -249.04,0 -475.46,96.77 -643.58,254.66 -164.62,154.54 -273.54,367.8 -293.46,606.3zm1894.65 38.36l-1935.6 0 1.23 -20.3c15.89,-256.78 130.81,-486.82 306.93,-652.18 175.11,-164.45 410.74,-265.17 669.81,-265.17 259.07,0 494.7,100.72 669.81,265.17 176.12,165.37 291.04,395.4 306.93,652.18l1.25 20.3 -20.38 0zm-23.15 146.05l-842.27 0 0 830.91c220.68,-21.44 419.01,-119.17 568.27,-266.42 149.28,-147.35 249.57,-344.5 274,-564.49zm-861.44 -38.36l903.63 0 -1.88 20.83c-21.05,237.63 -127.1,450.94 -287.5,609.26 -160.18,158.06 -374.69,261.29 -612.86,279.2l-20.59 1.57 0 -910.87 19.19 0zm-165.25 869.27l0 -830.91 -842.27 0c24.43,219.98 124.71,417.13 274,564.49 149.26,147.26 347.59,244.99 568.27,266.42zm38.36 -850.1l0 891.7 -20.59 -1.57c-238.16,-17.92 -452.67,-121.14 -612.86,-279.2 -160.4,-158.33 -266.45,-371.63 -287.5,-609.26l-1.86 -20.83 922.8 0 0 19.17z"/>
  <path fill="#F8B8B6" d="M2176.63 1158.17c130.19,0 235.73,105.54 235.73,235.73 0,130.19 -105.54,235.73 -235.73,235.73 -130.19,0 -235.73,-105.54 -235.73,-235.73 0,-130.19 105.54,-235.73 235.73,-235.73z"/>
  <path fill="white" d="M2176.63 1158.17c130.19,0 235.73,105.54 235.73,235.73 0,130.19 -105.54,235.73 -235.73,235.73 -130.19,0 -235.73,-105.54 -235.73,-235.73 0,-130.19 105.54,-235.73 235.73,-235.73zm0 -143.5c209.47,0 379.23,169.76 379.23,379.23 0,209.47 -169.76,379.23 -379.23,379.23 -209.47,0 -379.23,-169.76 -379.23,-379.23 0,-209.47 169.76,-379.23 379.23,-379.23z"/>
  <path fill="#6B6A6A" fill-rule="nonzero" d="M2176.63 1139c70.29,0 134.07,28.55 180.17,74.73 46.15,46.01 74.73,109.76 74.73,180.17 0,70.36 -28.57,134.16 -74.65,180.24 -46.08,46.08 -109.88,74.65 -180.24,74.65 -70.41,0 -134.16,-28.57 -180.24,-74.65 -46.1,-46.18 -74.65,-109.96 -74.65,-180.24 0,-70.29 28.55,-134 74.65,-180.15 46.25,-46.2 109.96,-74.75 180.24,-74.75zm153.12 101.71c-39.09,-39.14 -93.29,-63.34 -153.12,-63.34 -59.85,0 -114.03,24.21 -153.12,63.32 -39.21,39.18 -63.42,93.37 -63.42,153.21 0,59.82 24.21,114.03 63.32,153.12 39.23,39.14 93.41,63.42 153.21,63.42 59.78,0 113.98,-24.28 153.12,-63.42 39.14,-39.14 63.42,-93.34 63.42,-153.12 0,-59.8 -24.28,-113.98 -63.42,-153.19zm-153.12 -245.23c110.03,0 209.66,44.61 281.71,116.68 72.1,72.07 116.71,171.71 116.71,281.74 0,109.91 -44.61,209.49 -116.71,281.62 -72.22,72.19 -171.81,116.8 -281.71,116.8 -110.03,0 -209.66,-44.61 -281.74,-116.71 -72.07,-72.05 -116.68,-171.68 -116.68,-281.71 0,-109.96 44.61,-209.57 116.68,-281.66 72.17,-72.15 171.78,-116.76 281.74,-116.76zm254.59 143.79c-65.11,-65.11 -155.17,-105.42 -254.59,-105.42 -99.44,0 -189.55,40.29 -254.66,105.4 -65.11,65.11 -105.4,155.22 -105.4,254.66 0,99.42 40.32,189.48 105.42,254.59 65.15,65.15 155.22,105.47 254.63,105.47 99.49,0 189.55,-40.29 254.59,-105.37 65.18,-65.13 105.47,-155.19 105.47,-254.68 0,-99.42 -40.32,-189.48 -105.47,-254.63z"/>
  <g id="_3036602803072">
   <path fill="white" d="M584.76 1683.09c-150.83,0 -290.8,43.98 -406.59,119.17l0 1131.67c115.79,75.18 255.77,119.17 406.59,119.17 156.73,0 301.8,-47.53 420.1,-128.14l0 -1113.73c-118.3,-80.61 -263.36,-128.14 -420.1,-128.14z"/>
   <path fill="#6B6A6A" fill-rule="nonzero" d="M584.76 1702.72c-72.17,0 -141.62,10.32 -206.82,29.39 -64.04,18.78 -124.28,46.1 -179.11,80.54l0 1110.89c54.83,34.43 115.07,61.75 179.11,80.54 65.2,19.07 134.65,29.39 206.82,29.39 74.89,0 147.04,-11.14 214.44,-31.68 66.58,-20.28 128.84,-49.84 184.99,-86.9l0 -1093.57c-56.16,-37.06 -118.42,-66.62 -184.99,-86.9 -67.4,-20.54 -139.54,-31.68 -214.44,-31.68zm-218.92 -8.01c69.28,-20.28 142.85,-31.25 218.92,-31.25 79.04,0 155.36,11.84 227,33.66 74.05,22.57 143.21,56.01 205.15,98.24l8.61 5.91 0 1133.67 -8.61 5.88c-61.95,42.22 -131.1,75.67 -205.15,98.24 -71.64,21.82 -147.96,33.66 -227,33.66 -76.08,0 -149.65,-10.97 -218.92,-31.25 -71.69,-21.03 -138.77,-52.08 -199.29,-91.39l-9.04 -5.86 0 -1152.22 9.04 -5.91c60.52,-39.3 127.61,-70.36 199.29,-91.39z"/>
   <path fill="#6B6A6A" fill-rule="nonzero" d="M336.83 1946.04c-11.41,0 -20.66,-8.83 -20.66,-19.63 0,-10.83 9.26,-19.63 20.66,-19.63l534.42 0c11.38,0 20.66,8.8 20.66,19.63 0,10.8 -9.28,19.63 -20.66,19.63l-534.42 0z"/>
   <path fill="#6B6A6A" fill-rule="nonzero" d="M336.83 2121.56c-11.41,0 -20.66,-8.8 -20.66,-19.63 0,-10.83 9.26,-19.63 20.66,-19.63l534.42 0c11.38,0 20.66,8.8 20.66,19.63 0,10.83 -9.28,19.63 -20.66,19.63l-534.42 0z"/>
   <path fill="#6B6A6A" fill-rule="nonzero" d="M336.83 2297.08c-11.41,0 -20.66,-8.8 -20.66,-19.63 0,-10.83 9.26,-19.63 20.66,-19.63l534.42 0c11.38,0 20.66,8.8 20.66,19.63 0,10.83 -9.28,19.63 -20.66,19.63l-534.42 0z"/>
   <path fill="#6B6A6A" fill-rule="nonzero" d="M336.83 2472.59c-11.41,0 -20.66,-8.8 -20.66,-19.63 0,-10.8 9.26,-19.63 20.66,-19.63l534.42 0c11.38,0 20.66,8.83 20.66,19.63 0,10.83 -9.28,19.63 -20.66,19.63l-534.42 0z"/>
   <path fill="#6B6A6A" fill-rule="nonzero" d="M336.83 2648.14c-11.41,0 -20.66,-8.83 -20.66,-19.63 0,-10.83 9.26,-19.63 20.66,-19.63l534.42 0c11.38,0 20.66,8.8 20.66,19.63 0,10.8 -9.28,19.63 -20.66,19.63l-534.42 0z"/>
   <path fill="#6B6A6A" fill-rule="nonzero" d="M336.83 2823.66c-11.41,0 -20.66,-8.8 -20.66,-19.63 0,-10.83 9.26,-19.63 20.66,-19.63l534.42 0c11.38,0 20.66,8.8 20.66,19.63 0,10.83 -9.28,19.63 -20.66,19.63l-534.42 0z"/>
   <g>
    <polygon fill="#EEEDA0" points="178.17,1802.25 43.07,1802.25 43.07,2933.92 178.17,2933.92 "/>
    <path fill="#6B6A6A" fill-rule="nonzero" d="M157.51 1821.88l-93.75 0 0 1092.42 93.75 0 0 -1092.42zm-114.42 -39.26l155.75 0 0 1170.93 -176.41 0 0 -1170.93 20.66 0z"/>
   </g>
   <path fill="white" d="M1411.45 1683.09c-150.85,0 -290.8,43.98 -406.59,119.17l0 1131.67c115.79,75.18 255.74,119.17 406.59,119.17 156.73,0 301.8,-47.53 420.1,-128.14l0 -1113.73c-118.3,-80.61 -263.36,-128.14 -420.1,-128.14z"/>
   <path fill="#6B6A6A" fill-rule="nonzero" d="M1411.45 1702.72c-72.17,0 -141.64,10.32 -206.84,29.39 -64.02,18.78 -124.28,46.1 -179.09,80.54l0 1110.89c54.81,34.43 115.07,61.75 179.09,80.54 65.2,19.07 134.67,29.39 206.84,29.39 74.89,0 147.02,-11.14 214.44,-31.68 66.58,-20.28 128.84,-49.84 184.99,-86.9l0 -1093.57c-56.16,-37.06 -118.42,-66.62 -184.99,-86.9 -67.42,-20.54 -139.54,-31.68 -214.44,-31.68zm-218.95 -8.01c69.3,-20.28 142.87,-31.25 218.95,-31.25 79.02,0 155.36,11.84 227,33.66 74.05,22.57 143.18,56.01 205.13,98.24l8.63 5.91 0 1133.67 -8.63 5.88c-61.95,42.22 -131.08,75.67 -205.13,98.24 -71.64,21.82 -147.98,33.66 -227,33.66 -76.08,0 -149.65,-10.97 -218.95,-31.25 -71.66,-21.03 -138.75,-52.08 -199.27,-91.39l-9.04 -5.86 0 -1152.22 9.04 -5.91c60.52,-39.3 127.61,-70.36 199.27,-91.39z"/>
   <path fill="#6B6A6A" fill-rule="nonzero" d="M1163.52 1946.04c-11.41,0 -20.69,-8.83 -20.69,-19.63 0,-10.83 9.28,-19.63 20.69,-19.63l534.39 0c11.41,0 20.69,8.8 20.69,19.63 0,10.8 -9.28,19.63 -20.69,19.63l-534.39 0z"/>
   <path fill="#6B6A6A" fill-rule="nonzero" d="M1163.52 2121.56c-11.41,0 -20.69,-8.8 -20.69,-19.63 0,-10.83 9.28,-19.63 20.69,-19.63l534.39 0c11.41,0 20.69,8.8 20.69,19.63 0,10.83 -9.28,19.63 -20.69,19.63l-534.39 0z"/>
   <path fill="#6B6A6A" fill-rule="nonzero" d="M1163.52 2297.08c-11.41,0 -20.69,-8.8 -20.69,-19.63 0,-10.83 9.28,-19.63 20.69,-19.63l534.39 0c11.41,0 20.69,8.8 20.69,19.63 0,10.83 -9.28,19.63 -20.69,19.63l-534.39 0z"/>
   <path fill="#6B6A6A" fill-rule="nonzero" d="M1163.52 2472.59c-11.41,0 -20.69,-8.8 -20.69,-19.63 0,-10.8 9.28,-19.63 20.69,-19.63l534.39 0c11.41,0 20.69,8.83 20.69,19.63 0,10.83 -9.28,19.63 -20.69,19.63l-534.39 0z"/>
   <path fill="#6B6A6A" fill-rule="nonzero" d="M1163.52 2648.14c-11.41,0 -20.69,-8.83 -20.69,-19.63 0,-10.83 9.28,-19.63 20.69,-19.63l534.39 0c11.41,0 20.69,8.8 20.69,19.63 0,10.8 -9.28,19.63 -20.69,19.63l-534.39 0z"/>
   <path fill="#6B6A6A" fill-rule="nonzero" d="M1163.52 2823.66c-11.41,0 -20.69,-8.8 -20.69,-19.63 0,-10.83 9.28,-19.63 20.69,-19.63l534.39 0c11.41,0 20.69,8.8 20.69,19.63 0,10.83 -9.28,19.63 -20.69,19.63l-534.39 0z"/>
   <g>
    <polygon fill="#EEEDA0" points="1966.78,1802.25 1831.67,1802.25 1831.67,2933.92 1966.78,2933.92 "/>
    <path fill="#6B6A6A" fill-rule="nonzero" d="M1946.11 1821.88l-93.75 0 0 1092.42 93.75 0 0 -1092.42zm-114.42 -39.26l155.75 0 0 1170.93 -176.41 0 0 -1170.93 20.66 0z"/>
   </g>
  </g>
  <rect fill="none" width="3309.65" height="3309.65"/>
 </g>
</svg>
